<svg width="34" height="44" viewBox="0 0 34 44" fill="none" xmlns="http://www.w3.org/2000/svg">
<path d="M20.9368 4.13857L20.4031 3.3274L18.8875 1.06467C17.9483 -0.344198 15.8563 -0.365544 14.9171 1.06467L13.4228 3.28471L13.3801 3.34875L12.8464 4.13857L4.86284 16.2634L4.32918 17.0746C4.32918 17.0746 4.32918 17.0746 4.32918 17.0959L0.63623 22.6887L7.50981 22.646L13.6149 22.6033C14.8103 22.6033 16.0057 23.0516 16.8596 23.9055C17.4359 24.4818 17.8415 25.1862 18.0336 25.9334H24.5016C24.2241 23.4358 23.1782 21.1091 21.3637 19.3373C19.2931 17.3094 16.5607 16.1994 13.6576 16.1994H11.8432V16.2207L16.39 9.41116L16.9236 8.6L17.4573 9.41116L24.0747 19.3373C24.7792 20.4046 25.9746 21.0237 27.234 21.0237H32.2291L20.9368 4.13857Z" fill="#F43F5E"/>
<path d="M33.1461 28.1914L26.8702 28.2341H26.6994L19.1854 28.2768C17.9046 28.3195 16.7946 27.8072 15.9194 26.9533C15.4071 26.441 15.0442 25.8006 14.8307 25.1389H8.29871C8.64025 27.551 9.68623 29.7924 11.4366 31.5215C13.5073 33.5494 16.2396 34.6808 19.1214 34.6808H23.7109L23.7536 34.6594C21.8537 36.5166 19.2708 37.3064 16.0688 37.0502C15.9835 37.0502 15.8767 37.0502 15.7273 37.0289C11.0097 36.3244 8.10659 34.019 6.86849 30.0272C6.37752 28.4689 6.27079 26.8039 6.46291 25.1389H0.0589497C-0.111822 27.4443 0.0802962 29.7284 0.742038 31.9271C2.15091 36.4525 5.77982 42.1093 15.0869 43.4115L16.7306 43.4969C23.3053 43.6676 28.4285 40.6578 31.3956 34.9796C31.481 34.8088 31.5664 34.6594 31.6305 34.4886C32.591 32.5248 33.1461 30.3901 33.3382 28.1914H33.1461Z" fill="#F43F5E"/>
</svg>
