<svg width="213" height="46" viewBox="0 0 213 46" fill="none" xmlns="http://www.w3.org/2000/svg">
<path d="M20.9368 4.13857L20.4031 3.3274L18.8875 1.06467C17.9483 -0.344198 15.8563 -0.365544 14.9171 1.06467L13.4228 3.28471L13.3801 3.34875L12.8464 4.13857L4.86284 16.2634L4.32918 17.0746C4.32918 17.0746 4.32918 17.0746 4.32918 17.0959L0.63623 22.6887L7.50981 22.646L13.6149 22.6033C14.8103 22.6033 16.0057 23.0516 16.8596 23.9055C17.4359 24.4818 17.8415 25.1862 18.0336 25.9334H24.5016C24.2241 23.4358 23.1782 21.1091 21.3637 19.3373C19.2931 17.3094 16.5607 16.1994 13.6576 16.1994H11.8432V16.2207L16.39 9.41116L16.9236 8.6L17.4573 9.41116L24.0747 19.3373C24.7792 20.4046 25.9746 21.0237 27.234 21.0237H32.2291L20.9368 4.13857Z" fill="#F43F5E"/>
<path d="M33.1461 28.1914L26.8702 28.2341H26.6994L19.1854 28.2768C17.9046 28.3195 16.7946 27.8072 15.9194 26.9533C15.4071 26.441 15.0442 25.8006 14.8307 25.1389H8.29871C8.64025 27.551 9.68623 29.7924 11.4366 31.5215C13.5073 33.5494 16.2396 34.6808 19.1214 34.6808H23.7109L23.7536 34.6594C21.8537 36.5166 19.2708 37.3064 16.0688 37.0502C15.9835 37.0502 15.8767 37.0502 15.7273 37.0289C11.0097 36.3244 8.10659 34.019 6.86849 30.0272C6.37752 28.4689 6.27079 26.8039 6.46291 25.1389H0.0589497C-0.111822 27.4443 0.0802962 29.7284 0.742038 31.9271C2.15091 36.4525 5.77982 42.1093 15.0869 43.4115L16.7306 43.4969C23.3053 43.6676 28.4285 40.6578 31.3956 34.9796C31.481 34.8088 31.5664 34.6594 31.6305 34.4886C32.591 32.5248 33.1461 30.3901 33.3382 28.1914H33.1461Z" fill="#0E172A"/>
<path d="M118.442 37.434C116.567 37.434 114.849 37.0079 113.287 36.1558C111.753 35.2753 110.517 33.983 109.58 32.2788C108.671 30.5746 108.217 28.4443 108.217 25.888C108.217 23.3317 108.657 21.2014 109.538 19.4972C110.446 17.793 111.668 16.5149 113.202 15.6628C114.764 14.8107 116.511 14.3846 118.442 14.3846C120.657 14.3846 122.617 14.8675 124.321 15.8332C126.026 16.7989 127.375 18.1481 128.369 19.8807C129.363 21.5849 129.86 23.5873 129.86 25.888C129.86 28.1887 129.363 30.2053 128.369 31.9379C127.375 33.6705 126.026 35.0197 124.321 35.9854C122.617 36.9511 120.657 37.434 118.442 37.434ZM106.47 45.4437V14.5977H110.39V20.6902L110.134 25.9306L110.56 31.171V45.4437H106.47ZM118.101 33.8551C119.55 33.8551 120.842 33.5285 121.978 32.8752C123.143 32.2219 124.052 31.2988 124.705 30.1059C125.387 28.8846 125.727 27.4786 125.727 25.888C125.727 24.269 125.387 22.8772 124.705 21.7127C124.052 20.5198 123.143 19.5967 121.978 18.9434C120.842 18.2901 119.55 17.9635 118.101 17.9635C116.681 17.9635 115.389 18.2901 114.224 18.9434C113.088 19.5967 112.179 20.5198 111.497 21.7127C110.844 22.8772 110.517 24.269 110.517 25.888C110.517 27.4786 110.844 28.8846 111.497 30.1059C112.179 31.2988 113.088 32.2219 114.224 32.8752C115.389 33.5285 116.681 33.8551 118.101 33.8551Z" fill="#0E172A"/>
<path d="M92.0795 37.434C89.8073 37.434 87.7906 36.9369 86.0296 35.9428C84.2686 34.9487 82.8769 33.5853 81.8543 31.8527C80.8318 30.0917 80.3206 28.1035 80.3206 25.888C80.3206 23.6441 80.8318 21.6559 81.8543 19.9233C82.8769 18.1907 84.2686 16.8415 86.0296 15.8758C87.7906 14.8817 89.8073 14.3846 92.0795 14.3846C94.3234 14.3846 96.3258 14.8817 98.0869 15.8758C99.8763 16.8415 101.268 18.1907 102.262 19.9233C103.285 21.6275 103.796 23.6157 103.796 25.888C103.796 28.1319 103.285 30.1201 102.262 31.8527C101.268 33.5853 99.8763 34.9487 98.0869 35.9428C96.3258 36.9369 94.3234 37.434 92.0795 37.434ZM92.0795 33.8551C93.5281 33.8551 94.8205 33.5285 95.9566 32.8752C97.1211 32.222 98.03 31.2988 98.6833 30.1059C99.3366 28.8846 99.6632 27.4786 99.6632 25.888C99.6632 24.269 99.3366 22.8772 98.6833 21.7127C98.03 20.5198 97.1211 19.5967 95.9566 18.9434C94.8205 18.2901 93.5281 17.9635 92.0795 17.9635C90.631 17.9635 89.3386 18.2901 88.2025 18.9434C87.0664 19.5967 86.1574 20.5198 85.4758 21.7127C84.7941 22.8772 84.4532 24.269 84.4532 25.888C84.4532 27.4786 84.7941 28.8846 85.4758 30.1059C86.1574 31.2988 87.0664 32.222 88.2025 32.8752C89.3386 33.5285 90.631 33.8551 92.0795 33.8551Z" fill="#0E172A"/>
<path d="M68.4148 37.1783V14.5977H72.3345V20.7328L71.951 19.199C72.5759 17.6368 73.6268 16.4439 75.1038 15.6202C76.5808 14.7965 78.3986 14.3846 80.5572 14.3846V18.3469C80.3868 18.3185 80.2164 18.3043 80.046 18.3043C79.904 18.3043 79.7619 18.3043 79.6199 18.3043C77.4329 18.3043 75.7003 18.9576 74.4221 20.2641C73.144 21.5707 72.5049 23.4595 72.5049 25.9306V37.1783H68.4148Z" fill="#0E172A"/>
<path d="M51.6865 37.434C49.4994 37.434 47.5396 36.9511 45.807 35.9854C44.1028 35.0197 42.7536 33.6705 41.7595 31.9379C40.7654 30.2053 40.2683 28.1887 40.2683 25.888C40.2683 23.5874 40.7654 21.5849 41.7595 19.8807C42.7536 18.1481 44.1028 16.799 45.807 15.8332C47.5396 14.8675 49.4994 14.3847 51.6865 14.3847C53.5895 14.3847 55.3079 14.8107 56.8417 15.6628C58.3754 16.5149 59.5968 17.7931 60.5057 19.4973C61.443 21.2015 61.9117 23.3317 61.9117 25.888C61.9117 28.4443 61.4572 30.5746 60.5483 32.2788C59.6678 33.983 58.4607 35.2753 56.9269 36.1558C55.3931 37.0079 53.6463 37.434 51.6865 37.434ZM52.0273 33.8552C53.4475 33.8552 54.7256 33.5285 55.8618 32.8753C57.0263 32.222 57.9352 31.2989 58.5885 30.1059C59.2702 28.8846 59.611 27.4786 59.611 25.888C59.611 24.269 59.2702 22.8773 58.5885 21.7127C57.9352 20.5198 57.0263 19.5967 55.8618 18.9434C54.7256 18.2901 53.4475 17.9635 52.0273 17.9635C50.5787 17.9635 49.2864 18.2901 48.1502 18.9434C47.0141 19.5967 46.1052 20.5198 45.4235 21.7127C44.7418 22.8773 44.401 24.269 44.401 25.888C44.401 27.4786 44.7418 28.8846 45.4235 30.1059C46.1052 31.2989 47.0141 32.222 48.1502 32.8753C49.2864 33.5285 50.5787 33.8552 52.0273 33.8552ZM59.7388 37.1784V31.0858L59.9944 25.8454L59.5684 20.605V5.56543H63.6585V37.1784H59.7388Z" fill="#0E172A"/>
<path d="M193.62 32.0135L193.705 26.7731L206.7 14.8863H211.642L201.672 24.6854L199.457 26.56L193.62 32.0135ZM190.297 37.4669V5.854H194.387V37.4669H190.297ZM207.552 37.4669L198.69 26.4748L201.332 23.1943L212.579 37.4669H207.552Z" fill="#F43F5E"/>
<path d="M177.643 14.6733C179.489 14.6733 181.108 15.0284 182.5 15.7385C183.92 16.4485 185.028 17.5279 185.823 18.9764C186.619 20.425 187.016 22.257 187.016 24.4725V37.467H182.926V24.9412C182.926 22.7541 182.387 21.1067 181.307 19.999C180.256 18.8912 178.765 18.3374 176.834 18.3374C175.385 18.3374 174.121 18.6214 173.042 19.1895C171.962 19.7575 171.125 20.5954 170.528 21.7032C169.96 22.8109 169.676 24.1885 169.676 25.8359V37.467H165.586V14.8864H169.506V20.9789L168.867 19.3599C169.605 17.8829 170.741 16.7326 172.275 15.9089C173.809 15.0852 175.598 14.6733 177.643 14.6733Z" fill="#F43F5E"/>
<path d="M158.215 37.4668V14.8862H162.305V37.4668H158.215Z" fill="#F43F5E"/>
<path d="M134.951 37.4669V7.64337H139.211V33.7603H155.358V37.4669H134.951Z" fill="#F43F5E"/>
<path d="M158.215 7.64337L162.305 8.68387V12.6207L158.215 11.4633V7.64337Z" fill="#F43F5E"/>
</svg>
