<svg xmlns="http://www.w3.org/2000/svg" style="display:none">

  <!-- arrow-outline -->
  <symbol id="icon-arrow-outline" viewBox="0 0 16 15">
    <path
      d="M8.75 1.06067L14.75 7.06067L8.75 13.0607
         M14.25 7.06067L0.75 7.06067"
      fill="none"
      stroke="currentColor"
      stroke-width="1.5"
      stroke-linecap="square"
    />
  </symbol>

  <!-- blood-fill -->
  <symbol id="icon-blood-fill" viewBox="0 0 21 25">
    <path
      d="M0 14.4616C0 9.28011 4.39318 4.15975 7.47656 1.20398
         C9.15134 -0.401326 11.7052 -0.401326 13.38 1.20398
         C16.4634 4.15975 20.8566 9.28011 20.8566 14.4616
         C20.8566 19.5418 16.9076 24.7672 10.4283 24.7672
         C3.94893 24.7672 0 19.5418 0 14.4616Z"
      fill="currentColor"
    />
  </symbol>

  <!-- bloods-outline -->
  <symbol id="icon-bloods-outline" viewBox="0 0 22 22">
    <path
      d="M4.25 14.25C2.03795 13.3666 0.75 11.1828 0.75 8.9246
         C0.75 5.99571 3.06698 3.10135 4.69326 1.43056
         C5.57649 0.523147 6.92351 0.523147 7.80674 1.43056
         C8.29874 1.93602 8.71485 2.55348 9.25 3.25
         M17.25 14.25C17.25 16.4591 15.75 17.25 14.25 17.25
         M6.75 13.6763C6.75 10.1198 9.6989 6.60521 11.7687 4.57639
         C12.8928 3.47454 14.6072 3.47454 15.7313 4.57639
         C17.8011 6.60521 20.75 10.1198 20.75 13.6763
         C20.75 17.1634 18.0992 20.75 13.75 20.75
         C9.4008 20.75 6.75 17.1634 6.75 13.6763Z"
      fill="none"
      stroke="currentColor"
      stroke-width="1.5"
      stroke-linecap="round"
    />
  </symbol>

  <!-- call-fill -->
  <symbol id="icon-call-fill" viewBox="0 0 24 24">
    <path
      d="M20.2151 23.9263C22.3337 24.1599 23.9473 22.4106 23.9473 20.4595
         V18.6541C23.9473 17.3063 22.8832 16.3488 21.7689 16.1461
         C21.1183 16.0278 20.409 15.8299 19.7941 15.6339
         C18.4898 15.2181 16.9912 15.4962 15.9649 16.5225
         L13.1844 19.3019
         C9.55191 17.3785 6.56731 14.3944 4.64421 10.7617
         L7.496 7.91227
         C8.46462 6.94365 8.78458 5.52911 8.40333 4.25136
         C8.2022 3.57744 7.98283 2.78952 7.83976 2.13153
         C7.60011 1.02979 6.61599 0 5.29315 0
         H3.48783
         C1.53669 0 -0.212562 1.6135 0.0210158 3.73222
         C1.19141 14.3371 9.61025 22.7558 20.2151 23.9263Z"
      fill="currentColor"
    />
  </symbol>

  <!-- call-outline -->
  <symbol id="icon-call-outline" viewBox="0 0 20 20">
    <path
      d="M2.66235 8.2913L5.30278 5.65088
         C5.8414 5.11227 6.02777 4.31642 5.80993 3.58652
         C5.63959 3.01577 5.44767 2.32964 5.3201 1.74292
         C5.20211 1.20027 4.72594 0.75 4.17061 0.75
         H2.66235
         C1.55169 0.75 0.639602 1.65384 0.761432 2.7578
         C1.68758 11.1496 8.35089 17.8129 16.7427 18.7391
         C17.8467 18.8609 18.7505 17.9488 18.7505 16.8381
         V15.3299
         C18.7505 14.7746 18.2984 14.319 17.752 14.2196
         C17.1493 14.11 16.5116 13.9304 15.9781 13.7603
         C15.2116 13.5159 14.3596 13.6877 13.7908 14.2565
         L11.2092 16.8381
         M17.0175 2.48352L11.7505 7.7505
         M12.7505 2.04648
         C14.0058 1.93726 16.7974 1.42785 17.4353 2.06573
         C18.0731 2.7036 17.5637 5.49515 17.4545 6.75049"
      fill="none"
      stroke="currentColor"
      stroke-width="1.5"
      stroke-linecap="round"
      stroke-linejoin="round"
    />
  </symbol>

  <!-- createrequest-outline -->
  <symbol id="icon-createrequest-outline" viewBox="0 0 20 22">
    <path
      d="M13.2505 9.75H9.75049
         M9.75049 9.75H6.25049
         M9.75049 9.75V13.25
         M9.75049 9.75V6.25
         M11.3682 20.117
         C10.9346 20.523 10.3549 20.75 9.75159 20.75
         C9.14829 20.75 8.56869 20.523 8.13499 20.117
         C4.16351 16.376 -1.15875 12.1969 1.43676 6.12966
         C2.84012 2.84916 6.20883 0.75 9.75159 0.75
         C13.2944 0.75 16.6631 2.84916 18.0665 6.12966
         C20.6587 12.1893 15.3495 16.3889 11.3682 20.117Z"
      fill="none"
      stroke="currentColor"
      stroke-width="1.5"
    />
  </symbol>

  <!-- dashboard-outline -->
  <symbol id="icon-dashboard-outline" viewBox="0 0 17 17">
    <path
      d="M15.75 8.24999H11.8408
         C11.6833 8.24999 11.5383 8.33916 11.4683 8.47999
         L10.2892 10.8375
         C10.1358 11.145 9.6975 11.145 9.54417 10.8375
         L6.94167 5.63416
         C6.79083 5.33249 6.3625 5.32583 6.2025 5.62249
         L4.90333 8.03083
         C4.83 8.16583 4.68917 8.24999 4.53667 8.24999
         H0.75
         M15.75 4.08333V12.4167
         C15.75 14.2575 14.2575 15.75 12.4167 15.75
         H4.08333
         C2.2425 15.75 0.75 14.2575 0.75 12.4167
         V4.08333
         C0.75 2.2425 2.2425 0.75 4.08333 0.75
         H12.4167
         C14.2575 0.75 15.75 2.2425 15.75 4.08333Z"
      fill="none"
      stroke="currentColor"
      stroke-width="1.5"
      stroke-linecap="round"
      stroke-linejoin="round"
    />
  </symbol>

  <!-- donatblood-fill -->
  <symbol id="icon-donatblood-fill" viewBox="0 0 21 24">
    <path
      d="M0 13.8643H3.01841
         C3.38915 13.8643 3.7548 13.9478 4.0864 14.1083
         L6.66009 15.3536
         C6.99168 15.514 7.35733 15.5974 7.72808 15.5974
         H9.04216
         C10.3131 15.5974 11.3435 16.5945 11.3435 17.8244
         C11.3435 17.8741 11.3095 17.9178 11.2601 17.9314
         L8.05754 18.817
         C7.48302 18.9758 6.8393 19.6941 6.30489 19.4355
         L0 21.4517
         M11.3435 17.0153
         L17.1322 15.2367
         C18.1584 14.917 19.2677 15.2961 19.9105 16.1863
         C20.3753 16.8298 20.186 17.7516 19.5089 18.1423
         L10.0364 23.6077
         C9.43389 23.9553 8.72303 24.0402 8.06044 23.8435
         L0 21.4517
         M6.4329 6.99147
         C6.4329 4.48647 8.55678 2.01103 10.0474 0.582063
         C10.8571 -0.194021 12.0918 -0.194021 12.9015 0.582063
         C14.3921 2.01103 16.516 4.48647 16.516 6.99147
         C16.516 9.4475 14.6069 11.9737 11.4745 11.9737
         C8.34201 11.9737 6.4329 9.4475 6.4329 6.99147Z"
      fill="currentColor"
    />
  </symbol>

  <!-- event-outline -->
  <symbol id="icon-event-outline" viewBox="0 0 18 20">
    <path
      d="M12.4565 0.75V4.352
         M5.2525 0.75V4.352
         M0.75 7.954H16.959
         M9.75501 2.551H7.954
         C4.558 2.551 2.86001 2.551 1.805 3.606
         C0.75 4.66101 0.75 6.359 0.75 9.755
         V11.556
         C0.75 14.952 0.75 16.65 1.805 17.705
         C2.86001 18.76 4.558 18.76 7.954 18.76
         H9.75501
         C13.151 18.76 14.849 18.76 15.904 17.705
         C16.959 16.65 16.959 14.952 16.959 11.556
         V9.755
         C16.959 6.359 16.959 4.66101 15.904 3.606
         C14.849 2.551 13.151 2.551 9.75501 2.551Z"
      fill="none"
      stroke="currentColor"
      stroke-width="1.5"
      stroke-linecap="round"
      stroke-linejoin="round"
    />
  </symbol>

  <!-- give-outline -->
  <symbol id="icon-give-outline" viewBox="0 0 25 14">
    <path
      d="M0.213379 0.75H3.71425
         C4.14426 0.75 4.56835 0.84692 4.95295 1.03301
         L7.93803 2.47732
         C8.32263 2.66342 8.74672 2.76019 9.17673 2.76019
         H10.7009
         C12.175 2.76019 13.3701 3.91667 13.3701 5.34314
         C13.3701 5.40074 13.3306 5.45146 13.2733 5.46725
         L9.55886 6.49435
         C8.8925 6.67854 8.17901 6.61437 7.55919 6.3144
         L4.36813 4.77053
         M13.3701 4.40467
         L20.0841 2.34185
         C21.2743 1.97098 22.5609 2.41071 23.3064 3.44321
         C23.8455 4.18963 23.626 5.25869 22.8407 5.71186
         L11.854 12.0509
         C11.1552 12.4541 10.3307 12.5525 9.56222 12.3244
         L0.213379 9.55025"
      fill="none"
      stroke="currentColor"
      stroke-width="1.5"
    />
  </symbol>

  <!-- hospital-outline -->
  <symbol id="icon-hospital-outline" viewBox="0 0 20 22">
    <path
      d="M9.75 3.25V4.75
         M9.75 4.75V6.25
         M9.75 4.75H11.25
         M9.75 4.75H8.25
         M1.75 20.75V10.7207
         C1.75 7.41123 1.75 5.75649 2.77513 4.72836
         C3.42665 4.07493 4.33055 3.83679 5.75 3.75
         M17.75 20.75V10.7207
         C17.75 7.41123 17.75 5.75649 16.7249 4.72836
         C16.0733 4.07493 15.1694 3.83679 13.75 3.75
         M0.75 20.75H18.75
         M7.25 20.75V18.25
         C7.25 17.3154 7.25 16.8481 7.45096 16.5
         C7.58261 16.272 7.772 16.0826 8 15.951
         C8.3481 15.75 8.8154 15.75 9.75 15.75
         C10.6846 15.75 11.1519 15.75 11.5 15.951
         C11.728 16.0826 11.9174 16.272 12.049 16.5
         C12.25 16.8481 12.25 17.3154 12.25 18.25V20.75
         M5.75896 11.75H5.75
         M9.75 11.75H9.741
         M13.7511 11.75H13.7422
         M6.33579 1.33579
         C5.75 1.92157 5.75 2.86438 5.75 4.75
         C5.75 6.63562 5.75 7.57843 6.33579 8.16421
         C6.92157 8.75 7.8644 8.75 9.75 8.75
         C11.6356 8.75 12.5784 8.75 13.1642 8.16421
         C13.75 7.57843 13.75 6.63562 13.75 4.75
         C13.75 2.86438 13.75 1.92157 13.1642 1.33579
         C12.5784 0.75 11.6356 0.75 9.75 0.75
         C7.8644 0.75 6.92157 0.75 6.33579 1.33579Z"
      fill="none"
      stroke="currentColor"
      stroke-width="1.5"
      stroke-linecap="round"
    />
  </symbol>

  <!-- location-outline -->
  <symbol id="icon-location-outline" viewBox="0 0 18 20">
    <path
      d="M11.4581 8.63985
         C11.4581 10.1961 10.1966 11.4576 8.64034 11.4576
         C7.08412 11.4576 5.82253 10.1961 5.82253 8.63985
         C5.82253 7.08362 7.08412 5.82204 8.64034 5.82204
         C10.1966 5.82204 11.4581 7.08362 11.4581 8.63985Z
         M10.0576 18.2132
         C9.6774 18.5793 9.16929 18.7839 8.64056 18.7839
         C8.11172 18.7839 7.60361 18.5793 7.22343 18.2132
         C3.74221 14.8399 -0.923072 11.0716 1.35204 5.60082
         C2.58217 2.6428 5.53505 0.75 8.64056 0.75
         C11.746 0.75 14.6988 2.64281 15.929 5.60082
         C18.2013 11.0647 13.5474 14.8515 10.0576 18.2132Z"
      fill="none"
      stroke="currentColor"
      stroke-width="1.5"
      stroke-linecap="round"
    />
  </symbol>

  <!-- lock-outline -->
  <symbol id="icon-lock-outline" viewBox="0 0 18 20">
    <path
      d="M11.75 8.75H6.75
         M9.25 12.25V14.25
         M4.75 8.75V5.75
         C4.75 3.12665 6.87665 1 9.5 1
         C12.1234 1 14.25 3.12665 14.25 5.75V8.75
         M4.75 8.75H14.25
         C15.3546 8.75 16.25 9.64543 16.25 10.75V16.75
         C16.25 17.8546 15.3546 18.75 14.25 18.75H4.75
         C3.64543 18.75 2.75 17.8546 2.75 16.75V10.75
         C2.75 9.64543 3.64543 8.75 4.75 8.75Z"
      fill="none"
      stroke="currentColor"
      stroke-width="1.5"
      stroke-linecap="round"
      stroke-linejoin="round"
    />
  </symbol>

  <!-- logout-outline -->
  <symbol id="icon-logout-outline" viewBox="0 0 21 20">
    <path
      d="M13.75 5.79039
         C13.7088 4.62966 13.5716 3.90445 13.1145 3.33665
         C12.4614 2.5253 11.3444 2.27058 9.1105 1.76115
         L8.10915 1.5328
         C4.7149 0.758757 3.01777 0.371737 1.88388 1.26311
         C0.75 2.15448 0.75 3.87564 0.75 7.31797V12.1819
         C0.75 15.6242 0.75 17.3454 1.88388 18.2367
         C3.01777 19.1281 4.7149 18.7411 8.10915 17.967
         L9.1105 17.7387
         C11.3444 17.2293 12.4614 16.9745 13.1145 16.1632
         C13.5716 15.5954 13.7088 14.8702 13.75 13.7094
         M16.75 6.76166
         C16.75 6.76166 19.75 8.97114 19.75 9.76164
         C19.75 10.5522 16.75 12.7616 16.75 12.7616
         M19.25 9.76164H6.74998"
      fill="none"
      stroke="currentColor"
      stroke-width="1.5"
      stroke-linecap="round"
      stroke-linejoin="round"
    />
  </symbol>

  <!-- love-fill -->
  <symbol id="icon-love-fill" viewBox="0 0 28 24">
    <path
      d="M13.1906 23.4094
         C13.4926 23.5904 13.8703 23.5904 14.1723 23.4094
         C14.5292 23.1805 15.6079 22.488 16.2157 22.0646
         C17.4294 21.2189 19.0529 20.0108 20.68 18.5623
         C22.3031 17.1172 23.9557 15.4107 25.209 13.5672
         C26.4564 11.7323 27.3629 9.68075 27.3629 7.56533
         C27.3628 3.43885 24.3064 0 20.0449 0
         C18.0191 0 16.0566 0.652485 13.6815 2.81882
         C11.3064 0.652485 9.34392 0 7.318 0
         C3.05645 0 0 3.43885 0 7.56533
         C0 9.68075 0.906477 11.7323 2.15388 13.5672
         C3.40732 15.4107 5.05981 17.1172 6.68289 18.5623
         C8.31002 20.0108 9.93346 21.2189 11.1473 22.0646
         C11.755 22.488 12.8337 23.1805 13.1906 23.4094Z"
      fill="currentColor"
    />
  </symbol>


  <!-- mailbox-fill -->
<symbol id="icon-mailbox-fill" viewBox="0 0 27 23">
  <path
    fill-rule="evenodd"
    clip-rule="evenodd"
    d="M16.3458 0.0447896
       C13.9658 -0.014936 12.1976 -0.0149238 9.8176 0.0447896
       L9.72651 0.0470776
       C7.88977 0.093113 6.37852 0.130995 5.16044 0.342858
       C3.86765 0.567729 2.7852 1.00566 1.86838 1.92482
       C0.956362 2.83916 0.519677 3.90455 0.298456 5.17689
       C0.0908402 6.37094 0.0594198 7.84443 0.0213917 9.62776
       L0.0194324 9.71951
       C-0.00648762 10.934 -0.00647542 11.5788 0.0194568 12.7932
       L0.021416 12.8849
       C0.059432 14.6683 0.0908524 16.1417 0.298468 17.3359
       C0.519701 18.6081 0.956386 19.6735 1.86839 20.5879
       C2.78522 21.507 3.86767 21.945 5.16047 22.1699
       C6.37854 22.3817 7.88978 22.4196 9.72653 22.4656
       L9.81763 22.4679
       C12.1976 22.5277 13.9658 22.5277 16.3458 22.4679
       L16.4368 22.4656
       C18.2736 22.4196 19.7849 22.3816 21.003 22.1698
       C22.2957 21.945 23.3781 21.507 24.295 20.5879
       C25.207 19.6735 25.6438 18.6081 25.8649 17.3357
       C26.0726 16.1417 26.104 14.6683 26.142 12.8849
       L26.1439 12.7932
       C26.1698 11.5787 26.1698 10.934 26.1439 9.71951
       L26.142 9.62788
       C26.104 7.84448 26.0725 6.37094 25.8649 5.17689
       C25.6437 3.90455 25.207 2.83916 24.295 1.92482
       C23.7798 1.40829 23.2123 1.04373 22.5845 0.783547
       C22.489 0.731402 22.3866 0.692084 22.2799 0.666992
       C21.8786 0.525503 21.4535 0.421238 21.0029 0.34287
       C19.7849 0.130995 18.2736 0.093113 16.4368 0.0470654
       L16.3458 0.0447896Z

       M23.6442 7.42346
       C23.6206 6.93 23.6088 6.68327 23.4301 6.58476
       C23.2515 6.48625 23.0317 6.61072 22.5924 6.85964
       L17.438 9.78024
       C15.8564 10.6764 14.5189 11.2563 13.0815 11.2563
       C11.644 11.2563 10.3065 10.6764 8.725 9.78024
       L3.57094 6.8599
       C3.13161 6.61097 2.91195 6.48651 2.73326 6.58502
       C2.55457 6.68353 2.5428 6.93027 2.51927 7.42374
       C2.48754 8.08879 2.47035 8.85977 2.45088 9.77136
       C2.42569 10.9511 2.4257 11.5615 2.4509 12.7413
       C2.49144 14.6397 2.52216 15.9284 2.69461 16.9202
       C2.85699 17.8541 3.1279 18.4089 3.59134 18.8735
       C4.04997 19.3334 4.61239 19.6089 5.57773 19.7768
       C6.59773 19.9543 7.92808 19.9908 9.8787 20.0397
       C12.2179 20.0984 13.9455 20.0984 16.2847 20.0397
       C18.2353 19.9908 19.5657 19.9543 20.5857 19.7768
       C21.551 19.6089 22.1134 19.3334 22.5721 18.8735
       C23.0355 18.4089 23.3065 17.8541 23.4688 16.9202
       C23.6412 15.9284 23.672 14.6397 23.7126 12.7413
       C23.7377 11.5615 23.7377 10.9511 23.7126 9.77136
       C23.6931 8.85965 23.6758 8.08859 23.6442 7.42346Z"
    fill="currentColor"
  />
</symbol>


  <!-- mailbox-outline -->
<symbol id="icon-mailbox-outline" viewBox="0 0 24 22">
  <path
    d="M0.75 3.65999
       L8.50166 8.21932
       C11.3594 9.90016 12.5668 9.90016 15.4246 8.21932
       L23.1763 3.65999
       
       M0.767683 12.3615
       C0.840983 15.9299 0.877639 17.7139 2.14599 19.0357
       C3.41433 20.3573 5.17956 20.4032 8.71001 20.4953
       C10.8859 20.5521 13.0404 20.5521 15.2163 20.4953
       C18.7467 20.4032 20.5119 20.3573 21.7803 19.0357
       C23.0487 17.7139 23.0853 15.9299 23.1585 12.3615
       C23.1822 11.2142 23.1822 10.0737 23.1585 8.92636
       C23.0853 5.35809 23.0487 3.57396 21.7803 2.25232
       C20.5119 0.930688 18.7467 0.884652 15.2163 0.792569
       C13.0404 0.735812 10.8859 0.735812 8.71 0.792557
       C5.17956 0.884629 3.41433 0.930665 2.14598 2.25231
       C0.877628 3.57394 0.840983 5.35808 0.767672 8.92636
       C0.744102 10.0737 0.744113 11.2142 0.767683 12.3615Z"
    fill="none"
    stroke="currentColor"
    stroke-width="1.5"
    stroke-linejoin="round"
  />
</symbol>


  <!-- offeye-outline -->
  <symbol id="icon-offeye-outline" viewBox="0 0 21 21">
    <path
      d="M8.75646 8.75841
         C8.36061 9.1544 8.13827 9.69142 8.13837 10.2513
         C8.13847 10.8113 8.36099 11.3482 8.75698 11.744
         C9.15297 12.1399 9.69 12.3622 10.2499 12.3621
         C10.8098 12.362 11.3468 12.1395 11.7426 11.7435
         M15.1911 15.1826
         C13.7104 16.1091 11.9966 16.5949 10.25 16.5834
         C6.45 16.5834 3.28333 14.4723 0.75 10.25
         C2.09267 8.01225 3.61267 6.3677 5.31 5.31637
         M8.32889 4.1067
         C8.96121 3.97869 9.60486 3.91503 10.25 3.9167
         C14.05 3.9167 17.2167 6.02781 19.75 10.25
         C19.047 11.4217 18.2944 12.4319 17.4932 13.2795
         M0.75 0.75L19.75 19.75"
      fill="none"
      stroke="currentColor"
      stroke-width="1.5"
      stroke-linecap="round"
      stroke-linejoin="round"
    />
  </symbol>

<symbol id="icon-oneye-outline" viewBox="0 0 24 24">
  <path
    d="M21.544 11.045
       C21.848 11.4713 22 11.6845 22 12
       C22 12.3155 21.848 12.5287 21.544 12.955
       C20.1779 14.8706 16.6892 19 12 19
       C7.31078 19 3.8221 14.8706 2.45604 12.955
       C2.15201 12.5287 2 12.3155 2 12
       C2 11.6845 2.15201 11.4713 2.45604 11.045
       C3.8221 9.12944 7.31078 5 12 5
       C16.6892 5 20.1779 9.12944 21.544 11.045Z"
    fill="none"
    stroke="currentColor"
    stroke-width="1.5"
  />
  <path
    d="M15 12
       C15 10.3431 13.6569 9 12 9
       C10.3431 9 9 10.3431 9 12
       C9 13.6569 10.3431 15 12 15
       C13.6569 15 15 13.6569 15 12Z"
    fill="none"
    stroke="currentColor"
    stroke-width="1.5"
  />
</symbol>


  <!-- person-outline -->
  <symbol id="icon-person-outline" viewBox="0 0 17 18">
    <path
      d="M8.00556 9.38472
         C5.60122 9.38472 3.65223 7.45184 3.65223 5.06736
         C3.65223 2.68295 5.60122 0.75 8.00556 0.75
         C10.4099 0.75 12.3589 2.68295 12.3589 5.06736
         C12.3589 7.45184 10.4099 9.38472 8.00556 9.38472
         Z
         M8.00556 9.38472
         C12.0127 9.38472 15.2611 12.6063 15.2611 16.5803
         M8.00556 9.38472
         C3.99843 9.38472 0.75 12.6063 0.75 16.5803"
      fill="none"
      stroke="currentColor"
      stroke-width="1.5"
      stroke-linecap="round"
      stroke-linejoin="round"
    />
  </symbol>

  <!-- profile-outline -->
  <symbol id="icon-profile-outline" viewBox="0 0 22 22">
    <path
      d="M10.75 12.75
         C8.817 12.75 7.25 11.183 7.25 9.25
         C7.25 7.317 8.817 5.75 10.75 5.75
         C12.683 5.75 14.25 7.317 14.25 9.25
         C14.25 11.183 12.683 12.75 10.75 12.75
         Z
         M10.75 12.75
         C14.0637 12.75 16.75 15.4363 16.75 18.75
         M10.75 12.75
         C7.43629 12.75 4.75 15.4363 4.75 18.75
         M20.75 10.75
         C20.75 5.22715 16.2728 0.75 10.75 0.75
         C5.22715 0.75 0.75 5.22715 0.75 10.75
         C0.75 16.2728 5.22715 20.75 10.75 20.75
         C16.2728 20.75 20.75 16.2728 20.75 10.75Z"
      fill="none"
      stroke="currentColor"
      stroke-width="1.5"
      stroke-linecap="round"
      stroke-linejoin="round"
    />
  </symbol>

  <!-- shield-fill -->
  <symbol id="icon-shield-fill" viewBox="0 0 29 31">
    <path
      d="M14.0332 0
         C19.4799 0 24.4122 1.7495 27.6924 4.5791
         C27.9302 4.78416 28.0664 5.08353 28.0664 5.39746
         V14.0332
         C28.0566 20.5114 24.45 24.5694 21.1719 27.1191
         C19.4771 28.4372 17.7884 29.3753 16.5254 29.9834
         C15.8967 30.2862 14.7641 30.735 14.3818 30.8867
         C14.1535 30.9635 13.9129 30.9635 13.6914 30.8896
         C13.3021 30.735 12.1696 30.2861 11.541 29.9834
         C10.2778 29.3753 8.5875 28.4374 6.89258 27.1191
         C3.50894 24.4872 0 20.248 0 14.0332V5.39746
         C0 5.08353 0.136307 4.78416 0.374023 4.5791
         C3.65425 1.74952 8.58646 0 14.0332 0Z"
      fill="currentColor"
    />
  </symbol>

  <!-- users-fill -->
  <symbol id="icon-users-fill" viewBox="0 0 31 30">
    <path
      d="M22.1366 8.6318
         C19.3706 8.6318 17.1271 10.8733 17.1271 13.6397
         C17.1271 16.4061 19.3706 18.6476 22.1366 18.6476
         C24.9026 18.6476 27.1461 16.4061 27.1461 13.6397
         C27.1461 10.8733 24.9026 8.6318 22.1366 8.6318Z
         M22.1382 19.6492
         C17.4352 19.6492 13.6216 23.4602 13.6216 28.1627
         C13.6216 28.9924 14.2942 29.665 15.1239 29.665
         H29.1525
         C29.9824 29.665 30.6549 28.9924 30.6549 28.1627
         C30.6549 23.4602 26.8412 19.6492 22.1382 19.6492Z
         M8.51507 0
         C5.74904 0 3.50554 2.24146 3.50554 5.00791
         C3.50554 7.77436 5.74904 10.0158 8.51507 10.0158
         C11.2811 10.0158 13.5246 7.77436 13.5246 5.00791
         C13.5246 2.24146 11.2811 0 8.51507 0Z
         M8.5167 11.0174
         C3.81371 11.0174 0 14.8284 0 19.5309
         C0 20.3606 0.672643 21.0332 1.50237 21.0332
         H15.531
         C16.3608 21.0332 17.0334 20.3606 17.0334 19.5309
         C17.0334 14.8284 13.2197 11.0174 8.5167 11.0174Z"
      fill="currentColor"
    />
  </symbol>

  <!-- upload-outline -->
  <symbol id="icon-upload-outline" viewBox="0 0 20 20">
    <path
      d="M0.75 14.7501
         C0.75 15.6801 0.75 16.1451 0.85222 16.5266
         C1.12962 17.5618 1.93827 18.3705 2.97354 18.6479
         C3.35504 18.7501 3.82003 18.7501 4.75 18.7501
         H14.75
         C15.68 18.7501 16.145 18.7501 16.5265 18.6479
         C17.5618 18.3705 18.3704 17.5618 18.6478 16.5266
         C18.75 16.1451 18.75 15.6801 18.75 14.7501
         M14.25 5.24997
         C14.25 5.24997 10.9358 0.75001 9.74998 0.75
         C8.56408 0.74999 5.25 5.25 5.25 5.25
         M9.74998 1.75V13.75"
      fill="none"
      stroke="currentColor"
      stroke-width="1.5"
      stroke-linecap="round"
      stroke-linejoin="round"
    />
  </symbol>

  <!-- users-outline -->
  <symbol id="icon-users-outline" viewBox="0 0 20 20">
    <path
      d="M6.75 12.75
         C4.54086 12.75 2.75 10.9591 2.75 8.75
         C2.75 6.54086 4.54086 4.75 6.75 4.75
         C8.9591 4.75 10.75 6.54086 10.75 8.75
         C10.75 10.9591 8.9591 12.75 6.75 12.75Z
         M6.75 12.75
         C10.0637 12.75 12.75 15.4363 12.75 18.75
         M6.75 12.75
         C3.43629 12.75 0.75 15.4363 0.75 18.75
         M12.75 8.75
         C14.9591 8.75 16.75 6.95914 16.75 4.75
         C16.75 2.54086 14.9591 0.75 12.75 0.75
         M12.75 8.75
         C16.0637 8.75 18.75 11.4363 18.75 14.75"
      fill="none"
      stroke="currentColor"
      stroke-width="1.5"
      stroke-linecap="round"
      stroke-linejoin="round"
    />
  </symbol>

<!-- wallet-fill -->
<symbol id="icon-wallet-fill" viewBox="0 0 24 25">
  <path
    fill-rule="evenodd"
    clip-rule="evenodd"
    d="M13.0326 2.35831C13.1339 2.30769 13.2461 2.28128 13.3599 2.28128
       C13.7553 2.28128 14.0758 2.59295 14.0758 2.97742
       V7.29857H3.15095L13.0326 2.35831ZM0 7.98257
       C0 6.95483 0.590893 6.01334 1.53083 5.54342
       L11.9599 0.329457
       C12.3931 0.112945 12.873 0 13.3599 0
       C15.051 0 16.4218 1.33304 16.4218 2.97742
       V7.29933
       C17.7012 7.3029 18.7656 7.32339 19.6353 7.44031
       C20.7303 7.58752 21.6521 7.90244 22.3844 8.63464
       C23.1165 9.36683 23.4315 10.2887 23.5786 11.3836
       C23.7204 12.4382 23.7204 13.7791 23.7204 15.4427
       V16.7927
       C23.7204 18.4563 23.7204 19.7971 23.5786 20.8518
       C23.4315 21.9467 23.1165 22.8685 22.3844 23.6008
       C21.6521 24.333 20.7303 24.6479 19.6353 24.7951
       C18.5807 24.9368 17.2398 24.9368 15.5762 24.9368
       H8.14415
       C6.48057 24.9368 5.13968 24.9368 4.08507 24.7951
       C2.99015 24.6479 2.06826 24.333 1.33607 23.6008
       C0.603872 22.8685 0.288951 21.9467 0.141739 20.8518
       C-4.81069e-05 19.7971 -2.36912e-05 18.4563 0 16.7927
       V7.98257Z"
    fill="currentColor"
  />
</symbol>



  <!-- wallet-outline -->
  <symbol id="icon-wallet-outline" viewBox="0 0 20 20">
    <path
      d="M0.75 2.75006
         C0.75 1.64549 1.64543 0.750061 2.75 0.750061
         H11.75
         C12.68 0.750061 13.145 0.750061 13.5265 0.852281
         C14.5617 1.12968 15.3704 1.93833 15.6478 2.9736
         C15.75 3.3551 15.75 3.82009 15.75 4.75006
         H2.75
         C1.64543 4.75006 0.75 3.85463 0.75 2.75006Z
         
         M0.75 2.75006V12.7501
         C0.75 15.5785 0.75 16.9927 1.62868 17.8714
         C2.50736 18.7501 3.92157 18.7501 6.75 18.7501
         H12.75
         C15.5784 18.7501 16.9926 18.7501 17.8713 17.8714
         C18.75 16.9927 18.75 15.5785 18.75 12.7501
         V10.7501
         C18.75 7.92166 18.75 6.50742 17.8713 5.62874
         C16.9926 4.75006 15.5784 4.75006 12.75 4.75006
         H4.75
         
         M18.75 9.75006H16.75
         C16.285 9.75006 16.0525 9.75006 15.8618 9.80116
         C15.3441 9.93986 14.9398 10.3442 14.8011 10.8619
         C14.75 11.0526 14.75 11.2851 14.75 11.7501
         C14.75 12.2151 14.75 12.4476 14.8011 12.6383
         C14.9398 13.156 15.3441 13.5603 15.8618 13.699
         C16.0525 13.7501 16.285 13.7501 16.75 13.7501
         H18.75"
      fill="none"
      stroke="currentColor"
      stroke-width="1.5"
      stroke-linecap="round"
      stroke-linejoin="round"
    />
  </symbol>
  
  <symbol id="icon-sparkle-outline" viewBox="0 0 17 17">
  <path
    d="M7.12572 1.72565
       C7.50744 0.758118 8.87683 0.758118 9.25856 1.72565
       L9.32455 1.8934
       C10.2567 4.25676 12.1275 6.12762 14.4909 7.05973
       L14.6586 7.12572
       C15.6262 7.50744 15.6262 8.87683 14.6586 9.25856
       L14.4909 9.32455
       C12.1275 10.2567 10.2567 12.1275 9.32455 14.4909
       L9.25856 14.6586
       C8.87683 15.6262 7.50744 15.6262 7.12572 14.6586
       L7.05973 14.4909
       C6.12762 12.1275 4.25676 10.2567 1.8934 9.32455
       L1.72565 9.25856
       C0.758118 8.87683 0.758118 7.50744 1.72565 7.12572
       L1.8934 7.05973
       C4.25676 6.12762 6.12762 4.25676 7.05973 1.8934
       L7.12572 1.72565Z"
    fill="none"
    stroke="currentColor"
    stroke-width="2"
    stroke-linecap="round"
    stroke-linejoin="round"
  />
</symbol>

<symbol id="icon-camera-bold" viewBox="0 0 256 256">
  <path
    d="M208 52
       H182.42
       L170 33.34
       A12 12 0 0 0 160 28
       H96
       A12 12 0 0 0 86 33.34
       L73.57 52
       H48
       A28 28 0 0 0 20 80
       V192
       A28 28 0 0 0 48 220
       H208
       A28 28 0 0 0 236 192
       V80
       A28 28 0 0 0 208 52
       Z

       M212 192
       A4 4 0 0 1 208 196
       H48
       A4 4 0 0 1 44 192
       V80
       A4 4 0 0 1 48 76
       H80
       A12 12 0 0 0 90 70.66
       L102.42 52
       H153.57
       L166 70.66
       A12 12 0 0 0 176 76
       H208
       A4 4 0 0 1 212 80
       Z

       M128 84
       A48 48 0 1 0 176 132
       A48.05 48.05 0 0 0 128 84
       Z

       M128 156
       A24 24 0 1 1 152 132
       A24 24 0 0 1 128 156
       Z"
    fill="currentColor"
  />
</symbol>


</svg>



