<svg width="598" height="419" viewBox="0 0 598 419" fill="none" xmlns="http://www.w3.org/2000/svg">
<mask id="mask0_13_591" style="mask-type:luminance" maskUnits="userSpaceOnUse" x="0" y="-111" width="598" height="599">
<path d="M597.25 -110.125H0V487.125H597.25V-110.125Z" fill="white"/>
</mask>
<g mask="url(#mask0_13_591)">
<path d="M217.258 133.934C235.262 139.091 248.934 193.288 251.985 169.452C254.601 149.017 238.712 100.257 240.576 72.9914C241.063 65.8565 250.321 64.8699 252.675 71.8213C252.746 72.0308 260.262 117.352 266.138 130.602C274.428 149.296 267.837 103.602 268.692 62.3304C268.831 55.6549 273.562 52.434 277.786 53.5991C283.794 55.2557 282.483 61.6752 282.719 71.3241C283.186 90.3462 281.162 134.131 286.71 131.096C292.258 128.062 290.185 72.3214 294.786 60.8948C296.899 55.6496 305.92 57.3535 305.555 67.1369C305.546 67.3794 304.415 100.247 304.409 100.476C302.962 157.606 314.723 141.984 321.597 100.793C322.342 96.3308 323.736 92.3688 328.238 92.8092C339.867 93.9464 327.73 131.992 323.11 156.439C319.077 177.784 309.737 195.999 310.704 224.138C314.203 296.108 322.836 361.876 328.767 516.763L260.049 515.009C263.053 400.503 282.016 253.882 256.826 232.792C239.661 218.422 219.757 153.663 210.571 140.711C206.959 135.619 213.213 132.775 217.258 133.934Z" fill="#493034"/>
<g opacity="0.4">
<path d="M360.533 163.787C357.534 125.86 310.48 144.531 347.402 197.826C411.126 179.339 388.619 136.433 360.533 163.787Z" fill="white"/>
<path d="M130.352 250.568C111.05 232.904 96.1494 264.368 139.719 273.845C163.088 234.652 131.641 223.636 130.352 250.568Z" fill="white"/>
<path d="M419.672 402.637C418.46 385.002 396.51 393.453 413.409 418.389C443.103 410.104 432.852 390.063 419.672 402.637Z" fill="white"/>
<path d="M218.299 311.782C209.572 296.41 193.444 313.53 219.473 328.693C242.653 308.37 224.736 294.742 218.299 311.782Z" fill="white"/>
<path d="M361.318 161.963C358.319 124.037 311.265 142.708 348.188 196.003C411.912 177.516 389.405 134.609 361.318 161.963Z" fill="#FFFAF8"/>
<path d="M131.137 248.744C111.835 231.08 96.9343 262.544 140.504 272.021C163.873 232.828 132.426 221.813 131.137 248.744Z" fill="#FFFAF8"/>
<path d="M420.458 400.814C419.246 383.179 397.296 391.629 414.195 416.566C443.889 408.281 433.637 388.24 420.458 400.814Z" fill="#FFFAF8"/>
<path d="M117.241 436.536C106.006 422.889 93.0538 442.522 121.299 452.994C140.648 428.995 120.658 418.643 117.241 436.536Z" fill="#FFFAF8"/>
<path d="M219.085 309.958C210.358 294.587 194.229 311.706 220.259 326.869C243.439 306.546 225.522 292.918 219.085 309.958Z" fill="#FFFAF8"/>
<path d="M362.104 160.14C359.105 122.213 312.051 140.884 348.973 194.179C412.697 175.692 390.19 132.786 362.104 160.14Z" fill="#FFF4F2"/>
<path d="M131.922 246.921C112.621 229.257 97.7202 260.721 141.29 270.197C164.659 231.005 133.212 219.989 131.922 246.921Z" fill="#FFF4F2"/>
<path d="M421.244 398.99C420.031 381.356 398.081 389.805 414.981 414.742C444.674 406.457 434.423 386.416 421.244 398.99Z" fill="#FFF4F2"/>
<path d="M118.026 434.712C106.791 421.066 93.8392 440.699 122.084 451.17C141.434 427.171 121.443 416.82 118.026 434.712Z" fill="#FFF4F2"/>
<path d="M219.871 308.135C211.143 292.763 195.015 309.883 221.044 325.046C244.224 304.722 226.307 291.095 219.871 308.135Z" fill="#FFF4F2"/>
<path d="M362.89 158.316C359.891 120.389 312.836 139.06 349.759 192.355C413.483 173.868 390.976 130.962 362.89 158.316Z" fill="#FFEFEB"/>
<path d="M132.708 245.097C113.406 227.433 98.5053 258.897 142.075 268.374C165.444 229.181 133.997 218.165 132.708 245.097Z" fill="#FFEFEB"/>
<path d="M422.029 397.167C420.817 379.532 398.867 387.982 415.766 412.919C445.46 404.634 435.208 384.592 422.029 397.167Z" fill="#FFEFEB"/>
<path d="M118.812 432.888C107.577 419.242 94.6249 438.875 122.87 449.346C142.219 425.347 122.229 414.996 118.812 432.888Z" fill="#FFEFEB"/>
<path d="M220.656 306.311C211.929 290.939 195.8 308.059 221.83 323.222C245.01 302.899 227.093 289.271 220.656 306.311Z" fill="#FFEFEB"/>
<path d="M363.675 156.493C360.676 118.566 313.622 137.237 350.545 190.532C414.268 172.045 391.761 129.138 363.675 156.493Z" fill="#FFEAE5"/>
<path d="M133.493 243.273C114.192 225.61 99.2912 257.074 142.861 266.55C166.23 227.358 134.783 216.342 133.493 243.273Z" fill="#FFEAE5"/>
<path d="M422.815 395.343C421.602 377.708 399.652 386.158 416.552 411.095C446.245 402.81 435.994 382.769 422.815 395.343Z" fill="#FFEAE5"/>
<path d="M119.598 431.065C108.362 417.419 95.4105 437.052 123.656 447.523C143.005 423.524 123.014 413.172 119.598 431.065Z" fill="#FFEAE5"/>
<path d="M221.442 304.488C212.715 289.116 196.586 306.236 222.615 321.398C245.796 301.075 227.878 287.447 221.442 304.488Z" fill="#FFEAE5"/>
<path d="M364.461 154.669C361.462 116.743 314.408 135.413 351.33 188.709C415.054 170.222 392.547 127.315 364.461 154.669Z" fill="#FFE4DE"/>
<path d="M134.279 241.45C114.977 223.786 100.077 255.25 143.646 264.726C167.015 225.534 135.568 214.518 134.279 241.45Z" fill="#FFE4DE"/>
<path d="M423.6 393.52C422.388 375.885 400.438 384.335 417.337 409.272C447.031 400.987 436.779 380.945 423.6 393.52Z" fill="#FFE4DE"/>
<path d="M120.383 429.241C109.148 415.595 96.1962 435.228 124.441 445.7C143.79 421.7 123.8 411.349 120.383 429.241Z" fill="#FFE4DE"/>
<path d="M222.227 302.664C213.5 287.292 197.371 304.412 223.401 319.575C246.581 299.252 228.664 285.623 222.227 302.664Z" fill="#FFE4DE"/>
<path d="M365.246 152.846C362.247 114.919 315.193 133.59 352.115 186.885C415.839 168.398 393.332 125.491 365.246 152.846Z" fill="#FFDFD8"/>
<path d="M135.064 239.626C115.763 221.962 100.862 253.426 144.432 262.903C167.801 223.711 136.354 212.695 135.064 239.626Z" fill="#FFDFD8"/>
<path d="M424.386 391.696C423.174 374.061 401.224 382.511 418.123 407.448C447.817 399.163 437.565 379.122 424.386 391.696Z" fill="#FFDFD8"/>
<path d="M121.169 427.418C109.933 413.772 96.9816 433.405 125.227 443.876C144.576 419.877 124.585 409.526 121.169 427.418Z" fill="#FFDFD8"/>
<path d="M223.013 300.841C214.286 285.469 198.157 302.589 224.186 317.751C247.367 297.428 229.449 283.8 223.013 300.841Z" fill="#FFDFD8"/>
<path d="M366.032 151.022C363.033 113.096 315.979 131.766 352.901 185.062C416.625 166.574 394.118 123.668 366.032 151.022Z" fill="#FFDAD1"/>
<path d="M135.85 237.803C116.549 220.139 101.648 251.603 145.217 261.079C168.586 221.887 137.139 210.871 135.85 237.803Z" fill="#FFDAD1"/>
<path d="M425.172 389.873C423.959 372.238 402.009 380.688 418.909 405.625C448.603 397.34 438.351 377.298 425.172 389.873Z" fill="#FFDAD1"/>
<path d="M121.954 425.594C110.719 411.948 97.7672 431.581 126.012 442.053C145.361 418.053 125.371 407.702 121.954 425.594Z" fill="#FFDAD1"/>
<path d="M223.798 299.017C215.071 283.645 198.943 300.765 224.972 315.928C248.152 295.605 230.235 281.977 223.798 299.017Z" fill="#FFDAD1"/>
<path d="M366.817 149.198C363.818 111.272 316.764 129.943 353.687 183.238C417.41 164.751 394.903 121.844 366.817 149.198Z" fill="#FFD4CA"/>
<path d="M136.636 235.979C117.334 218.315 102.433 249.779 146.003 259.256C169.372 220.064 137.925 209.048 136.636 235.979Z" fill="#FFD4CA"/>
<path d="M425.957 388.049C424.745 370.415 402.795 378.864 419.694 403.801C449.388 395.516 439.136 375.475 425.957 388.049Z" fill="#FFD4CA"/>
<path d="M122.74 423.771C111.504 410.124 98.5526 429.758 126.798 440.229C146.147 416.23 126.157 405.878 122.74 423.771Z" fill="#FFD4CA"/>
<path d="M224.584 297.194C215.857 281.822 199.728 298.941 225.757 314.104C248.938 293.781 231.02 280.153 224.584 297.194Z" fill="#FFD4CA"/>
<path d="M367.603 147.375C364.604 109.448 317.55 128.119 354.472 181.414C418.196 162.927 395.689 120.021 367.603 147.375Z" fill="#FFCFC4"/>
<path d="M137.421 234.156C118.119 216.492 103.218 247.956 146.788 257.432C170.157 218.24 138.71 207.224 137.421 234.156Z" fill="#FFCFC4"/>
<path d="M426.742 386.225C425.53 368.591 403.58 377.041 420.479 401.977C450.173 393.693 439.921 373.651 426.742 386.225Z" fill="#FFCFC4"/>
<path d="M123.525 421.947C112.29 408.301 99.338 427.934 127.583 438.405C146.932 414.406 126.942 404.055 123.525 421.947Z" fill="#FFCFC4"/>
<path d="M225.369 295.37C216.642 279.998 200.513 297.118 226.542 312.281C249.723 291.958 231.805 278.33 225.369 295.37Z" fill="#FFCFC4"/>
<path d="M368.389 145.551C365.39 107.625 318.335 126.295 355.258 179.591C418.982 161.103 396.475 118.197 368.389 145.551Z" fill="#FFC9BD"/>
<path d="M138.207 232.332C118.905 214.668 104.004 246.132 147.574 255.609C170.943 216.416 139.496 205.401 138.207 232.332Z" fill="#FFC9BD"/>
<path d="M427.528 384.402C426.316 366.767 404.366 375.217 421.265 400.154C450.959 391.869 440.707 371.827 427.528 384.402Z" fill="#FFC9BD"/>
<path d="M124.311 420.123C113.075 406.477 100.124 426.11 128.369 436.582C147.718 412.583 127.728 402.231 124.311 420.123Z" fill="#FFC9BD"/>
<path d="M226.155 293.546C217.428 278.175 201.299 295.294 227.328 310.457C250.509 290.134 232.591 276.506 226.155 293.546Z" fill="#FFC9BD"/>
<path d="M369.174 143.728C366.175 105.801 319.121 124.472 356.043 177.767C419.767 159.28 397.26 116.373 369.174 143.728Z" fill="#FFC4B7"/>
<path d="M138.992 230.508C119.69 212.845 104.79 244.309 148.359 253.785C171.728 214.593 140.281 203.577 138.992 230.508Z" fill="#FFC4B7"/>
<path d="M428.313 382.578C427.101 364.944 405.151 373.393 422.05 398.33C451.744 390.045 441.493 370.004 428.313 382.578Z" fill="#FFC4B7"/>
<path d="M125.096 418.3C113.861 404.654 100.909 424.287 129.154 434.758C148.504 410.759 128.514 400.407 125.096 418.3Z" fill="#FFC4B7"/>
<path d="M226.941 291.723C218.214 276.351 202.085 293.471 228.114 308.633C251.294 288.31 233.377 274.682 226.941 291.723Z" fill="#FFC4B7"/>
<path d="M369.96 141.904C366.961 103.977 319.906 122.648 356.829 175.943C420.553 157.457 398.046 114.55 369.96 141.904Z" fill="#FFBFB0"/>
<path d="M139.778 228.685C120.476 211.021 105.576 242.485 149.145 251.962C172.514 212.77 141.067 201.754 139.778 228.685Z" fill="#FFBFB0"/>
<path d="M429.099 380.755C427.887 363.12 405.937 371.57 422.836 396.507C452.53 388.222 442.278 368.18 429.099 380.755Z" fill="#FFBFB0"/>
<path d="M125.882 416.477C114.646 402.83 101.695 422.463 129.94 432.935C149.289 408.936 129.299 398.584 125.882 416.477Z" fill="#FFBFB0"/>
<path d="M227.726 289.899C218.999 274.527 202.87 291.647 228.899 306.81C252.08 286.487 234.162 272.859 227.726 289.899Z" fill="#FFBFB0"/>
<path d="M370.745 140.081C367.746 102.154 320.692 120.825 357.614 174.12C421.338 155.633 398.831 112.727 370.745 140.081Z" fill="#FFB9A9"/>
<path d="M140.563 226.861C121.262 209.198 106.361 240.662 149.931 250.138C173.3 210.946 141.853 199.93 140.563 226.861Z" fill="#FFB9A9"/>
<path d="M429.885 378.931C428.672 361.297 406.722 369.746 423.622 394.683C453.315 386.398 443.064 366.357 429.885 378.931Z" fill="#FFB9A9"/>
<path d="M126.667 414.653C115.432 401.007 102.48 420.64 130.725 431.111C150.075 407.112 130.085 396.761 126.667 414.653Z" fill="#FFB9A9"/>
<path d="M228.512 288.076C219.785 272.704 203.656 289.824 229.685 304.987C252.865 284.664 234.948 271.036 228.512 288.076Z" fill="#FFB9A9"/>
<path d="M371.53 138.257C368.531 100.33 321.477 119.001 358.399 172.296C422.123 153.809 399.616 110.903 371.53 138.257Z" fill="#FFB4A3"/>
<path d="M141.349 225.038C122.047 207.374 107.146 238.838 150.716 248.315C174.085 209.122 142.638 198.107 141.349 225.038Z" fill="#FFB4A3"/>
<path d="M430.67 377.108C429.457 359.473 407.508 367.923 424.407 392.86C454.101 384.575 443.849 364.534 430.67 377.108Z" fill="#FFB4A3"/>
<path d="M127.453 412.829C116.217 399.183 103.266 418.816 131.511 429.288C150.86 405.288 130.87 394.937 127.453 412.829Z" fill="#FFB4A3"/>
<path d="M229.297 286.252C220.57 270.88 204.441 288 230.471 303.163C253.651 282.84 235.733 269.212 229.297 286.252Z" fill="#FFB4A3"/>
<path d="M372.316 136.433C369.317 98.5069 322.263 117.178 359.186 170.473C422.909 151.986 400.403 109.079 372.316 136.433Z" fill="#FFAF9C"/>
<path d="M142.134 223.214C122.833 205.551 107.932 237.015 151.502 246.491C174.871 207.299 143.424 196.283 142.134 223.214Z" fill="#FFAF9C"/>
<path d="M431.456 375.284C430.243 357.649 408.293 366.099 425.193 391.036C454.886 382.751 444.635 362.71 431.456 375.284Z" fill="#FFAF9C"/>
<path d="M128.238 411.006C117.003 397.36 104.051 416.993 132.296 427.464C151.646 403.465 131.656 393.114 128.238 411.006Z" fill="#FFAF9C"/>
<path d="M230.083 284.429C221.356 269.058 205.227 286.177 231.256 301.34C254.436 281.017 236.519 267.389 230.083 284.429Z" fill="#FFAF9C"/>
<path d="M373.101 134.61C370.102 96.6834 323.048 115.354 359.971 168.649C423.694 150.162 401.187 107.256 373.101 134.61Z" fill="#FFA996"/>
<path d="M142.92 221.391C123.618 203.727 108.717 235.191 152.287 244.668C175.656 205.475 144.209 194.459 142.92 221.391Z" fill="#FFA996"/>
<path d="M432.241 373.461C431.029 355.826 409.079 364.276 425.978 389.213C455.672 380.928 445.42 360.887 432.241 373.461Z" fill="#FFA996"/>
<path d="M129.024 409.182C117.788 395.536 104.837 415.169 133.082 425.641C152.431 401.641 132.441 391.29 129.024 409.182Z" fill="#FFA996"/>
<path d="M230.868 282.606C222.141 267.234 206.012 284.353 232.042 299.516C255.222 279.193 237.305 265.565 230.868 282.606Z" fill="#FFA996"/>
<path d="M373.887 132.786C370.888 94.8599 323.834 113.531 360.756 166.826C424.48 148.339 401.973 105.432 373.887 132.786Z" fill="#FFA48F"/>
<path d="M143.705 219.568C124.404 201.904 109.503 233.368 153.073 242.845C176.442 203.652 144.995 192.636 143.705 219.568Z" fill="#FFA48F"/>
<path d="M433.027 371.637C431.814 354.003 409.864 362.452 426.764 387.389C456.457 379.104 446.206 359.063 433.027 371.637Z" fill="#FFA48F"/>
<path d="M129.81 407.359C118.574 393.712 105.622 413.345 133.867 423.817C153.217 399.818 133.226 389.466 129.81 407.359Z" fill="#FFA48F"/>
<path d="M231.653 280.782C222.926 265.41 206.797 282.53 232.827 297.693C256.007 277.369 238.09 263.741 231.653 280.782Z" fill="#FFA48F"/>
<path d="M374.673 130.963C371.673 93.0362 324.619 111.707 361.542 165.002C425.265 146.515 402.758 103.609 374.673 130.963Z" fill="#FF9F89"/>
<path d="M144.491 217.744C125.19 200.08 110.289 231.544 153.858 241.02C177.228 201.828 145.781 190.812 144.491 217.744Z" fill="#FF9F89"/>
<path d="M433.812 369.814C432.6 352.179 410.65 360.629 427.549 385.566C457.243 377.281 446.992 357.239 433.812 369.814Z" fill="#FF9F89"/>
<path d="M130.595 405.535C119.36 391.889 106.408 411.522 134.653 421.993C154.002 397.994 134.012 387.643 130.595 405.535Z" fill="#FF9F89"/>
<path d="M232.439 278.958C223.712 263.586 207.583 280.706 233.613 295.869C256.793 275.546 238.876 261.918 232.439 278.958Z" fill="#FF9F89"/>
<path d="M375.458 129.139C372.459 91.2127 325.405 109.883 362.327 163.179C426.051 144.692 403.544 101.785 375.458 129.139Z" fill="#FF9982"/>
<path d="M145.276 215.92C125.975 198.256 111.074 229.72 154.644 239.197C178.013 200.004 146.566 188.988 145.276 215.92Z" fill="#FF9982"/>
<path d="M434.598 367.99C433.385 350.355 411.435 358.805 428.335 383.742C458.029 375.457 447.777 355.416 434.598 367.99Z" fill="#FF9982"/>
<path d="M131.381 403.711C120.145 390.065 107.194 409.699 135.439 420.17C154.788 396.171 134.798 385.819 131.381 403.711Z" fill="#FF9982"/>
<path d="M233.225 277.135C224.497 261.763 208.369 278.882 234.398 294.045C257.579 273.722 239.661 260.094 233.225 277.135Z" fill="#FF9982"/>
<path d="M376.244 127.316C373.245 89.389 326.19 108.06 363.113 161.355C426.837 142.868 404.33 99.9616 376.244 127.316Z" fill="#FF947B"/>
<path d="M146.062 214.097C126.761 196.433 111.86 227.897 155.429 237.374C178.799 198.181 147.352 187.166 146.062 214.097Z" fill="#FF947B"/>
<path d="M435.384 366.167C434.171 348.532 412.221 356.982 429.121 381.919C458.814 373.634 448.563 353.592 435.384 366.167Z" fill="#FF947B"/>
<path d="M132.166 401.888C120.931 388.242 107.979 407.875 136.224 418.346C155.573 394.347 135.583 383.996 132.166 401.888Z" fill="#FF947B"/>
<path d="M234.01 275.311C225.283 259.939 209.155 277.059 235.184 292.222C258.364 271.899 240.447 258.271 234.01 275.311Z" fill="#FF947B"/>
<path d="M377.029 125.493C374.03 87.566 326.976 106.237 363.898 159.532C427.622 141.045 405.115 98.1383 377.029 125.493Z" fill="#FF8F75"/>
<path d="M146.847 212.274C127.546 194.61 112.645 226.074 156.215 235.55C179.584 196.358 148.137 185.342 146.847 212.274Z" fill="#FF8F75"/>
<path d="M436.169 364.343C434.957 346.708 413.006 355.158 429.906 380.095C459.6 371.81 449.348 351.769 436.169 364.343Z" fill="#FF8F75"/>
<path d="M132.952 400.065C121.716 386.418 108.765 406.052 137.01 416.523C156.359 392.524 136.369 382.172 132.952 400.065Z" fill="#FF8F75"/>
<path d="M234.796 273.488C226.069 258.116 209.94 275.235 235.969 290.398C259.15 270.076 241.232 256.448 234.796 273.488Z" fill="#FF8F75"/>
<path d="M377.815 123.669C374.816 85.7425 327.761 104.413 364.684 157.709C428.408 139.221 405.901 96.3148 377.815 123.669Z" fill="#FF896E"/>
<path d="M147.633 210.45C128.331 192.786 113.431 224.25 157 233.726C180.369 194.534 148.922 183.518 147.633 210.45Z" fill="#FF896E"/>
<path d="M436.954 362.52C435.742 344.885 413.792 353.335 430.691 378.272C460.385 369.987 450.134 349.945 436.954 362.52Z" fill="#FF896E"/>
<path d="M133.737 398.241C122.502 384.595 109.55 404.228 137.795 414.699C157.144 390.7 137.154 380.349 133.737 398.241Z" fill="#FF896E"/>
<path d="M235.581 271.664C226.854 256.293 210.726 273.412 236.755 288.575C259.935 268.252 242.017 254.624 235.581 271.664Z" fill="#FF896E"/>
<path d="M378.6 121.845C375.601 83.9188 328.547 102.589 365.469 155.885C429.193 137.398 406.686 94.4911 378.6 121.845Z" fill="#FF8468"/>
<path d="M148.419 208.626C129.117 190.963 114.217 222.427 157.786 231.903C181.155 192.711 149.708 181.695 148.419 208.626Z" fill="#FF8468"/>
<path d="M437.74 360.696C436.528 343.061 414.577 351.511 431.477 376.448C461.171 368.163 450.919 348.121 437.74 360.696Z" fill="#FF8468"/>
<path d="M134.523 396.417C123.288 382.771 110.336 402.405 138.581 412.876C157.93 388.877 137.94 378.525 134.523 396.417Z" fill="#FF8468"/>
<path d="M236.367 269.841C227.64 254.469 211.511 271.588 237.54 286.751C260.721 266.428 242.803 252.8 236.367 269.841Z" fill="#FF8468"/>
<path d="M379.386 120.022C376.387 82.0955 329.333 100.766 366.255 154.062C429.979 135.575 407.472 92.6679 379.386 120.022Z" fill="#FF7E61"/>
<path d="M149.204 206.803C129.903 189.139 115.002 220.603 158.571 230.079C181.94 190.887 150.493 179.871 149.204 206.803Z" fill="#FF7E61"/>
<path d="M438.525 358.872C437.313 341.238 415.363 349.688 432.262 374.624C461.956 366.34 451.705 346.298 438.525 358.872Z" fill="#FF7E61"/>
<path d="M135.309 394.594C124.073 380.948 111.122 400.581 139.367 411.053C158.716 387.053 138.726 376.702 135.309 394.594Z" fill="#FF7E61"/>
<path d="M237.153 268.017C228.425 252.646 212.297 269.765 238.326 284.928C261.506 264.605 243.589 250.977 237.153 268.017Z" fill="#FF7E61"/>
<path d="M380.171 118.198C377.172 80.2718 330.118 98.9425 367.041 152.238C430.764 133.751 408.257 90.8441 380.171 118.198Z" fill="#FF795A"/>
<path d="M149.99 204.979C130.688 187.315 115.787 218.779 159.357 228.256C182.726 189.064 151.279 178.048 149.99 204.979Z" fill="#FF795A"/>
<path d="M439.311 357.049C438.099 339.415 416.148 347.864 433.048 372.801C462.742 364.516 452.49 344.475 439.311 357.049Z" fill="#FF795A"/>
<path d="M136.093 392.771C124.858 379.124 111.906 398.758 140.151 409.229C159.501 385.23 139.511 374.878 136.093 392.771Z" fill="#FF795A"/>
<path d="M237.938 266.194C229.21 250.822 213.082 267.941 239.111 283.104C262.292 262.781 244.374 249.153 237.938 266.194Z" fill="#FF795A"/>
<path d="M380.957 116.375C377.958 78.448 330.904 97.1188 367.826 150.414C431.55 131.927 409.043 89.0207 380.957 116.375Z" fill="#FF7454"/>
<path d="M150.775 203.155C131.474 185.492 116.573 216.956 160.143 226.432C183.512 187.24 152.065 176.224 150.775 203.155Z" fill="#FF7454"/>
<path d="M440.097 355.225C438.884 337.591 416.934 346.04 433.834 370.977C463.528 362.692 453.276 342.651 440.097 355.225Z" fill="#FF7454"/>
<path d="M136.879 390.947C125.644 377.301 112.692 396.934 140.937 407.405C160.287 383.406 140.296 373.055 136.879 390.947Z" fill="#FF7454"/>
<path d="M238.724 264.37C229.996 248.998 213.868 266.118 239.897 281.281C263.077 260.957 245.16 247.33 238.724 264.37Z" fill="#FF7454"/>
<path d="M381.742 114.551C378.743 76.6246 331.689 95.2953 368.612 148.591C432.335 130.104 409.829 87.1972 381.742 114.551Z" fill="#FF6E4D"/>
<path d="M151.561 201.332C132.259 183.668 117.359 215.132 160.928 224.609C184.297 185.416 152.85 174.4 151.561 201.332Z" fill="#FF6E4D"/>
<path d="M440.882 353.402C439.67 335.767 417.72 344.217 434.619 369.154C464.313 360.869 454.061 340.827 440.882 353.402Z" fill="#FF6E4D"/>
<path d="M137.664 389.124C126.429 375.477 113.477 395.111 141.722 405.582C161.072 381.583 141.082 371.231 137.664 389.124Z" fill="#FF6E4D"/>
<path d="M239.509 262.547C230.781 247.175 214.653 264.294 240.682 279.457C263.863 259.134 245.945 245.506 239.509 262.547Z" fill="#FF6E4D"/>
<path d="M382.528 112.728C379.529 74.8013 332.474 93.4721 369.397 146.768C433.121 128.28 410.614 85.3737 382.528 112.728Z" fill="#FF6947"/>
<path d="M152.346 199.508C133.045 181.845 118.144 213.309 161.714 222.785C185.082 183.593 153.636 172.577 152.346 199.508Z" fill="#FF6947"/>
<path d="M441.667 351.578C440.455 333.944 418.505 342.393 435.404 367.33C465.098 359.046 454.846 339.004 441.667 351.578Z" fill="#FF6947"/>
<path d="M138.45 387.3C127.215 373.654 114.263 393.287 142.508 403.758C161.858 379.759 141.867 369.408 138.45 387.3Z" fill="#FF6947"/>
<path d="M240.295 260.723C231.567 245.352 215.439 262.471 241.468 277.634C264.649 257.311 246.731 243.683 240.295 260.723Z" fill="#FF6947"/>
<path d="M383.313 110.904C380.314 72.9776 333.26 91.6483 370.183 144.944C433.906 126.456 411.399 83.5499 383.313 110.904Z" fill="#FF6440"/>
<path d="M153.132 197.685C133.83 180.022 118.929 211.485 162.499 220.962C185.868 181.77 154.421 170.754 153.132 197.685Z" fill="#FF6440"/>
<path d="M442.453 349.755C441.241 332.12 419.291 340.57 436.19 365.507C465.884 357.222 455.632 337.181 442.453 349.755Z" fill="#FF6440"/>
<path d="M139.235 385.477C128 371.83 115.048 391.464 143.293 401.935C162.643 377.936 142.652 367.584 139.235 385.477Z" fill="#FF6440"/>
<path d="M241.08 258.899C232.353 243.528 216.224 260.647 242.253 275.81C265.434 255.487 247.516 241.859 241.08 258.899Z" fill="#FF6440"/>
<path d="M384.099 109.081C381.1 71.1541 334.046 89.8249 370.969 143.12C434.692 124.633 412.185 81.7265 384.099 109.081Z" fill="#F43F5E"/>
<path d="M153.917 195.861C134.616 178.198 119.715 209.661 163.285 219.138C186.654 179.946 155.207 168.93 153.917 195.861Z" fill="#F43F5E"/>
<path d="M443.238 347.931C442.026 330.296 420.076 338.746 436.975 363.683C466.669 355.398 456.417 335.357 443.238 347.931Z" fill="#F43F5E"/>
<path d="M140.022 383.653C128.786 370.007 115.834 389.64 144.079 400.111C163.429 376.112 143.438 365.761 140.022 383.653Z" fill="#F43F5E"/>
<path d="M241.865 257.076C233.138 241.704 217.01 258.824 243.039 273.987C266.22 253.663 248.302 240.035 241.865 257.076Z" fill="#F43F5E"/>
<path d="M384.884 107.257C381.885 69.3304 334.831 88.0011 371.754 141.297C435.477 122.81 412.97 79.903 384.884 107.257Z" fill="#F43F5E"/>
<path d="M154.702 194.038C135.401 176.374 120.5 207.838 164.07 217.315C187.439 178.122 155.992 167.106 154.702 194.038Z" fill="#F43F5E"/>
<path d="M444.024 346.108C442.812 328.473 420.861 336.923 437.761 361.86C467.455 353.575 457.203 333.533 444.024 346.108Z" fill="#F43F5E"/>
<path d="M140.807 381.829C129.571 368.183 116.62 387.816 144.865 398.288C164.214 374.288 144.224 363.937 140.807 381.829Z" fill="#F43F5E"/>
<path d="M242.651 255.252C233.924 239.88 217.795 257 243.824 272.163C267.005 251.84 249.088 238.212 242.651 255.252Z" fill="#F43F5E"/>
</g>
<path d="M449.231 241.516C432.993 245.509 418.961 293.403 417.045 272.032C415.402 253.711 431.228 210.742 430.488 186.352C430.294 179.969 422.067 178.776 419.732 184.899C419.662 185.083 411.422 225.266 405.732 236.89C397.703 253.289 405.128 212.742 405.761 175.889C405.864 169.927 401.752 166.894 397.943 167.791C392.527 169.066 393.479 174.838 392.942 183.439C391.882 200.395 392.207 239.531 387.36 236.635C382.512 233.74 386.247 184.076 382.528 173.725C380.82 168.974 372.714 170.189 372.708 178.931C372.708 179.147 372.606 208.511 372.603 208.717C371.963 259.739 361.997 245.402 357.257 208.418C356.743 204.411 355.633 200.829 351.601 201.069C341.186 201.691 350.73 236.047 354.024 258.016C356.901 277.198 364.619 293.766 362.804 318.84C357.248 382.936 347.321 441.325 338.675 517.29L400.047 518.05C399.356 477.812 387.394 346.349 410.584 328.384C426.385 316.142 446.334 259.035 454.969 247.789C458.364 243.368 452.88 240.618 449.231 241.516Z" fill="#493034"/>
<path d="M384.884 107.257C381.885 69.3304 334.831 88.0011 371.754 141.297C435.477 122.81 412.97 79.903 384.884 107.257Z" fill="#F43F5E"/>
<path d="M154.702 194.038C135.401 176.374 120.5 207.838 164.07 217.315C187.439 178.122 155.992 167.106 154.702 194.038Z" fill="#F43F5E"/>
<path d="M444.024 346.108C442.812 328.473 420.861 336.923 437.761 361.86C467.455 353.575 457.203 333.533 444.024 346.108Z" fill="#F43F5E"/>
<path d="M140.807 381.829C129.571 368.183 116.62 387.816 144.865 398.288C164.214 374.288 144.224 363.937 140.807 381.829Z" fill="#F43F5E"/>
<path d="M242.651 255.252C233.924 239.88 217.795 257 243.824 272.163C267.005 251.84 249.088 238.212 242.651 255.252Z" fill="#F43F5E"/>
<path d="M243.402 294.364C229.196 299.534 221.247 343.945 217.445 324.925C214.185 308.618 224.225 268.459 221.185 246.61C220.389 240.893 212.879 240.621 211.376 246.351C211.331 246.524 207.838 283.441 203.856 294.442C198.236 309.963 200.963 272.798 197.943 239.613C197.455 234.246 193.464 231.92 190.128 233.096C185.384 234.77 186.802 239.865 187.157 247.647C187.855 262.99 191.957 298.132 187.319 296.001C182.68 293.871 181.201 248.872 176.851 239.931C174.854 235.827 167.686 237.708 168.533 245.566C168.554 245.76 171.32 272.161 171.338 272.346C175.73 318.265 165.378 306.35 157.517 273.571C156.665 270.02 155.318 266.909 151.718 267.518C142.418 269.09 154.34 299.039 159.44 318.463C163.893 335.423 172.443 349.562 173.253 372.274C174.5 430.422 171.263 483.866 170.55 542.124L225.783 536.831C221.582 511.593 198.032 394.603 217.124 376.2C230.134 363.659 242.504 310.391 249.17 299.443C251.79 295.14 246.594 293.203 243.402 294.364Z" fill="#493034"/>
</g>
</svg>
