<svg width="329" height="308" viewBox="0 0 329 308" fill="none" xmlns="http://www.w3.org/2000/svg">
<g opacity="0.32">
<path d="M101.591 303.117C75.4457 308.951 47.0225 303.759 24.6279 289.059C18.0354 284.731 11.608 279.097 9.66354 271.454C9.04442 269.019 8.97405 266.241 10.4402 264.201C12.7466 260.991 17.4708 261.103 21.3983 261.546C28.1943 262.311 34.9903 263.077 41.7864 263.843C45.3234 264.242 49.194 264.566 52.163 262.603C55.3382 260.503 56.5145 256.328 56.3678 252.524C56.2212 248.72 55.0148 245.041 54.5013 241.269C53.4407 233.479 55.4764 225.31 60.0683 218.929C61.2923 217.227 62.7592 215.599 64.6903 214.785C67.7934 213.478 71.509 214.603 74.0717 216.786C76.6345 218.969 86.4448 226.362 87.838 229.427C93.0465 240.887 170.764 290.06 171.146 302.642" fill="#FDBFC9"/>
<path d="M101.247 301.868C85.8492 305.187 69.8594 304.862 54.6102 300.893C40.9352 297.333 24.8382 290.744 15.4995 279.65C12.9175 276.582 10.1185 272.055 10.6287 267.868C11.3266 262.138 16.9849 262.409 21.3983 262.84C29.4678 263.63 37.7291 265.439 45.8412 265.438C51.2642 265.438 55.6214 262.845 57.1152 257.454C58.9893 250.692 55.4983 243.897 55.5217 237.121C55.546 230.238 59.5841 213.717 69.2395 215.725C72.0913 216.318 74.3566 218.682 76.5524 220.456C78.8044 222.275 81.058 224.103 83.1792 226.074C87.0757 229.696 89.7147 234.273 93.7628 237.889C106.635 249.389 120.968 259.311 134.66 269.789C142.845 276.051 151.04 282.362 158.715 289.248C161.42 291.674 164.106 294.173 166.473 296.938C167.769 298.453 169.711 300.524 169.852 302.641C169.962 304.295 172.553 304.308 172.442 302.641C172.122 297.816 166.956 293.451 163.751 290.379C156.924 283.834 149.428 277.974 141.968 272.177C126.394 260.076 109.82 248.912 95.1678 235.676C90.1311 231.125 86.7448 225.572 81.5037 221.18C77.8024 218.077 73.4208 213.361 68.3464 212.972C61.692 212.461 57.6396 219.293 55.4447 224.623C52.3348 232.174 52.8048 239.411 54.3229 247.229C55.1833 251.658 55.9691 257.015 52.4446 260.525C48.5942 264.359 41.9272 262.564 37.0806 262.018C32.6371 261.517 28.1935 261.017 23.7499 260.516C20.3863 260.137 16.7202 259.53 13.4151 260.624C7.41751 262.61 7.21729 269.051 9.17098 274.146C11.8477 281.125 17.8972 286.179 23.9728 290.178C31.3863 295.057 39.506 298.888 47.939 301.641C65.3463 307.324 84.0488 308.222 101.934 304.366C103.565 304.015 102.875 301.517 101.247 301.868Z" fill="#FDBFC9"/>
<path d="M180.762 301.237C183.471 276.191 221.582 233.137 233.412 226.885C243.396 221.607 261.665 199.828 279.271 194.057C284.662 192.29 293.31 193.4 297.961 196.651C301.808 199.34 303.407 204.409 303.139 209.096C302.871 213.783 301.033 218.218 299.22 222.548C296.945 227.98 294.671 233.413 292.397 238.846C291.449 241.109 290.483 243.554 291.011 245.95C292.205 251.364 299.27 252.34 304.66 253.638C312.175 255.446 318.943 260.186 323.213 266.63C326.111 271.004 326.841 276.354 325.881 281.513C322.918 297.426 296.825 305.968 284.679 306.173C271.614 306.393 258.237 305.46 246.301 306.337" fill="#FDBFC9"/>
<path d="M182.058 301.237C183.236 291.494 188.293 282.302 193.358 274.074C199.268 264.472 206.157 255.456 213.601 246.995C219.028 240.827 224.798 234.409 231.526 229.615C234.173 227.727 237.025 226.238 239.603 224.224C244.071 220.734 248.244 216.876 252.532 213.173C261.373 205.538 273.333 194.161 285.877 194.524C293.919 194.756 301.418 198.418 301.845 207.325C302.214 214.998 297.747 222.737 294.868 229.611C292.735 234.705 287.579 242.381 290.391 248.001C292.547 252.308 297.974 253.414 302.23 254.405C315.87 257.58 331.223 270.93 322.799 286.186C317.184 296.355 303.731 301.496 292.999 303.806C286.614 305.18 280.167 304.948 273.669 304.854C264.544 304.724 255.415 304.428 246.3 305.04C244.645 305.151 244.633 307.742 246.3 307.63C271.204 305.958 300.692 312.75 320.649 293.129C329.248 284.675 329.739 271.802 321.794 262.637C317.4 257.57 311.48 254.044 305.004 252.387C301.852 251.58 298.397 251.185 295.528 249.543C289.79 246.259 293.261 240.11 295.196 235.485C299.618 224.922 311.628 205.168 298.877 195.734C288.597 188.128 275.605 193.034 266.196 199.247C255.299 206.442 246.542 216.266 235.926 223.769C233.179 225.71 230.262 227.231 227.636 229.365C224.2 232.157 221.021 235.271 217.947 238.452C208.853 247.865 200.566 258.2 193.41 269.162C187.126 278.789 180.873 289.626 179.469 301.238C179.268 302.888 181.86 302.874 182.058 301.237Z" fill="#FDBFC9"/>
<path d="M252.589 205.667C256.515 197.882 265.9 191.919 273.158 187.672C282.242 182.358 295.179 178.23 305.249 183.462C316.755 189.441 315.542 205.187 311.697 215.331C306.738 228.418 298.163 240.647 289.366 251.414C288.319 252.695 290.141 254.538 291.197 253.246C298.952 243.754 305.951 233.493 311.361 222.473C315.93 213.166 319.238 202.374 315.491 192.21C308.35 172.848 284.273 177.795 270.403 186.306C263.254 190.692 254.249 196.633 250.352 204.359C249.603 205.844 251.837 207.157 252.589 205.667Z" fill="#FDBFC9"/>
<path d="M54.8404 256.617C42.0107 256.664 30.1855 249.921 17.3148 250.495C12.64 250.702 7.5011 251.848 3.82243 254.915C0.102709 258.015 -0.437657 262.226 0.263561 266.798C3.92045 290.648 30.9873 297.515 50.8233 301.299C52.4528 301.61 53.1507 299.114 51.512 298.801C33.3264 295.331 9.59219 290.114 3.54429 269.639C1.77156 263.638 2.27003 258.019 8.46455 255.121C13.7383 252.653 19.8038 252.729 25.4471 253.624C35.3571 255.197 44.6774 259.244 54.8404 259.207C56.5068 259.202 56.5101 256.611 54.8404 256.617Z" fill="#FDBFC9"/>
<path d="M57.776 260.265C52.0071 244.632 48.403 225.833 56.346 210.252C59.5086 204.048 64.7664 197.323 72.422 199.347C78.4934 200.953 84.0034 205.057 88.9019 208.844C90.2047 209.851 92.0511 208.03 90.7333 207.012C85.3456 202.848 79.358 198.353 72.6189 196.714C65.6201 195.012 60.6722 199.13 56.7221 204.637C45.0385 220.93 48.8202 243.453 55.2778 260.954C55.85 262.505 58.3549 261.835 57.776 260.265Z" fill="#FDBFC9"/>
<path d="M239.173 297.709C252.869 298.112 266.716 297.603 280.342 296.174C291.712 294.982 310.203 293.261 312.467 279.098C313.599 272.021 310.038 265.343 304.536 261.082C301.435 258.679 297.903 257.233 294.21 256.014C289.877 254.584 284.634 253.361 281.971 249.262C277.653 242.613 282.565 233.511 283.402 226.482C283.859 222.644 283.25 213.049 277.264 214.361C265.645 216.907 251.058 228.066 247.323 239.803C246.816 241.395 249.316 242.077 249.821 240.492C252.999 230.509 264.151 222.434 273.303 218.648C275.382 217.788 277.834 216.147 279.839 218.382C280.854 219.513 280.964 221.996 281.005 223.423C281.104 226.848 280.097 230.254 279.3 233.552C278.114 238.454 276.74 243.917 278.808 248.784C281.182 254.374 287.017 256.396 292.363 258.14C300.675 260.852 309.473 265.759 310.054 275.6C310.977 291.255 289.29 292.747 278.18 293.8C265.254 295.025 252.157 295.502 239.175 295.12C237.506 295.07 237.507 297.661 239.173 297.709Z" fill="white"/>
<path d="M100.144 297.569C86.7706 296.053 72.6834 295.382 59.7674 291.382C56.0351 290.226 52.3246 289.054 48.5756 287.945C45.3258 286.985 40.8932 285.955 38.6111 283.226C33.4939 277.109 45.5152 275.816 49.2014 276.058C54.342 276.396 60.756 278.438 65.7617 276.564C68.9268 275.38 70.5035 272.205 70.6945 268.951C70.8353 266.552 70.0419 264.361 69.6682 262.026C69.1874 259.015 69.6113 255.843 70.6082 252.97C73.8496 243.631 84.9401 240.816 90.0865 250.21C90.879 251.656 93.0924 250.365 92.2991 248.916C88.8416 242.605 81.5688 239.443 75.0066 243.305C71.508 245.364 69.1832 248.948 67.9768 252.755C67.2906 254.922 66.8868 257.314 66.8785 259.593C66.8651 263.434 69.4739 267.889 67.4624 271.527C63.9814 277.822 50.5728 272.945 44.5685 273.481C40.3662 273.856 35.58 275.174 35.0564 279.969C34.2128 287.686 46.0103 289.891 51.3176 291.385C58.3985 293.379 65.182 295.647 72.5033 296.745C81.6786 298.121 90.926 299.086 100.143 300.131C101.779 300.318 101.766 297.753 100.144 297.569Z" fill="white"/>
</g>
<path d="M95.1969 8.06039C93.0882 7.30974 90.7517 9.95292 90.249 11.6109V11.6117C88.5978 10.8979 85.1001 10.6902 84.2137 12.6355C83.422 14.1745 84.3251 15.6498 85.5659 16.8562C88.5106 19.718 92.8838 19.8764 93.6336 19.8814C93.6696 19.8814 93.6973 19.8554 93.704 19.8244C93.709 19.8362 93.714 19.8479 93.7182 19.8579C93.7392 19.9065 93.802 19.9183 93.8389 19.8797C94.3575 19.3368 97.2914 16.0846 97.2872 11.9736C97.2855 10.2411 96.8549 8.56389 95.1969 8.06039Z" fill="#FF716E"/>
<path d="M264.681 28.3257C264.158 26.8085 261.632 26.6854 260.478 27.1453C260.138 25.9012 258.689 23.8512 257.203 24.2256C255.986 24.4711 255.565 25.6381 255.445 26.873C255.162 29.8027 257.032 32.3219 257.364 32.7441C257.38 32.7642 257.407 32.7676 257.428 32.7584C257.424 32.7659 257.42 32.7743 257.415 32.781C257.397 32.8145 257.419 32.8547 257.457 32.8581C257.993 32.905 261.128 33.0918 263.427 31.2487C264.396 30.4721 265.142 29.4793 264.681 28.3257Z" fill="#FF716E"/>
<path d="M279.275 169.772C278.752 168.254 276.226 168.131 275.072 168.591V168.592C274.732 167.348 273.283 165.297 271.796 165.671C270.58 165.917 270.159 167.084 270.039 168.319C269.756 171.249 271.626 173.768 271.958 174.19C271.974 174.21 272.001 174.214 272.022 174.204C272.018 174.212 272.013 174.22 272.009 174.227C271.991 174.26 272.013 174.301 272.051 174.304C272.587 174.351 275.722 174.538 278.021 172.695C278.99 171.918 279.736 170.925 279.275 169.772Z" fill="#FF716E"/>
<path d="M56.2873 182.616C54.0882 182.052 51.9736 184.938 51.6184 186.659V186.66C49.8851 186.092 46.3346 186.205 45.6183 188.251C44.9606 189.878 46.0087 191.285 47.3742 192.389C50.6122 195.007 55.0432 194.762 55.8006 194.699C55.8374 194.695 55.8617 194.667 55.8668 194.634C55.8726 194.645 55.8785 194.657 55.8844 194.666C55.9095 194.714 55.9748 194.72 56.0084 194.677C56.4817 194.081 59.1441 190.525 58.7604 186.375C58.5988 184.625 58.0081 182.971 56.2873 182.616Z" fill="#FF716E"/>
<path d="M35.2373 230.056C35.2323 232.22 33.473 233.971 31.309 233.965C29.145 233.96 27.3941 232.201 27.3999 230.037C27.4049 227.873 29.1643 226.122 31.3282 226.128C33.4922 226.133 35.2423 227.891 35.2373 230.056Z" fill="#FDBFC9" stroke="#FDBFC9" stroke-width="1.1295" stroke-miterlimit="10"/>
<path d="M292.345 108.189C292.34 110.344 290.589 112.086 288.434 112.081C286.279 112.075 284.538 110.325 284.543 108.17C284.548 106.015 286.299 104.273 288.453 104.278C290.608 104.283 292.35 106.034 292.345 108.189Z" fill="#FDBFC9"/>
<path d="M158.53 64.2506C158.527 65.6597 157.382 66.7991 155.972 66.7958C154.563 66.7924 153.424 65.6472 153.427 64.238C153.431 62.8289 154.576 61.6895 155.985 61.6929C157.394 61.6962 158.533 62.8415 158.53 64.2506Z" fill="#FDBFC9"/>
<path d="M327.452 235.398C327.447 237.562 325.687 239.312 323.523 239.307C321.359 239.302 319.608 237.542 319.614 235.378C319.619 233.214 321.379 231.463 323.543 231.469C325.707 231.474 327.458 233.234 327.452 235.398Z" stroke="#FDBFC9" stroke-width="1.1295" stroke-miterlimit="10"/>
<path d="M237.334 307.469L103.701 307.141C94.8015 307.119 87.6033 300.59 87.6226 292.557L87.951 158.863C87.9552 157.283 88.1738 155.71 88.6036 154.178L90.2792 148.199L251.536 148.595L253.182 154.582C253.604 156.116 253.815 157.69 253.811 159.27L253.483 292.965C253.464 300.997 246.234 307.491 237.334 307.469Z" fill="#F43F5E"/>
<path opacity="0.4" d="M238.033 300.412L110.055 300.098C101.532 300.077 94.6381 293.838 94.6565 286.163L94.9699 158.515C94.974 156.933 95.1935 155.358 95.6242 153.824L97.1992 148.216L251.633 148.596L253.181 154.211C253.604 155.747 253.816 157.324 253.813 158.905L253.5 286.553C253.481 294.228 246.556 300.433 238.033 300.412Z" fill="#F43F5E"/>
<path d="M247.333 288.445C247.314 295.798 239.9 301.067 232.502 298.987C217.954 294.899 194.49 289.601 170.434 289.541C145.311 289.479 123.251 294.341 109.48 298.298C102.041 300.435 94.5501 295.128 94.5677 287.72L94.8835 159.298C94.8877 157.647 95.1047 156.003 95.5303 154.401L97.0299 148.755L245.556 149.12L247.028 154.773C247.445 156.377 247.654 158.022 247.65 159.674L247.333 288.445Z" fill="#FFE4E9"/>
<path opacity="0.5" d="M243.467 167.589L231.822 152.127C230.671 150.599 231.764 148.412 233.678 148.417L245.36 148.445C246.64 148.449 247.674 149.489 247.671 150.767L247.633 166.201C247.627 168.422 244.802 169.364 243.467 167.589Z" fill="white"/>
<path d="M234.356 226.521H234.355C223.06 222.498 210.547 236.66 207.851 245.541L207.852 245.544C199.006 241.721 180.274 240.609 175.523 251.026L175.522 251.027C171.279 259.271 176.117 267.175 182.766 273.638C198.541 288.968 221.967 289.814 225.984 289.844C226.179 289.846 226.323 289.708 226.363 289.538C226.389 289.599 226.416 289.662 226.439 289.716C226.548 289.978 226.889 290.04 227.084 289.834C229.862 286.927 245.579 269.504 245.557 247.484C245.546 238.202 243.238 229.217 234.356 226.521Z" fill="#FF716E"/>
<g opacity="0.37">
<path d="M223.647 232.508C225.805 229.656 230.051 228.919 233.373 230.246C236.694 231.573 239.116 234.595 240.47 237.905C240.919 239.002 241.216 240.395 240.407 241.26C239.494 242.234 237.892 241.829 236.653 241.333C232.115 239.511 227.556 237.291 224.371 233.582" fill="white"/>
<path d="M224.772 233.634C229.403 228.305 236.344 232.612 238.7 237.815C240.579 241.962 234.151 238.581 232.651 237.806C229.948 236.411 227.549 234.711 225.497 232.457C224.115 230.938 221.868 233.195 223.246 234.708C226.713 238.519 231.405 241.148 236.231 242.869C239.817 244.148 243.205 242.553 242.299 238.349C240.483 229.913 228.859 224.091 222.522 231.383C221.183 232.923 223.426 235.184 224.772 233.634Z" fill="white"/>
</g>
<g opacity="0.37">
<path d="M239.768 247.13C239.693 247.802 239.51 248.46 239.23 249.075C239.078 249.407 238.88 249.743 238.557 249.911C238.146 250.125 237.647 250.012 237.198 249.895C236.556 249.728 235.913 249.559 235.287 249.339C234.416 249.033 233.514 248.563 233.133 247.722C233.01 247.45 232.949 247.135 233.039 246.85C233.209 246.309 233.831 246.064 234.389 245.964C235.913 245.692 237.531 245.987 238.862 246.779" fill="white"/>
<path d="M238.233 246.707C238.175 247.107 238.11 247.509 237.983 247.895C237.937 248.087 237.865 248.268 237.767 248.438C237.609 248.669 237.676 248.67 237.965 248.441C237.138 248.378 236.09 248.023 235.348 247.656C235.231 247.591 235.114 247.528 234.996 247.463C234.758 247.117 234.584 247.155 234.474 247.576C234.859 247.574 235.248 247.446 235.649 247.457C236.514 247.483 237.303 247.736 238.058 248.153C239.854 249.142 241.462 246.394 239.665 245.404C237.87 244.415 235.645 243.927 233.627 244.507C231.453 245.132 230.786 247.443 232.201 249.185C233.402 250.663 236.039 251.575 237.891 251.619C240.11 251.671 241.032 249.427 241.303 247.553C241.593 245.549 238.526 244.684 238.233 246.707Z" fill="white"/>
</g>
<path d="M224.923 286.261C217.539 281.51 208.65 279.838 200.012 278.263C198.803 278.043 197.414 277.866 196.472 278.654C196.348 278.758 196.229 278.892 196.222 279.052C196.212 279.251 196.37 279.414 196.52 279.545C197.684 280.564 199.052 281.32 200.438 282.006C207.966 285.732 216.402 287.603 224.799 287.41" fill="#F25A57"/>
<path opacity="0.5" d="M244.427 287.604H244.424C242.628 287.599 241.177 286.14 241.182 284.345L241.445 177.191C241.449 175.396 242.908 173.944 244.703 173.949H244.706C246.502 173.953 247.953 175.413 247.948 177.207L247.685 284.361C247.681 286.156 246.222 287.608 244.427 287.604Z" fill="white"/>
<path d="M255.216 145.22L252.126 149.072L90.2021 148.674L87.4727 144.807L87.533 120.357L255.277 120.769L255.216 145.22Z" fill="#F2BF11"/>
<path d="M255.271 120.783L87.5271 120.363L87.4662 144.729L255.211 145.149L255.271 120.783Z" fill="#FFDA42"/>
<path d="M212.059 122.139L131.09 121.94C130.625 121.939 130.248 121.56 130.25 121.095C130.25 120.63 130.629 120.253 131.094 120.255L212.063 120.454C212.528 120.455 212.905 120.834 212.904 121.299C212.903 121.764 212.525 122.14 212.059 122.139Z" fill="#222221"/>
<path d="M94.148 145.603H94.1455C93.4845 145.601 92.95 145.064 92.9517 144.403L93.0028 123.518C93.0044 122.857 93.5415 122.323 94.2025 122.324H94.205C94.866 122.326 95.4005 122.863 95.3988 123.524L95.3477 144.409C95.346 145.07 94.809 145.604 94.148 145.603Z" fill="#F2BF11"/>
<path d="M103.048 145.624H103.046C102.385 145.622 101.85 145.085 101.852 144.424L101.903 123.54C101.905 122.879 102.442 122.344 103.103 122.346H103.105C103.766 122.347 104.301 122.884 104.299 123.545L104.248 144.43C104.246 145.091 103.709 145.626 103.048 145.624Z" fill="#F2BF11"/>
<path d="M111.949 145.647H111.947C111.286 145.645 110.751 145.108 110.753 144.447L110.804 123.562C110.805 122.901 111.342 122.367 112.003 122.369H112.006C112.667 122.37 113.202 122.907 113.2 123.568L113.149 144.453C113.147 145.114 112.61 145.648 111.949 145.647Z" fill="#F2BF11"/>
<path d="M228.343 145.933H228.34C227.679 145.931 227.145 145.394 227.146 144.733L227.198 123.848C227.199 123.187 227.736 122.653 228.397 122.654H228.401C229.062 122.656 229.596 123.193 229.594 123.854L229.543 144.739C229.541 145.4 229.004 145.934 228.343 145.933Z" fill="#F2BF11"/>
<path d="M237.243 145.954H237.24C236.579 145.953 236.044 145.416 236.046 144.755L236.097 123.87C236.099 123.209 236.636 122.674 237.297 122.676H237.299C237.96 122.677 238.495 123.214 238.493 123.875L238.442 144.76C238.441 145.421 237.904 145.956 237.243 145.954Z" fill="#F2BF11"/>
<path d="M246.144 145.976H246.141C245.48 145.975 244.946 145.437 244.948 144.776L244.999 123.892C245 123.231 245.537 122.696 246.198 122.698H246.201C246.862 122.699 247.396 123.236 247.395 123.897L247.344 144.782C247.342 145.443 246.805 145.978 246.144 145.976Z" fill="#F2BF11"/>
<path opacity="0.5" d="M251.286 143.336C249.868 143.333 248.722 142.18 248.725 140.763L248.761 126.127C248.764 124.709 249.917 123.563 251.335 123.566C252.752 123.57 253.899 124.723 253.896 126.14L253.86 140.775C253.856 142.193 252.704 143.34 251.286 143.336Z" fill="white"/>
<mask id="mask0_12_3014" style="mask-type:luminance" maskUnits="userSpaceOnUse" x="126" y="40" width="91" height="83">
<path d="M216.774 40.8877L126.962 40.6665L126.379 122.369L216.575 122.34L216.774 40.8877Z" fill="white"/>
</mask>
<g mask="url(#mask0_12_3014)">
<path d="M190.316 49.7001H190.314C174.865 49.0483 164.846 71.2627 164.909 83.2312L164.911 83.2345C152.557 81.8949 129.055 87.663 127.17 102.306V102.308C125.084 114.081 134.056 121.976 144.71 127.403C169.986 140.279 199.169 132.395 204.128 130.901C204.368 130.829 204.493 130.604 204.477 130.38C204.532 130.446 204.589 130.513 204.637 130.571C204.872 130.85 205.315 130.797 205.478 130.47C207.792 125.83 220.516 98.3765 212.098 71.2577C208.552 59.8271 202.285 49.6381 190.316 49.7001Z" fill="#FF716E"/>
<g opacity="0.37">
<path d="M179.404 61.1565C180.976 56.8202 185.926 54.2943 190.523 54.6629C195.121 55.0316 199.257 57.8322 202.187 61.3953C203.157 62.5749 204.054 64.1792 203.387 65.5523C202.634 67.0997 200.505 67.2128 198.791 67.0721C192.506 66.5577 186.043 65.559 180.705 62.2029" fill="white"/>
<path d="M181.176 62.1921C184.859 53.8419 194.942 56.3662 199.907 61.8946C203.968 66.4161 194.464 64.6023 192.594 64.2706C188.738 63.5853 185.127 62.425 181.742 60.4302C179.46 59.0864 177.392 62.6336 179.67 63.9748C185.368 67.3318 192.2 68.8976 198.791 69.1246C203.469 69.2855 207.563 66.1774 204.651 61.3132C199.033 51.9293 182.766 48.4793 177.632 60.1202C176.575 62.5154 180.111 64.6074 181.176 62.1921Z" fill="white"/>
</g>
<g opacity="0.37">
<path d="M204.836 73.0268C204.999 73.883 205.025 74.7643 204.913 75.6289C204.852 76.0947 204.737 76.5848 204.402 76.9149C203.977 77.3354 203.32 77.3865 202.723 77.4125C201.867 77.4502 201.011 77.4879 200.156 77.4552C198.966 77.41 197.676 77.1746 196.886 76.284C196.63 75.9958 196.435 75.6306 196.438 75.2452C196.441 74.5146 197.114 73.9751 197.763 73.64C199.537 72.7235 201.644 72.4705 203.584 72.9396" fill="white"/>
<path d="M202.856 73.5729C202.913 73.9541 203.074 75.1622 202.848 75.5501C203.09 75.1337 202.735 75.3608 202.081 75.3867C200.986 75.4294 200.007 75.349 198.936 75.2007C198.743 75.1597 198.574 75.0717 198.428 74.936C198.423 75.1697 198.418 75.4043 198.412 75.6381C198.377 75.6154 199.792 75.0282 199.824 75.0189C200.881 74.7056 201.966 74.6972 203.039 74.9192C205.617 75.4521 206.72 71.4953 204.13 70.9608C201.525 70.4221 198.638 70.6248 196.341 72.0934C194.002 73.5889 193.806 76.5253 196.01 78.2393C198.036 79.816 201.538 79.847 203.948 79.3268C207.194 78.6256 207.213 75.1496 206.815 72.4813C206.426 69.8767 202.47 70.9834 202.856 73.5729Z" fill="white"/>
</g>
<path d="M210.602 116.856C190.061 118.799 143.278 119.751 128.024 101.737C125.786 99.0936 126.451 119.327 136.009 120.88C155.163 123.993 188.775 129.116 207.525 124.115" fill="#F25A57"/>
</g>
<path d="M127.623 120.994C127.621 121.69 120.38 122.235 111.45 122.213C102.519 122.192 95.2806 121.61 95.2822 120.915C95.2839 120.22 102.525 119.674 111.455 119.696C120.386 119.718 127.625 120.299 127.623 120.994Z" fill="#F2BF11"/>
<path d="M161.792 3.76787C154.4 -3.25688 139.787 3.43276 134.628 9.4061V9.40861C129.071 3.38417 114.894 -3.94385 107.607 2.51372L107.606 2.51456C101.463 7.45827 102.496 15.2714 105.435 22.5885C112.406 39.948 130.323 48.6894 133.435 50.0985C133.585 50.1664 133.745 50.1086 133.834 49.9904C133.833 50.0474 133.832 50.1052 133.831 50.1547C133.826 50.3959 134.07 50.561 134.292 50.4697C137.454 49.1686 155.683 41.0489 163.264 23.9256C166.459 16.7081 167.765 8.92773 161.792 3.76787Z" fill="#F25A57"/>
<path d="M161.793 3.76755C154.4 -3.2572 139.788 3.43244 134.628 9.40578V9.40829C129.072 3.38385 116.366 -0.439757 110.38 5.48834C104.777 11.0369 105.27 18.2451 108.209 25.5623C115.181 42.9218 130.324 48.6891 133.436 50.0982C133.586 50.1661 133.746 50.1083 133.835 49.9901C133.834 50.0471 133.833 50.1049 133.832 50.1543C133.827 50.3956 134.071 50.5607 134.293 50.4693C137.455 49.1683 155.684 41.0486 163.265 23.9253C166.459 16.7078 167.765 8.92741 161.793 3.76755Z" fill="#FF716E"/>
<g opacity="0.37">
<path d="M157.009 10.2646C159.855 11.3378 161.479 14.6236 161.197 17.6522C160.915 20.6807 159.033 23.385 156.66 25.2868C155.873 25.9168 154.808 26.4949 153.908 26.0433C152.894 25.5339 152.838 24.1298 152.945 22.9997C153.337 18.8602 154.05 14.6068 156.308 11.115" fill="white"/>
<path d="M156.325 11.4343C160.942 13.5756 160.87 20.618 156.728 23.4161C153.022 25.9202 154.579 20.2946 154.894 18.702C155.383 16.233 156.176 13.9652 157.475 11.7979C158.374 10.2999 156.034 8.93686 155.137 10.4314C152.87 14.2098 151.428 19.2474 151.551 23.701C151.637 26.8544 154.067 28.4562 156.91 26.7438C163.071 23.0324 165.171 12.5653 157.691 9.09603C156.122 8.36801 154.744 10.7012 156.325 11.4343Z" fill="white"/>
</g>
<g opacity="0.37">
<path d="M148.128 34.4161C147.68 34.0559 147.29 33.6236 146.977 33.1419C146.808 32.8822 146.657 32.5873 146.684 32.2781C146.719 31.8852 147.026 31.5786 147.315 31.3105C147.728 30.926 148.143 30.5414 148.586 30.1921C149.203 29.7062 149.952 29.273 150.729 29.3836C150.981 29.4197 151.234 29.5194 151.398 29.7137C151.709 30.0823 151.601 30.6403 151.419 31.0868C150.919 32.305 149.969 33.3329 148.794 33.9261" fill="white"/>
<path d="M149.084 33.4596C148.809 33.2225 148.405 32.9368 148.246 32.5992C148.217 32.4701 148.155 32.4299 148.057 32.4777C148.167 32.3671 148.281 32.259 148.397 32.1535C148.937 31.6466 149.591 31.2839 150.127 30.8046C150.413 30.8113 150.473 30.7385 150.304 30.5851C150.214 30.3732 150.155 30.4059 150.126 30.6807C149.935 30.8834 149.839 31.2328 149.667 31.4665C149.252 32.0261 148.718 32.4283 148.11 32.7567C146.577 33.5861 147.943 35.9251 149.477 35.0949C150.924 34.3107 152.169 33.0189 152.723 31.4464C153.341 29.6912 152.352 27.9746 150.397 28.0149C148.709 28.0492 146.959 29.5379 145.946 30.7912C144.624 32.4266 145.822 34.2161 147.17 35.3739C148.485 36.504 150.409 34.5973 149.084 33.4596Z" fill="white"/>
</g>
<path d="M192.913 201.804C186.531 195.739 173.917 201.515 169.461 206.672V206.674C164.664 201.473 152.425 195.147 146.134 200.722L146.134 200.723C140.83 204.99 141.723 211.736 144.259 218.053C150.278 233.039 165.746 240.585 168.432 241.801C168.562 241.86 168.7 241.81 168.777 241.708C168.776 241.757 168.775 241.807 168.774 241.85C168.77 242.058 168.981 242.201 169.173 242.121C171.903 240.998 187.639 233.988 194.183 219.206C196.942 212.975 198.07 206.259 192.913 201.804Z" fill="#F25A57"/>
<path d="M192.913 201.804C186.531 195.739 173.917 201.515 169.462 206.671V206.674C164.664 201.473 153.696 198.172 148.529 203.289C143.692 208.08 144.118 214.303 146.655 220.619C152.673 235.606 165.746 240.585 168.432 241.801C168.563 241.86 168.7 241.81 168.777 241.708C168.776 241.757 168.775 241.807 168.775 241.85C168.77 242.057 168.981 242.201 169.173 242.121C171.903 240.998 187.64 233.988 194.183 219.206C196.942 212.975 198.07 206.258 192.913 201.804Z" fill="#FF716E"/>
<g opacity="0.37">
<path d="M188.784 207.413C191.241 208.339 192.643 211.175 192.4 213.79C192.157 216.404 190.533 218.738 188.483 220.381C187.804 220.924 186.884 221.424 186.107 221.033C185.232 220.593 185.183 219.381 185.276 218.406C185.614 214.832 186.23 211.16 188.179 208.146" fill="white"/>
<path d="M188.194 208.421C192.18 210.269 192.118 216.349 188.542 218.765C185.342 220.927 186.686 216.071 186.959 214.695C187.382 212.564 188.065 210.606 189.188 208.735C189.964 207.443 187.944 206.266 187.17 207.556C185.213 210.817 183.969 215.166 184.074 219.012C184.149 221.734 186.246 223.117 188.7 221.639C194.019 218.434 195.832 209.399 189.374 206.404C188.018 205.775 186.83 207.789 188.194 208.421Z" fill="white"/>
</g>
<g opacity="0.37">
<path d="M181.117 228.262C180.731 227.951 180.394 227.578 180.123 227.162C179.977 226.938 179.847 226.683 179.87 226.416C179.899 226.077 180.166 225.812 180.415 225.581C180.772 225.249 181.129 224.917 181.511 224.615C182.044 224.196 182.69 223.822 183.361 223.917C183.579 223.948 183.798 224.035 183.939 224.202C184.207 224.521 184.114 225.002 183.957 225.387C183.525 226.438 182.706 227.325 181.691 227.838" fill="white"/>
<path d="M181.944 227.435C181.706 227.231 181.357 226.985 181.219 226.692C181.195 226.581 181.14 226.546 181.056 226.588C181.151 226.492 181.249 226.398 181.349 226.308C181.815 225.87 182.38 225.557 182.843 225.143C183.09 225.149 183.141 225.086 182.996 224.954C182.918 224.771 182.867 224.799 182.843 225.037C182.678 225.212 182.595 225.514 182.446 225.715C182.089 226.199 181.627 226.546 181.103 226.83C179.78 227.546 180.958 229.565 182.282 228.848C183.532 228.171 184.607 227.056 185.084 225.698C185.618 224.183 184.764 222.701 183.076 222.735C181.619 222.765 180.109 224.051 179.234 225.132C178.092 226.544 179.127 228.09 180.291 229.088C181.426 230.063 183.087 228.417 181.944 227.435Z" fill="white"/>
</g>
<path d="M165.827 261.418V261.417C163.786 250.84 147.116 247.618 139.012 249.584L139.01 249.586C137.933 240.996 130.245 225.99 120.014 227.066C111.698 227.544 107.787 234.895 105.82 242.991C101.154 262.195 111.189 280.711 112.998 283.834C113.086 283.985 113.259 284.033 113.408 283.987C113.372 284.035 113.336 284.084 113.304 284.126C113.152 284.331 113.259 284.622 113.507 284.68C117.024 285.503 137.681 289.717 154.713 279.651C161.892 275.408 167.793 269.522 165.827 261.418Z" fill="#FF716E"/>
<g opacity="0.37">
<path d="M145.547 255.061C148.003 252.988 151.87 253.181 154.519 254.999C157.168 256.818 158.694 259.946 159.226 263.116C159.402 264.165 159.388 265.446 158.508 266.044C157.516 266.717 156.191 266.046 155.203 265.366C151.586 262.874 148.029 260.026 145.969 256.145" fill="white"/>
<path d="M146.269 256.296C151.224 252.616 156.393 257.39 157.595 262.313C157.827 263.263 158.119 263.604 157.213 264.147C156.363 264.656 156.298 264.379 155.564 263.88C154.448 263.12 153.368 262.301 152.333 261.435C150.276 259.713 148.53 257.766 147.205 255.424C146.299 253.822 143.826 255.261 144.735 256.867C147.009 260.886 150.606 264.136 154.482 266.601C157.378 268.442 160.851 267.703 160.734 263.766C160.511 256.22 151.898 248.573 144.826 253.826C143.365 254.911 144.789 257.395 146.269 256.296Z" fill="white"/>
</g>
<g opacity="0.37">
<path d="M156.788 271.062C156.589 271.636 156.298 272.177 155.931 272.66C155.732 272.921 155.492 273.177 155.176 273.26C154.773 273.367 154.358 273.169 153.989 272.978C153.459 272.704 152.929 272.429 152.424 272.113C151.721 271.672 151.023 271.082 150.855 270.269C150.801 270.006 150.81 269.718 150.945 269.486C151.201 269.046 151.795 268.954 152.303 268.977C153.693 269.04 155.053 269.618 156.063 270.574" fill="white"/>
<path d="M155.409 270.682C155.295 270.979 155.122 271.401 154.908 271.642C154.627 271.958 154.793 271.844 154.315 271.536C153.679 271.127 153.07 270.762 152.464 270.319C152.368 270.231 152.299 270.125 152.255 270.001C152.167 270.137 152.079 270.274 151.992 270.409C151.977 270.379 153.032 270.516 153.048 270.52C153.806 270.698 154.474 271.074 155.053 271.587C156.426 272.804 158.457 270.788 157.075 269.564C155.693 268.339 153.883 267.463 151.992 267.549C150.05 267.637 148.906 269.345 149.652 271.156C150.338 272.821 152.526 274.13 154.192 274.598C156.324 275.196 157.523 273.126 158.168 271.442C158.825 269.721 156.061 268.977 155.409 270.682Z" fill="white"/>
</g>
<path d="M115.287 281.378C115.595 273.495 112.832 265.854 110.109 258.448C109.728 257.412 109.231 256.257 108.191 255.887C108.054 255.839 107.897 255.808 107.768 255.876C107.609 255.959 107.556 256.155 107.522 256.331C107.264 257.697 107.304 259.101 107.405 260.488C107.957 268.013 110.358 275.397 114.339 281.807" fill="#F25A57"/>
<path d="M221.93 163.086L221.454 162.362L220.101 160.343C219.263 159.085 217.396 159.066 216.558 160.343L215.225 162.324L215.187 162.381L214.711 163.086L207.586 173.905L207.11 174.629C207.11 174.629 207.11 174.629 207.11 174.648L203.815 179.638L209.948 179.6L215.396 179.562C216.463 179.562 217.53 179.962 218.292 180.724C218.806 181.239 219.168 181.867 219.339 182.534H225.111C224.863 180.305 223.93 178.229 222.311 176.648C220.463 174.838 218.025 173.848 215.434 173.848H213.815V173.867L217.873 167.79L218.349 167.067L218.825 167.79L224.73 176.648C225.358 177.6 226.425 178.153 227.549 178.153H232.006L221.93 163.086Z" fill="#F43F5E"/>
<path d="M232.825 184.549L227.224 184.587H227.072L220.367 184.625C219.224 184.663 218.234 184.206 217.453 183.444C216.996 182.987 216.672 182.415 216.481 181.825H210.653C210.957 183.977 211.891 185.977 213.453 187.52C215.3 189.33 217.738 190.339 220.31 190.339H224.405L224.443 190.32C222.748 191.977 220.443 192.682 217.586 192.454C217.51 192.454 217.415 192.454 217.281 192.435C213.072 191.806 210.481 189.749 209.376 186.187C208.938 184.796 208.843 183.31 209.014 181.825H203.3C203.148 183.882 203.319 185.92 203.909 187.882C205.167 191.92 208.405 196.968 216.71 198.13L218.177 198.206C224.043 198.359 228.615 195.673 231.263 190.606C231.339 190.454 231.415 190.32 231.472 190.168C232.329 188.415 232.825 186.511 232.996 184.549H232.825Z" fill="#0E172A"/>
</svg>
