<svg width="391" height="250" viewBox="0 0 391 250" fill="none" xmlns="http://www.w3.org/2000/svg">
<path d="M298.708 203.953H270.576C268.643 203.953 267.076 202.386 267.076 200.453C267.076 198.52 268.643 196.953 270.576 196.953H298.708C300.641 196.953 302.208 198.52 302.208 200.453C302.208 202.385 300.64 203.953 298.708 203.953Z" fill="#FFC9D2"/>
<path d="M343.391 155.592H321.545C319.612 155.592 318.045 154.025 318.045 152.092C318.045 150.159 319.612 148.592 321.545 148.592H343.391C345.324 148.592 346.891 150.159 346.891 152.092C346.891 154.026 345.324 155.592 343.391 155.592Z" fill="#FFD0D8"/>
<path d="M359.703 152.14C359.703 154.083 358.128 155.658 356.185 155.658C354.242 155.658 352.667 154.083 352.667 152.14C352.667 150.197 354.242 148.622 356.185 148.622C358.128 148.622 359.703 150.197 359.703 152.14Z" fill="#FFD0D8"/>
<path d="M281.204 241.607H311.259L321.322 192.79H291.268L281.204 241.607Z" fill="#F43F5E"/>
<path d="M311.128 107.162H311.744C311.385 108.058 310.96 109.293 310.468 110.868H338.687L347.44 69.6199H322.052C317.926 69.6199 314.013 71.4539 311.374 74.6249L281.204 110.868H308.854C309.749 109.509 310.512 108.271 311.128 107.162Z" fill="#F43F5E"/>
<path d="M337.777 115.153H309.199C308.664 117.039 308.077 119.191 307.435 121.624C305.52 128.873 304.152 134.481 303.332 138.446L297.383 163.884H265.483L297.588 125.726C300.863 121.742 303.617 118.219 305.859 115.152H277.635L236.557 164.499L235.599 169.17C233.551 179.153 241.177 188.502 251.368 188.502H292.152V188.503H322.207V188.502C332.374 188.502 341.156 181.39 343.269 171.445L344.875 163.884H327.437L337.777 115.153Z" fill="#7A3742"/>
<path d="M256.618 81.0569H235.264C233.883 81.0569 232.764 79.9379 232.764 78.5569C232.764 77.1759 233.883 76.0569 235.264 76.0569H256.618C257.999 76.0569 259.118 77.1759 259.118 78.5569C259.118 79.9379 257.999 81.0569 256.618 81.0569Z" fill="white"/>
<path d="M281.204 81.0569H270.576C269.195 81.0569 268.076 79.9379 268.076 78.5569C268.076 77.1759 269.195 76.0569 270.576 76.0569H281.204C282.585 76.0569 283.704 77.1759 283.704 78.5569C283.704 79.9379 282.585 81.0569 281.204 81.0569Z" fill="white"/>
<path d="M172.851 118.629L170.857 118.785L174.021 159.218L176.015 159.062L172.851 118.629Z" fill="#7A3742"/>
<path d="M218.197 117.192L193.885 160.749L195.631 161.724L219.944 118.167L218.197 117.192Z" fill="#F43F5E"/>
<path d="M192.049 127.166L184.207 159.127L186.149 159.603L193.991 127.642L192.049 127.166Z" fill="#F43F5E"/>
<path d="M207.173 113.726C203.482 119.88 199.345 125.107 194.768 129.421C211.561 129.021 224.668 120.975 234.084 105.272C243.745 89.161 248.576 67.631 248.576 40.681C248.576 15.886 239.008 2.43201 219.884 0.307007C223.746 8.32301 225.686 18.616 225.686 31.21C225.687 65.639 219.514 93.143 207.173 113.726Z" fill="#7A3742"/>
<path d="M190.797 32.089C195.321 19.162 201.038 8.61197 207.939 0.417969C199.672 1.51997 192.231 4.83197 185.619 10.364C177.362 17.274 170.826 27.609 166.009 41.37C161.193 55.131 158.785 70.526 158.785 87.556C158.785 101.49 161.722 111.953 167.601 118.949C173.123 125.522 181.063 129.005 191.419 129.402C184.852 120.507 181.569 107.74 181.569 91.093C181.568 69.337 184.644 49.669 190.797 32.089Z" fill="#7A3742"/>
<path d="M207.939 0.417999C201.038 8.612 195.321 19.163 190.797 32.089C184.644 49.669 181.568 69.337 181.568 91.092C181.568 107.738 184.851 120.506 191.418 129.401C192.084 129.426 192.759 129.441 193.445 129.441C193.889 129.441 194.328 129.432 194.767 129.422C199.344 125.108 203.482 119.881 207.172 113.727C219.513 93.144 225.686 65.639 225.686 31.21C225.686 18.616 223.745 8.323 219.884 0.306999C218.091 0.107999 216.22 0 214.259 0C212.101 0 209.996 0.142999 207.939 0.417999Z" fill="#FFD0D8"/>
<path d="M171.489 157.642C171.468 158.29 171.454 158.941 171.454 159.603C171.454 164.503 172.487 168.183 174.554 170.643C176.621 173.103 179.651 174.333 183.644 174.333C189.774 174.333 194.538 171.5 197.936 165.833C199.369 163.443 200.496 160.71 201.325 157.641L171.489 157.642Z" fill="#7A3742"/>
<path d="M244.265 17.278C241.683 43.191 235.228 64.758 224.901 81.981C211.48 104.361 192.8 115.83 168.865 116.399C168.24 116.414 167.613 116.426 166.981 116.426C166.501 116.426 166.035 116.407 165.562 116.398C166.159 117.291 166.789 118.145 167.463 118.947C172.985 125.52 180.925 129.003 191.281 129.4C191.947 129.425 192.622 129.44 193.309 129.44C193.753 129.44 194.192 129.431 194.631 129.421C211.424 129.021 224.531 120.975 233.947 105.272C243.607 89.161 248.439 67.631 248.439 40.681C248.438 31.231 247.044 23.434 244.265 17.278Z" fill="#F43F5E"/>
<path d="M194.593 157.642C193.854 159.497 193.015 161.24 192.052 162.844C188.478 168.804 183.67 172.203 177.635 173.058C179.311 173.9 181.308 174.333 183.643 174.333C189.773 174.333 194.537 171.5 197.935 165.833C199.368 163.443 200.495 160.709 201.324 157.641L194.593 157.642Z" fill="#F43F5E"/>
<path d="M197.679 35.0874C202.447 29.6092 202.998 22.2837 198.909 18.7254C194.821 15.1671 187.642 16.7234 182.874 22.2016C178.106 27.6797 177.555 35.0052 181.643 38.5635C185.732 42.1218 192.911 40.5655 197.679 35.0874Z" fill="white"/>
<path d="M81.3926 93.0979H127.856L132.838 69.6199H107.449C103.323 69.6199 99.4096 71.4539 96.7706 74.6249L81.3926 93.0979Z" fill="#F43F5E"/>
<path d="M82.9865 125.728C89.6185 117.66 94.1316 111.47 96.5266 107.162H97.1416C96.1836 109.556 94.7465 114.377 92.8335 121.625C90.9185 128.874 89.5516 134.482 88.7306 138.447L83.7826 159.603H113.745L126.947 97.3828H77.8256L38.5186 144.601H67.1056L82.9865 125.728Z" fill="#7A3742"/>
<path d="M50.8847 163.885H50.8807L63.5007 148.887H34.9517L21.9547 164.501L20.9967 169.172C18.9487 179.154 26.5747 188.504 36.7657 188.504H77.5507L71.0887 219.584H101.143L107.605 188.504C117.772 188.504 126.554 181.392 128.667 171.447L130.273 163.889H50.8807L50.8847 163.885Z" fill="#F43F5E"/>
<path d="M124.758 147.101H105.223C103.842 147.101 102.723 145.982 102.723 144.601C102.723 143.22 103.842 142.101 105.223 142.101H124.758C126.139 142.101 127.258 143.22 127.258 144.601C127.258 145.982 126.139 147.101 124.758 147.101Z" fill="white"/>
<path d="M149.276 63.0649H103.749C101.816 63.0649 100.249 61.4979 100.249 59.5649C100.249 57.6319 101.816 56.0649 103.749 56.0649H149.276C151.209 56.0649 152.776 57.6319 152.776 59.5649C152.776 61.4979 151.209 63.0649 149.276 63.0649Z" fill="#FFD0D8"/>
<path d="M173.423 81.5569H136.51C134.853 81.5569 133.51 80.2139 133.51 78.5569C133.51 76.8999 134.853 75.5569 136.51 75.5569H173.423C175.08 75.5569 176.423 76.8999 176.423 78.5569C176.423 80.2139 175.079 81.5569 173.423 81.5569Z" fill="#F43F5E"/>
<path d="M164.806 93.3489H153.828C152.447 93.3489 151.328 92.2299 151.328 90.8489C151.328 89.4679 152.447 88.3489 153.828 88.3489H164.806C166.187 88.3489 167.306 89.4679 167.306 90.8489C167.306 92.2299 166.187 93.3489 164.806 93.3489Z" fill="white"/>
<path d="M207.939 93.3489H177.873C176.492 93.3489 175.373 92.2299 175.373 90.8489C175.373 89.4679 176.492 88.3489 177.873 88.3489H207.939C209.32 88.3489 210.439 89.4679 210.439 90.8489C210.439 92.2299 209.32 93.3489 207.939 93.3489Z" fill="white"/>
<path d="M136.51 118.654H111.951C110.018 118.654 108.451 117.087 108.451 115.154C108.451 113.221 110.018 111.654 111.951 111.654H136.51C138.443 111.654 140.01 113.221 140.01 115.154C140.01 117.087 138.443 118.654 136.51 118.654Z" fill="#FFD0D8"/>
<path d="M223.505 197.525H218.191C216.258 197.525 214.691 195.958 214.691 194.025C214.691 192.092 216.258 190.525 218.191 190.525H223.505C225.438 190.525 227.005 192.092 227.005 194.025C227.005 195.958 225.437 197.525 223.505 197.525Z" fill="#FFB3C0"/>
<path d="M368.162 46.9519H336.71C335.329 46.9519 334.21 45.8329 334.21 44.4519C334.21 43.0709 335.329 41.9519 336.71 41.9519H368.162C369.543 41.9519 370.662 43.0709 370.662 44.4519C370.662 45.8329 369.543 46.9519 368.162 46.9519Z" fill="white"/>
<path d="M20.27 108.188H3.5C1.567 108.188 0 106.621 0 104.688C0 102.755 1.567 101.188 3.5 101.188H20.27C22.203 101.188 23.77 102.755 23.77 104.688C23.77 106.621 22.203 108.188 20.27 108.188Z" fill="white"/>
<path d="M79.1781 108.188H47.7261C45.7931 108.188 44.2261 106.621 44.2261 104.688C44.2261 102.755 45.7931 101.188 47.7261 101.188H79.1781C81.1111 101.188 82.6781 102.755 82.6781 104.688C82.6781 106.621 81.1111 108.188 79.1781 108.188Z" fill="white"/>
<path d="M74.9341 176.834H69.6201C68.2391 176.834 67.1201 175.715 67.1201 174.334C67.1201 172.953 68.2391 171.834 69.6201 171.834H74.9341C76.3151 171.834 77.4341 172.953 77.4341 174.334C77.4341 175.714 76.3151 176.834 74.9341 176.834Z" fill="#FFD0D8"/>
<path d="M51.865 176.834H5.06397C3.68297 176.834 2.56396 175.715 2.56396 174.334C2.56396 172.953 3.68297 171.834 5.06397 171.834H51.865C53.246 171.834 54.365 172.953 54.365 174.334C54.365 175.714 53.246 176.834 51.865 176.834Z" fill="#FFD0D8"/>
<path d="M181.568 230.136H146.913C144.98 230.136 143.413 228.569 143.413 226.636C143.413 224.703 144.98 223.136 146.913 223.136H181.568C183.501 223.136 185.068 224.703 185.068 226.636C185.068 228.569 183.501 230.136 181.568 230.136Z" fill="#F43F5E"/>
<path d="M204.65 197.525H187.815C185.882 197.525 184.315 195.958 184.315 194.025C184.315 192.092 185.882 190.525 187.815 190.525H204.65C206.583 190.525 208.15 192.092 208.15 194.025C208.15 195.958 206.583 197.525 204.65 197.525Z" fill="#FFB3C0"/>
<path d="M117.889 93.0979C116.185 87.7839 111.208 83.9349 105.328 83.9349C105.138 83.9349 104.954 83.9549 104.766 83.9629C102.958 77.2949 96.8801 72.3839 89.6401 72.3839C89.0621 72.3839 88.4921 72.4199 87.9301 72.4809C84.2811 64.6979 76.3801 59.3059 67.2151 59.3059C59.6131 59.3059 52.8811 63.0179 48.7231 68.7249C46.5801 67.9659 44.2761 67.5499 41.8731 67.5499C30.5391 67.5499 21.3511 76.7379 21.3511 88.0719C21.3511 89.8059 21.5681 91.4889 21.9731 93.0979H117.889Z" fill="white"/>
<path d="M105.328 83.9349C105.138 83.9349 104.954 83.9549 104.766 83.9629C102.958 77.2949 96.8799 72.3839 89.6399 72.3839C89.0619 72.3839 88.492 72.4199 87.93 72.4809C84.281 64.6979 76.38 59.3059 67.215 59.3059C62.286 59.3059 57.735 60.8829 54.002 63.5359C59.491 64.1589 64.193 67.3709 66.859 71.9219C73.886 74.1129 79.376 79.7779 81.312 86.9179C81.571 86.9069 81.826 86.8789 82.088 86.8789C87.549 86.8789 92.439 89.2899 95.775 93.0969H117.888C116.185 87.7839 111.208 83.9349 105.328 83.9349Z" fill="#FFC9D2"/>
<path d="M347.439 64.72C345.395 58.345 339.425 53.728 332.371 53.728C332.143 53.728 331.922 53.753 331.697 53.762C329.528 45.763 322.237 39.871 313.552 39.871C312.858 39.871 312.175 39.914 311.501 39.988C307.124 30.651 297.645 24.183 286.652 24.183C277.532 24.183 269.457 28.636 264.469 35.483C261.899 34.573 259.134 34.073 256.252 34.073C242.656 34.073 231.634 45.095 231.634 58.692C231.634 60.772 231.895 62.791 232.38 64.721L347.439 64.72Z" fill="#FFC9D2"/>
<path d="M332.371 53.729C332.143 53.729 331.922 53.754 331.697 53.763C329.528 45.764 322.237 39.872 313.552 39.872C312.858 39.872 312.175 39.915 311.501 39.989C307.124 30.652 297.645 24.184 286.652 24.184C281.445 24.184 276.581 25.641 272.435 28.161C272.447 28.161 272.46 28.16 272.472 28.16C285.501 28.16 296.734 35.826 301.922 46.892C302.721 46.805 303.531 46.754 304.353 46.754C314.647 46.754 323.287 53.737 325.858 63.217C326.125 63.206 326.387 63.177 326.657 63.177C329.307 63.177 331.826 63.73 334.111 64.722H347.439C345.395 58.345 339.425 53.729 332.371 53.729Z" fill="white"/>
<path d="M139.803 226.817C138.39 222.41 134.262 219.218 129.386 219.218C129.229 219.218 129.075 219.235 128.92 219.241C127.421 213.711 122.38 209.637 116.375 209.637C115.895 209.637 115.423 209.667 114.957 209.718C111.931 203.263 105.378 198.791 97.7768 198.791C91.4718 198.791 85.8888 201.87 82.4398 206.603C80.6628 205.974 78.7518 205.628 76.7588 205.628C67.3588 205.628 59.7378 213.248 59.7378 222.649C59.7378 224.087 59.9178 225.483 60.2538 226.817H139.803Z" fill="#FFC9D2"/>
<path d="M102.407 211.09C102.93 211.033 103.46 211 103.998 211C110.732 211 116.385 215.568 118.067 221.77C118.242 221.763 118.413 221.744 118.59 221.744C122.677 221.744 126.294 223.744 128.523 226.818H139.804C138.391 222.411 134.263 219.219 129.387 219.219C129.23 219.219 129.077 219.236 128.921 219.242C127.422 213.712 122.381 209.638 116.376 209.638C115.896 209.638 115.424 209.668 114.958 209.719C111.932 203.264 105.379 198.792 97.7779 198.792C95.2469 198.792 92.8369 199.295 90.6299 200.195C95.8299 202.153 100.062 206.09 102.407 211.09Z" fill="white"/>
<path d="M350.47 249.935C348.426 243.56 342.456 238.943 335.402 238.943C335.174 238.943 334.953 238.967 334.728 238.977C332.559 230.978 325.268 225.086 316.583 225.086C315.889 225.086 315.206 225.129 314.532 225.203C310.155 215.866 300.676 209.398 289.683 209.398C280.563 209.398 272.488 213.851 267.5 220.698C264.93 219.788 262.165 219.288 259.283 219.288C245.687 219.288 234.664 230.31 234.664 243.906C234.664 245.986 234.925 248.005 235.41 249.935H350.47Z" fill="white"/>
<path d="M277.82 212.541C291.175 212.541 302.386 221.6 305.721 233.9C306.067 233.885 306.408 233.848 306.758 233.848C317.298 233.848 326.248 240.561 329.63 249.936H350.47C348.426 243.561 342.456 238.944 335.402 238.944C335.174 238.944 334.953 238.968 334.728 238.978C332.559 230.979 325.268 225.087 316.583 225.087C315.889 225.087 315.206 225.13 314.532 225.204C310.155 215.867 300.676 209.399 289.683 209.399C285.059 209.399 280.705 210.548 276.884 212.57C277.196 212.558 277.506 212.541 277.82 212.541Z" fill="#FFC9D2"/>
<path d="M93.2338 59.5639C93.2338 61.5769 91.6018 63.2079 89.5898 63.2079C87.5768 63.2079 85.9458 61.5759 85.9458 59.5639C85.9458 57.5509 87.5778 55.9199 89.5898 55.9199C91.6028 55.9199 93.2338 57.5519 93.2338 59.5639Z" fill="#FFD0D8"/>
<path d="M379.016 44.4519C379.016 45.7089 377.997 46.7279 376.739 46.7279C375.482 46.7279 374.463 45.7089 374.463 44.4519C374.463 43.1949 375.482 42.1759 376.739 42.1759C377.997 42.1749 379.016 43.1939 379.016 44.4519Z" fill="white"/>
<path d="M375.12 174.88H362.731C360.798 174.88 359.231 173.313 359.231 171.38C359.231 169.447 360.798 167.88 362.731 167.88H375.12C377.053 167.88 378.62 169.447 378.62 171.38C378.62 173.313 377.052 174.88 375.12 174.88Z" fill="white"/>
<path d="M387.035 174.636C388.834 174.636 390.292 173.178 390.292 171.379C390.292 169.58 388.834 168.122 387.035 168.122C385.236 168.122 383.778 169.58 383.778 171.379C383.778 173.178 385.236 174.636 387.035 174.636Z" fill="white"/>
<path d="M204.566 226.507C204.566 228.297 203.115 229.749 201.325 229.749C199.535 229.749 198.084 228.298 198.084 226.507C198.084 224.717 199.535 223.266 201.325 223.266C203.115 223.266 204.566 224.717 204.566 226.507Z" fill="#F43F5E"/>
<path d="M144.417 144.601C144.417 146.062 143.233 147.247 141.771 147.247C140.31 147.247 139.125 146.062 139.125 144.601C139.125 143.14 140.31 141.955 141.771 141.955C143.233 141.955 144.417 143.14 144.417 144.601Z" fill="white"/>
<path d="M272.434 130.808H251.244C249.311 130.808 247.744 129.241 247.744 127.308C247.744 125.375 249.311 123.808 251.244 123.808H272.434C274.367 123.808 275.934 125.375 275.934 127.308C275.934 129.241 274.367 130.808 272.434 130.808Z" fill="#FFC9D2"/>
<path d="M239.28 130.808H233.78C231.847 130.808 230.28 129.241 230.28 127.308C230.28 125.375 231.847 123.808 233.78 123.808H239.28C241.213 123.808 242.78 125.375 242.78 127.308C242.78 129.241 241.213 130.808 239.28 130.808Z" fill="#FFC9D2"/>
<path d="M379.782 140.356C378.75 137.138 375.736 134.807 372.176 134.807C372.061 134.807 371.949 134.819 371.836 134.824C370.741 130.786 367.061 127.812 362.676 127.812C362.326 127.812 361.981 127.834 361.641 127.871C359.431 123.158 354.647 119.892 349.097 119.892C344.493 119.892 340.417 122.14 337.899 125.596C336.601 125.137 335.206 124.884 333.751 124.884C326.887 124.884 321.323 130.448 321.323 137.311C321.323 138.361 321.455 139.38 321.7 140.354H379.782V140.356Z" fill="white"/>
<path d="M354.925 129.963C355.367 129.915 355.815 129.887 356.27 129.887C361.965 129.887 366.747 133.75 368.169 138.996C368.317 138.99 368.462 138.974 368.611 138.974C370.492 138.974 372.252 139.482 373.772 140.357H379.782C378.75 137.139 375.736 134.808 372.176 134.808C372.061 134.808 371.949 134.82 371.836 134.825C370.741 130.787 367.061 127.813 362.676 127.813C362.326 127.813 361.981 127.835 361.641 127.872C359.431 123.159 354.647 119.893 349.097 119.893C347.534 119.893 346.034 120.158 344.632 120.635C349.181 122.247 352.893 125.629 354.925 129.963Z" fill="#FFC9D2"/>
</svg>
