<svg width="1216" height="197" viewBox="0 0 1216 197" fill="none" xmlns="http://www.w3.org/2000/svg">
<path d="M838.897 57.4641C838.897 57.4641 831.356 61.9521 831.989 64.3411C832.62 66.7321 841.711 69.9321 840.384 75.0891C839.055 80.2471 833.194 83.5051 833.194 83.5051L825.308 85.0971C825.308 85.0971 832.419 80.4011 834.118 75.6151C835.819 70.8261 826.047 67.9131 827.033 63.2681C828.02 58.6251 834.027 56.8201 834.027 56.8201L838.897 57.4641Z" fill="#00BEA9"/>
<path d="M348.453 145.452C348.453 145.452 339.805 146.94 339.54 149.397C339.273 151.856 346.614 158.1 343.527 162.44C340.438 166.779 333.799 167.721 333.799 167.721L325.866 166.382C325.866 166.382 334.188 164.545 337.489 160.686C340.793 156.824 332.713 150.603 335.298 146.62C337.883 142.639 344.137 143.106 344.137 143.106L348.453 145.452Z" fill="#00BEA9"/>
<path d="M940.931 66.8879C940.931 66.8879 936.408 64.1562 941.262 62.8447C946.339 61.4748 963.952 55.7503 947.994 42.5677L945.739 42.6151C945.739 42.6151 951.531 49.8757 949.041 53.7061C946.551 57.5365 936.937 59.8337 935.218 62.0296C933.5 64.2255 936.346 68.1762 936.346 68.1762L940.931 66.8879Z" fill="#FFDA3E"/>
<path d="M1185.72 137.091C1185.72 137.091 1179.1 142.621 1186.33 142.052C1193.55 141.482 1211.71 141.463 1189.15 161.509L1185.91 161.96C1185.91 161.96 1198.8 152.617 1195.09 148.413C1191.38 144.207 1180.2 146.783 1177.65 144.438C1175.1 142.091 1180.85 138.389 1180.85 138.389L1185.72 137.091Z" fill="#FFDA3E"/>
<path d="M1114.53 75.6061C1114.88 77.3371 1113.77 79.0231 1112.05 79.3701C1110.34 79.7181 1108.66 78.5941 1108.31 76.8621C1107.96 75.1301 1109.07 73.4441 1110.79 73.0971C1112.5 72.7511 1114.18 73.8741 1114.53 75.6061Z" fill="#F40F67"/>
<path d="M626.747 151.632C627.031 153.028 625.934 154.428 624.304 154.759C622.673 155.088 621.122 154.222 620.84 152.824C620.56 151.427 621.65 150.028 623.283 149.698C624.914 149.367 626.466 150.235 626.747 151.632Z" fill="#00BEA9"/>
<path d="M780.104 129.099L775.823 129.841C775.823 129.841 770.67 133.84 773.135 138.544C775.601 143.248 780.297 143.321 780.165 147.636C780.034 151.949 778.419 154.829 778.419 154.829L781.502 154.559C781.502 154.559 788.889 145.929 786.078 142.838C783.272 139.749 774.258 142.765 780.104 129.099Z" fill="#F40F67"/>
<path d="M6.40677 3.59846L3.21909 6.55077C3.21909 6.55077 1.07239 12.7101 5.70041 15.3149C10.3293 17.9192 14.3087 15.4248 16.5462 19.1167C18.7836 22.8063 18.9961 26.1014 18.9961 26.1014L21.4356 24.197C21.4356 24.197 22.9362 12.9368 18.8957 11.8734C14.8605 10.8091 8.93972 18.2449 6.40677 3.59846Z" fill="#F40F67"/>
<path d="M1188.55 88.6249C1188.55 88.6249 1182.56 90.4909 1182.1 93.0689C1181.64 95.6489 1185.88 101.923 1183.32 106.569C1180.75 111.216 1176.17 112.436 1176.17 112.436L1170.98 111.321C1170.98 111.321 1176.79 109.103 1179.45 104.947C1182.11 100.79 1177.37 94.5719 1179.56 90.3129C1181.75 86.0599 1185.91 86.3219 1185.91 86.3219L1188.55 88.6249Z" fill="#00BEA9"/>
<path d="M624.271 16.9349C624.271 16.9349 630.408 22.9979 623.252 21.8279C616.098 20.6579 598.007 19.1299 618.816 40.9819L622.013 41.7039C622.013 41.7039 609.939 31.3229 613.988 27.4389C618.037 23.5569 628.966 27.0539 631.702 24.9299C634.433 22.8039 629.011 18.6359 629.011 18.6359L624.271 16.9349Z" fill="#FFDA3E"/>
<path d="M925.346 81.8971C925.346 83.6631 926.767 85.0971 928.518 85.0971C930.271 85.0971 931.693 83.6631 931.693 81.8971C931.693 80.1301 930.272 78.6971 928.518 78.6971C926.767 78.6971 925.346 80.1291 925.346 81.8971Z" fill="#F40F67"/>
<path d="M878.137 190.822C877.485 193.047 878.7 195.36 880.851 195.991C883.001 196.621 885.272 195.33 885.924 193.105C886.576 190.88 885.363 188.567 883.212 187.936C881.061 187.305 878.789 188.597 878.137 190.822Z" fill="#FFDA3E"/>
<path d="M1209.08 53.5985C1209.08 55.8645 1210.5 57.7015 1212.27 57.7015C1214.03 57.7015 1215.46 55.8645 1215.46 53.5985C1215.46 51.3325 1214.03 49.4955 1212.27 49.4955C1210.5 49.4955 1209.08 51.3325 1209.08 53.5985Z" fill="#00BEA9"/>
<path d="M711.429 63.6178C711.429 62.4098 710.23 61.4298 708.753 61.4298C707.275 61.4298 706.078 62.4098 706.078 63.6178C706.078 64.8258 707.275 65.8058 708.753 65.8058C710.229 65.8068 711.429 64.8258 711.429 63.6178Z" fill="#FFDA3E"/>
<path d="M1030.96 169.603L1035.3 169.797C1035.3 169.797 1040.92 173.106 1039.07 178.085C1037.22 183.066 1032.58 183.734 1033.25 187.997C1033.93 192.261 1035.9 194.91 1035.9 194.91L1032.81 195.034C1032.81 195.034 1024.38 187.416 1026.78 183.992C1029.17 180.571 1038.49 182.417 1030.96 169.603Z" fill="#F40F67"/>
</svg>
