<svg width="435" height="429" viewBox="0 0 435 429" fill="none" xmlns="http://www.w3.org/2000/svg">
<rect width="267.924" height="70.8555" rx="20" transform="matrix(0.954358 0.298666 -0.254111 0.967175 18.0051 0)" fill="#F5F8FF"/>
<rect width="41.3219" height="41.3219" rx="14" transform="matrix(0.954358 0.298666 -0.254111 0.967175 25.7051 17.8661)" fill="#0E172A"/>
<path d="M44.8508 36.6342L40.4154 53.5158L37.3978 52.5715L41.0514 38.6656L40.9538 38.635L36.395 39.9381L37.1313 37.1355L41.9796 35.7357L44.8508 36.6342Z" fill="white"/>
<path d="M74.8052 63.2313L78.871 47.7565L84.3138 49.4599C85.4968 49.8301 86.4243 50.3438 87.0961 51.0011C87.773 51.66 88.2093 52.4153 88.4051 53.267C88.6022 54.1137 88.5757 55.0131 88.3256 55.9652C88.0767 56.9122 87.6614 57.6845 87.0794 58.2819C86.5038 58.8759 85.771 59.249 84.8811 59.4011C83.9961 59.5549 82.9622 59.4466 81.7792 59.0764L77.656 57.7861L78.1841 55.7762L82.0985 57.0012C82.8441 57.2345 83.4789 57.316 84.0031 57.2456C84.5322 57.1767 84.9604 56.97 85.2876 56.6254C85.6148 56.2808 85.8546 55.8188 86.0068 55.2395C86.1603 54.6552 86.1815 54.1139 86.0703 53.6158C85.9641 53.1191 85.7046 52.6836 85.292 52.3091C84.8856 51.9312 84.3022 51.6232 83.5417 51.3852L80.6488 50.4799L77.1091 63.9523L74.8052 63.2313ZM84.1775 58.6085L86.1159 66.771L83.4914 65.9497L81.6276 57.8105L84.1775 58.6085ZM92.4696 69.0129C91.3413 68.6598 90.4337 68.1114 89.7469 67.3676C89.0664 66.6204 88.6221 65.7318 88.414 64.7017C88.2121 63.6682 88.2694 62.5494 88.5857 61.3455C88.898 60.1567 89.392 59.1774 90.0677 58.4075C90.7483 57.6392 91.5506 57.1244 92.4746 56.8629C93.4036 56.6031 94.3999 56.6396 95.4636 56.9724C96.1098 57.1747 96.7076 57.479 97.2572 57.8854C97.8067 58.2917 98.2616 58.8021 98.622 59.4164C98.9824 60.0307 99.2045 60.7517 99.2883 61.5793C99.3734 62.4019 99.2777 63.3396 99.001 64.3924L98.7906 65.1933L89.6869 62.3443L90.1316 60.6518L97.0507 62.8171C97.2069 62.2227 97.2259 61.659 97.1078 61.1259C96.9909 60.5878 96.7514 60.1176 96.3891 59.7153C96.0317 59.3145 95.5648 59.0239 94.9882 58.8435C94.3619 58.6475 93.7741 58.6325 93.2248 58.7986C92.6818 58.9612 92.218 59.2522 91.8335 59.6716C91.4553 60.0875 91.1901 60.585 91.0379 61.1643L90.6904 62.4867C90.4866 63.2624 90.4474 63.9643 90.5729 64.5923C90.7034 65.2219 90.9744 65.7565 91.3861 66.1961C91.7991 66.6306 92.3312 66.9498 92.9823 67.1536C93.4048 67.2858 93.806 67.3459 94.1857 67.3339C94.5667 67.3168 94.9164 67.2246 95.2347 67.0571C95.5531 66.8896 95.827 66.6455 96.0565 66.3248L98.0653 67.3705C97.7308 67.9473 97.2827 68.404 96.7209 68.7406C96.1654 69.0737 95.5251 69.2686 94.8002 69.3252C94.0815 69.3783 93.3047 69.2742 92.4696 69.0129ZM103.093 77.0557C102.183 76.7711 101.432 76.4052 100.839 75.9581C100.252 75.5125 99.804 75.0262 99.496 74.4991C99.188 73.972 98.9943 73.4399 98.9149 72.9026L101.042 72.7013C101.118 72.9649 101.235 73.2552 101.394 73.572C101.556 73.8954 101.808 74.206 102.15 74.5036C102.496 74.8028 102.977 75.0488 103.594 75.2417C104.439 75.5062 105.192 75.5157 105.853 75.2702C106.514 75.0299 106.963 74.4563 107.201 73.5496L107.801 71.2676L107.659 71.2233C107.46 71.4281 107.194 71.642 106.861 71.8649C106.533 72.0894 106.121 72.244 105.626 72.3287C105.13 72.4135 104.532 72.3462 103.831 72.1269C102.926 71.8438 102.167 71.3746 101.554 70.7193C100.947 70.0605 100.543 69.2444 100.342 68.2709C100.146 67.294 100.211 66.1884 100.535 64.9543C100.859 63.7201 101.344 62.7268 101.988 61.9744C102.637 61.2235 103.386 60.7274 104.235 60.486C105.085 60.2396 105.97 60.2603 106.889 60.5481C107.6 60.7706 108.142 61.0711 108.516 61.4498C108.892 61.8234 109.159 62.2071 109.319 62.6006C109.485 62.9958 109.602 63.3352 109.673 63.619L109.837 63.6704L110.332 61.7889L112.516 62.4726L109.399 74.3356C109.137 75.333 108.694 76.08 108.068 76.5766C107.443 77.0733 106.699 77.3531 105.838 77.4162C104.982 77.4808 104.067 77.3606 103.093 77.0557ZM104.815 70.407C105.457 70.6076 106.038 70.6261 106.56 70.4623C107.088 70.295 107.541 69.9625 107.919 69.4649C108.304 68.9637 108.601 68.3127 108.812 67.5117C109.017 66.7309 109.083 66.0075 109.011 65.3416C108.938 64.6756 108.725 64.1072 108.37 63.6363C108.016 63.1603 107.513 62.8205 106.862 62.6167C106.191 62.4067 105.586 62.408 105.046 62.6206C104.507 62.8282 104.045 63.1959 103.658 63.7238C103.277 64.2533 102.989 64.8882 102.795 65.6287C102.595 66.3894 102.534 67.0926 102.612 67.7384C102.69 68.3842 102.91 68.9383 103.272 69.4007C103.64 69.8647 104.154 70.2001 104.815 70.407ZM112.037 74.8829L115.086 63.2768L117.315 63.9745L114.266 75.5806L112.037 74.8829ZM116.682 61.8384C116.295 61.717 115.996 61.4818 115.786 61.1328C115.583 60.7802 115.53 60.4201 115.627 60.0524C115.724 59.6796 115.945 59.405 116.287 59.2287C116.635 59.0488 117.003 59.0195 117.391 59.1408C117.779 59.2622 118.074 59.4991 118.277 59.8517C118.487 60.2007 118.543 60.5616 118.445 60.9344C118.348 61.3021 118.126 61.5759 117.777 61.7558C117.435 61.9322 117.07 61.9597 116.682 61.8384ZM127.732 70.3008L125.616 70.0312C125.6 69.7428 125.532 69.4514 125.41 69.1571C125.293 68.8644 125.101 68.5942 124.832 68.3467C124.564 68.0991 124.198 67.903 123.736 67.7583C123.105 67.5608 122.54 67.5394 122.042 67.6943C121.546 67.8442 121.238 68.1433 121.121 68.5916C121.019 68.9795 121.078 69.3362 121.299 69.6616C121.521 69.987 121.927 70.3241 122.518 70.6727L124.226 71.6652C125.215 72.2418 125.901 72.8679 126.283 73.5435C126.665 74.2191 126.748 74.9674 126.532 75.7885C126.349 76.4837 125.988 77.0411 125.447 77.4606C124.913 77.8768 124.253 78.128 123.466 78.2144C122.684 78.3023 121.831 78.2016 120.907 77.9123C119.624 77.511 118.651 76.9065 117.986 76.0988C117.323 75.2861 117.034 74.3372 117.12 73.252L119.363 73.5939C119.347 74.2051 119.51 74.7221 119.851 75.1449C120.193 75.5627 120.699 75.8766 121.37 76.0866C122.101 76.3153 122.725 76.3444 123.244 76.1741C123.763 75.9986 124.082 75.6867 124.199 75.2384C124.295 74.8757 124.241 74.529 124.037 74.1981C123.838 73.8689 123.482 73.5557 122.969 73.2587L121.143 72.2213C120.139 71.64 119.452 70.9998 119.082 70.3006C118.717 69.6029 118.642 68.841 118.859 68.0149C119.039 67.3298 119.386 66.7894 119.899 66.3939C120.411 65.9983 121.039 65.7611 121.78 65.6824C122.523 65.5987 123.324 65.6914 124.184 65.9605C125.422 66.3479 126.325 66.9248 126.892 67.6912C127.462 68.4527 127.741 69.3225 127.732 70.3008ZM136.077 69.846L135.601 71.6594L129.345 69.7018L129.822 67.8883L136.077 69.846ZM132.23 65.6327L134.459 66.3303L131.574 77.3093C131.459 77.7475 131.437 78.0977 131.508 78.3598C131.581 78.6169 131.708 78.8176 131.891 78.9619C132.08 79.1028 132.296 79.2114 132.539 79.2876C132.718 79.3436 132.878 79.38 133.019 79.3968C133.16 79.4136 133.27 79.4262 133.348 79.4344L133.26 81.4267C133.118 81.4367 132.921 81.4295 132.669 81.4052C132.416 81.3859 132.11 81.3228 131.75 81.2159C131.161 81.0424 130.642 80.7655 130.193 80.3852C129.745 80.0049 129.425 79.534 129.233 78.9726C129.042 78.4111 129.038 77.7803 129.222 77.0801L132.23 65.6327ZM139.825 83.8328C138.697 83.4797 137.789 82.9313 137.102 82.1875C136.422 81.4403 135.978 80.5517 135.77 79.5216C135.568 78.4881 135.625 77.3694 135.941 76.1654C136.254 74.9766 136.748 73.9973 137.423 73.2274C138.104 72.4592 138.906 71.9443 139.83 71.6828C140.759 71.423 141.755 71.4595 142.819 71.7924C143.465 71.9946 144.063 72.2989 144.613 72.7053C145.162 73.1116 145.617 73.622 145.978 74.2363C146.338 74.8507 146.56 75.5716 146.644 76.3992C146.729 77.2218 146.633 78.1595 146.357 79.2123L146.146 80.0132L137.042 77.1642L137.487 75.4717L144.406 77.637C144.562 77.0426 144.581 76.4789 144.463 75.9458C144.346 75.4077 144.107 74.9375 143.745 74.5352C143.387 74.1344 142.92 73.8438 142.344 73.6634C141.717 73.4674 141.13 73.4524 140.58 73.6185C140.037 73.7811 139.574 74.0721 139.189 74.4915C138.811 74.9074 138.546 75.405 138.393 75.9842L138.046 77.3066C137.842 78.0823 137.803 78.7842 137.928 79.4122C138.059 80.0418 138.33 80.5764 138.742 81.016C139.155 81.4505 139.687 81.7697 140.338 81.9735C140.76 82.1057 141.161 82.1658 141.541 82.1538C141.922 82.1367 142.272 82.0445 142.59 81.877C142.909 81.7095 143.183 81.4654 143.412 81.1447L145.421 82.1904C145.086 82.7672 144.638 83.2239 144.076 83.5605C143.521 83.8936 142.881 84.0885 142.156 84.1451C141.437 84.1982 140.66 84.0941 139.825 83.8328ZM146.854 85.7789L149.903 74.1728L152.058 74.8471L151.573 76.6908L151.693 76.7281C152.066 76.1688 152.562 75.7928 153.183 75.6C153.81 75.4038 154.46 75.4107 155.131 75.6207C155.27 75.6642 155.432 75.7206 155.619 75.7898C155.81 75.8605 155.958 75.9206 156.064 75.9699L155.496 78.1309C155.413 78.0777 155.261 78.0003 155.04 77.8985C154.821 77.7917 154.597 77.7025 154.368 77.6309C153.842 77.466 153.342 77.4324 152.87 77.5299C152.404 77.624 152 77.8327 151.656 78.156C151.315 78.4743 151.078 78.8853 150.945 79.389L149.083 86.4766L146.854 85.7789ZM159.807 89.8327L163.873 74.3579L169.316 76.0613C170.504 76.433 171.431 76.9602 172.096 77.6426C172.761 78.3251 173.188 79.1073 173.375 79.9893C173.565 80.8663 173.535 81.7782 173.286 82.7253C173.036 83.6773 172.614 84.4722 172.022 85.11C171.436 85.7443 170.692 86.1602 169.79 86.3577C168.894 86.5517 167.855 86.4636 166.672 86.0934L162.929 84.922L163.449 82.9424L166.983 84.0484C167.734 84.2832 168.377 84.3428 168.913 84.2271C169.451 84.1063 169.889 83.851 170.228 83.461C170.567 83.0711 170.814 82.5839 170.967 81.9996C171.121 81.4153 171.148 80.8622 171.048 80.3404C170.948 79.8186 170.696 79.3553 170.292 78.9506C169.892 78.5475 169.309 78.2262 168.544 77.9866L165.651 77.0813L162.111 90.5537L159.807 89.8327ZM172.638 93.8482L175.688 82.2421L177.843 82.9165L177.358 84.7601L177.477 84.7975C177.85 84.2382 178.347 83.8621 178.968 83.6694C179.595 83.4731 180.244 83.48 180.915 83.69C181.054 83.7336 181.217 83.7899 181.403 83.8591C181.595 83.9299 181.743 83.9899 181.848 84.0392L181.281 86.2003C181.198 86.1471 181.046 86.0696 180.825 85.9678C180.606 85.861 180.382 85.7718 180.153 85.7003C179.626 85.5354 179.127 85.5017 178.655 85.5993C178.189 85.6934 177.784 85.9021 177.441 86.2253C177.099 86.5436 176.862 86.9546 176.73 87.4583L174.868 94.5459L172.638 93.8482ZM184.629 97.8541C183.555 97.5181 182.684 96.9756 182.015 96.2264C181.345 95.4773 180.907 94.5852 180.7 93.5501C180.494 92.515 180.548 91.398 180.863 90.1991C181.179 88.9951 181.677 88.0116 182.356 87.2483C183.035 86.4851 183.841 85.9793 184.772 85.7311C185.703 85.4828 186.706 85.5267 187.779 85.8627C188.853 86.1987 189.725 86.7412 190.394 87.4904C191.063 88.2395 191.5 89.1342 191.706 90.1743C191.911 91.2144 191.856 92.3365 191.54 93.5404C191.225 94.7393 190.728 95.7178 190.05 96.4761C189.372 97.2343 188.568 97.7375 187.636 97.9857C186.705 98.234 185.703 98.1901 184.629 97.8541ZM185.135 95.9599C185.831 96.1777 186.456 96.1717 187.011 95.9421C187.567 95.7124 188.035 95.322 188.416 94.7709C188.803 94.2213 189.094 93.5737 189.29 92.8282C189.484 92.0877 189.551 91.3726 189.49 90.683C189.436 89.99 189.23 89.383 188.871 88.8621C188.513 88.3411 187.987 87.9718 187.291 87.754C186.59 87.5347 185.959 87.5416 185.397 87.7747C184.84 88.0094 184.368 88.4041 183.981 88.9587C183.599 89.5099 183.311 90.1557 183.116 90.8962C182.921 91.6417 182.851 92.3585 182.906 93.0465C182.967 93.7361 183.178 94.3389 183.537 94.8547C183.901 95.3722 184.434 95.7406 185.135 95.9599ZM200.597 90.0375L200.121 91.8509L193.649 89.8256L194.125 88.0121L200.597 90.0375ZM192.85 100.174L196.253 87.2225C196.444 86.4971 196.758 85.9441 197.197 85.5636C197.638 85.178 198.147 84.9477 198.726 84.8727C199.307 84.7927 199.9 84.8476 200.507 85.0374C200.954 85.1774 201.327 85.3349 201.625 85.51C201.925 85.6801 202.144 85.8195 202.282 85.9282L201.279 87.5934C201.183 87.5305 201.058 87.4533 200.905 87.3616C200.753 87.265 200.56 87.1801 200.326 87.1069C199.784 86.9374 199.361 86.9521 199.056 87.151C198.756 87.3514 198.538 87.7086 198.403 88.2224L195.08 100.871L192.85 100.174ZM199.428 102.232L202.477 90.6259L204.707 91.3235L201.657 102.93L199.428 102.232ZM204.074 89.1874C203.686 89.0661 203.387 88.8309 203.178 88.4818C202.974 88.1293 202.921 87.7692 203.018 87.4014C203.116 87.0287 203.336 86.7541 203.678 86.5777C204.026 86.3978 204.395 86.3686 204.782 86.4899C205.17 86.6112 205.465 86.8482 205.669 87.2007C205.878 87.5498 205.934 87.9107 205.836 88.2834C205.739 88.6512 205.517 88.925 205.168 89.1048C204.826 89.2812 204.461 89.3088 204.074 89.1874ZM210.532 88.9597L206.466 104.434L204.236 103.737L208.302 88.262L210.532 88.9597ZM213.919 107.021C212.791 106.667 211.883 106.119 211.197 105.375C210.516 104.628 210.072 103.739 209.864 102.709C209.662 101.676 209.719 100.557 210.035 99.3532C210.348 98.1643 210.842 97.185 211.517 96.4152C212.198 95.6469 213 95.132 213.924 94.8706C214.853 94.6107 215.85 94.6472 216.913 94.9801C217.559 95.1823 218.157 95.4866 218.707 95.893C219.256 96.2994 219.711 96.8097 220.072 97.4241C220.432 98.0384 220.654 98.7594 220.738 99.587C220.823 100.41 220.727 101.347 220.451 102.4L220.24 103.201L211.137 100.352L211.581 98.6594L218.5 100.825C218.657 100.23 218.676 99.6666 218.557 99.1335C218.441 98.5954 218.201 98.1252 217.839 97.7229C217.481 97.3221 217.014 97.0315 216.438 96.8511C215.812 96.6551 215.224 96.6401 214.674 96.8062C214.131 96.9689 213.668 97.2598 213.283 97.6792C212.905 98.0951 212.64 98.5927 212.487 99.172L212.14 100.494C211.936 101.27 211.897 101.972 212.023 102.6C212.153 103.23 212.424 103.764 212.836 104.204C213.249 104.638 213.781 104.957 214.432 105.161C214.854 105.293 215.256 105.354 215.635 105.342C216.016 105.324 216.366 105.232 216.684 105.065C217.003 104.897 217.277 104.653 217.506 104.332L219.515 105.378C219.18 105.955 218.732 106.412 218.171 106.748C217.615 107.081 216.975 107.276 216.25 107.333C215.531 107.386 214.754 107.282 213.919 107.021Z" fill="black"/>
<rect width="267.924" height="70.8555" rx="20" transform="matrix(0.954358 -0.298666 0.254111 0.967175 160.374 207.369)" fill="#FAF5FF"/>
<rect width="41.3219" height="41.3219" rx="14" transform="matrix(0.954358 -0.298666 0.254111 0.967175 175.578 218.067)" fill="#0E172A"/>
<path d="M197.156 242.361L196.576 240.152L200.849 232.596C201.254 231.857 201.582 231.21 201.836 230.655C202.089 230.1 202.254 229.588 202.33 229.118C202.406 228.648 202.382 228.18 202.26 227.712C202.12 227.179 201.88 226.761 201.542 226.456C201.203 226.146 200.797 225.952 200.324 225.874C199.852 225.796 199.35 225.84 198.818 226.006C198.271 226.177 197.821 226.443 197.47 226.803C197.117 227.157 196.881 227.579 196.763 228.068C196.651 228.555 196.67 229.087 196.822 229.664L193.951 230.563C193.669 229.491 193.666 228.484 193.94 227.542C194.215 226.599 194.718 225.779 195.45 225.08C196.188 224.379 197.107 223.857 198.207 223.512C199.324 223.163 200.361 223.067 201.318 223.225C202.276 223.384 203.084 223.758 203.744 224.349C204.409 224.937 204.866 225.704 205.114 226.65C205.28 227.282 205.324 227.94 205.246 228.625C205.167 229.309 204.925 230.117 204.518 231.047C204.116 231.975 203.514 233.136 202.713 234.529L200.619 238.387L200.649 238.502L207.904 236.232L208.576 238.787L197.156 242.361Z" fill="white"/>
<path d="M244.575 214.126C244.308 213.436 243.834 212.984 243.154 212.772C242.473 212.554 241.695 212.583 240.82 212.856C240.194 213.052 239.679 213.323 239.274 213.667C238.869 214.007 238.585 214.39 238.423 214.817C238.264 215.237 238.242 215.667 238.358 216.105C238.454 216.473 238.622 216.764 238.861 216.978C239.105 217.19 239.39 217.344 239.716 217.438C240.046 217.525 240.388 217.579 240.743 217.599C241.097 217.614 241.432 217.612 241.751 217.594L243.345 217.521C243.864 217.489 244.406 217.496 244.973 217.543C245.539 217.589 246.085 217.713 246.611 217.913C247.137 218.114 247.6 218.421 247.999 218.836C248.404 219.249 248.697 219.803 248.88 220.499C249.11 221.375 249.091 222.223 248.822 223.043C248.559 223.862 248.056 224.6 247.314 225.257C246.577 225.913 245.612 226.428 244.42 226.801C243.276 227.159 242.239 227.284 241.307 227.178C240.375 227.072 239.585 226.755 238.935 226.227C238.284 225.695 237.812 224.971 237.517 224.055L239.829 223.331C240.02 223.876 240.322 224.286 240.733 224.561C241.147 224.829 241.625 224.977 242.164 225.004C242.708 225.025 243.275 224.943 243.867 224.758C244.518 224.554 245.07 224.27 245.522 223.904C245.979 223.533 246.305 223.114 246.5 222.65C246.694 222.18 246.725 221.694 246.593 221.19C246.472 220.731 246.244 220.397 245.909 220.185C245.579 219.973 245.17 219.839 244.682 219.784C244.199 219.728 243.665 219.713 243.08 219.738L241.145 219.804C239.833 219.849 238.734 219.656 237.846 219.225C236.963 218.793 236.38 218.038 236.097 216.96C235.863 216.068 235.897 215.215 236.199 214.401C236.502 213.586 237.012 212.868 237.731 212.245C238.448 211.617 239.319 211.143 240.343 210.823C241.376 210.499 242.337 210.397 243.224 210.518C244.116 210.637 244.875 210.947 245.502 211.449C246.127 211.945 246.559 212.606 246.797 213.431L244.575 214.126ZM252.577 216.512L254.387 223.403L252.158 224.101L248.092 208.626L250.292 207.938L251.804 213.696L251.946 213.651C252.05 212.943 252.33 212.318 252.785 211.778C253.24 211.237 253.913 210.828 254.802 210.55C255.588 210.304 256.317 210.253 256.989 210.397C257.667 210.539 258.253 210.885 258.746 211.433C259.244 211.975 259.62 212.73 259.874 213.697L261.813 221.079L259.584 221.777L257.716 214.667C257.492 213.816 257.103 213.223 256.547 212.89C255.99 212.552 255.327 212.503 254.556 212.745C254.029 212.909 253.587 213.171 253.229 213.528C252.876 213.884 252.638 214.318 252.514 214.831C252.394 215.337 252.415 215.898 252.577 216.512ZM267.769 219.494C267.043 219.721 266.351 219.79 265.693 219.702C265.034 219.608 264.464 219.353 263.983 218.937C263.507 218.519 263.17 217.929 262.97 217.169C262.798 216.514 262.78 215.936 262.918 215.435C263.055 214.934 263.303 214.494 263.66 214.115C264.018 213.736 264.441 213.402 264.93 213.112C265.419 212.823 265.926 212.561 266.45 212.326C267.115 212.031 267.654 211.791 268.069 211.607C268.482 211.418 268.769 211.232 268.931 211.051C269.093 210.869 269.139 210.642 269.067 210.37L269.053 210.317C268.88 209.658 268.562 209.204 268.098 208.956C267.64 208.707 267.051 208.695 266.33 208.921C265.58 209.156 265.032 209.51 264.689 209.982C264.349 210.449 264.15 210.912 264.093 211.371L261.871 211.543C261.934 210.76 262.148 210.077 262.511 209.495C262.878 208.905 263.349 208.415 263.924 208.022C264.497 207.625 265.129 207.318 265.82 207.102C266.277 206.959 266.776 206.862 267.317 206.813C267.862 206.757 268.396 206.802 268.919 206.95C269.447 207.095 269.925 207.39 270.353 207.834C270.781 208.272 271.105 208.915 271.328 209.761L273.353 217.468L271.176 218.15L270.759 216.563L270.669 216.591C270.602 216.928 270.461 217.283 270.247 217.655C270.033 218.027 269.724 218.378 269.321 218.706C268.917 219.033 268.4 219.296 267.769 219.494ZM267.777 217.529C268.393 217.336 268.888 217.047 269.26 216.664C269.638 216.278 269.888 215.851 270.013 215.382C270.14 214.905 270.144 214.438 270.024 213.98L269.63 212.484C269.572 212.589 269.438 212.713 269.228 212.855C269.021 212.991 268.781 213.129 268.505 213.269C268.229 213.405 267.959 213.535 267.697 213.661C267.433 213.782 267.212 213.884 267.035 213.967C266.617 214.157 266.246 214.374 265.923 214.617C265.604 214.859 265.37 215.136 265.221 215.45C265.076 215.757 265.057 216.112 265.162 216.515C265.309 217.074 265.624 217.434 266.107 217.593C266.589 217.748 267.145 217.726 267.777 217.529ZM275.902 216.67L272.853 205.064L275.008 204.39L275.492 206.234L275.611 206.196C275.656 205.506 275.895 204.9 276.328 204.378C276.764 203.848 277.318 203.479 277.989 203.269C278.128 203.225 278.293 203.179 278.485 203.13C278.682 203.079 278.836 203.044 278.95 203.025L279.518 205.186C279.421 205.189 279.255 205.211 279.019 205.253C278.781 205.289 278.547 205.343 278.319 205.414C277.792 205.579 277.352 205.84 276.999 206.195C276.649 206.545 276.408 206.956 276.274 207.428C276.138 207.896 276.137 208.381 276.269 208.885L278.131 215.973L275.902 216.67ZM288.127 213.098C286.999 213.451 285.963 213.511 285.02 213.277C284.08 213.037 283.271 212.541 282.595 211.787C281.922 211.028 281.427 210.046 281.111 208.842C280.798 207.653 280.742 206.537 280.941 205.493C281.145 204.448 281.576 203.547 282.232 202.791C282.894 202.034 283.757 201.488 284.82 201.155C285.466 200.953 286.121 200.866 286.785 200.892C287.448 200.919 288.081 201.089 288.685 201.401C289.289 201.714 289.828 202.197 290.301 202.85C290.772 203.499 291.146 204.349 291.423 205.402L291.633 206.203L282.53 209.052L282.085 207.359L289.004 205.194C288.848 204.6 288.59 204.111 288.231 203.727C287.871 203.338 287.439 203.078 286.937 202.946C286.439 202.813 285.902 202.837 285.326 203.017C284.699 203.213 284.194 203.54 283.808 203.999C283.427 204.451 283.175 204.966 283.052 205.544C282.933 206.115 282.95 206.691 283.102 207.27L283.45 208.592C283.654 209.368 283.961 209.986 284.373 210.446C284.789 210.905 285.278 211.201 285.841 211.336C286.402 211.465 287.008 211.428 287.659 211.225C288.082 211.092 288.451 210.911 288.767 210.682C289.082 210.447 289.334 210.166 289.523 209.84C289.711 209.514 289.825 209.149 289.864 208.744L292.075 208.469C292.072 209.151 291.913 209.798 291.6 210.408C291.291 211.012 290.843 211.548 290.256 212.015C289.672 212.476 288.962 212.837 288.127 213.098ZM298.333 192.903L302.399 208.378L300.17 209.076L296.104 193.601L298.333 192.903ZM309.864 206.296C308.79 206.632 307.787 206.675 306.856 206.427C305.925 206.179 305.12 205.676 304.442 204.918C303.764 204.159 303.268 203.181 302.953 201.982C302.637 200.778 302.581 199.656 302.787 198.616C302.992 197.576 303.429 196.681 304.099 195.932C304.768 195.183 305.639 194.64 306.713 194.304C307.787 193.968 308.789 193.924 309.72 194.173C310.652 194.421 311.457 194.927 312.136 195.69C312.816 196.453 313.313 197.437 313.63 198.641C313.945 199.839 313.999 200.956 313.792 201.992C313.585 203.027 313.147 203.919 312.478 204.668C311.809 205.417 310.937 205.96 309.864 206.296ZM309.373 204.397C310.069 204.179 310.596 203.812 310.956 203.296C311.315 202.78 311.523 202.178 311.579 201.49C311.639 200.801 311.572 200.083 311.376 199.338C311.181 198.597 310.891 197.952 310.505 197.403C310.122 196.846 309.652 196.451 309.095 196.216C308.539 195.982 307.913 195.973 307.217 196.191C306.516 196.41 305.984 196.781 305.621 197.304C305.263 197.824 305.054 198.432 304.995 199.127C304.939 199.815 305.008 200.529 305.203 201.27C305.398 202.015 305.687 202.664 306.069 203.215C306.455 203.764 306.926 204.154 307.481 204.384C308.041 204.612 308.672 204.616 309.373 204.397ZM322.095 202.468C320.986 202.815 319.965 202.859 319.031 202.601C318.101 202.336 317.303 201.819 316.639 201.052C315.975 200.284 315.489 199.318 315.184 198.154C314.874 196.975 314.819 195.867 315.02 194.828C315.219 193.785 315.65 192.884 316.311 192.126C316.973 191.369 317.843 190.821 318.922 190.483C319.791 190.211 320.61 190.132 321.377 190.247C322.143 190.356 322.811 190.637 323.382 191.091C323.958 191.543 324.388 192.147 324.673 192.903L322.503 193.582C322.241 193.075 321.845 192.692 321.314 192.433C320.788 192.173 320.17 192.154 319.459 192.376C318.838 192.57 318.337 192.907 317.957 193.386C317.581 193.858 317.344 194.439 317.245 195.129C317.146 195.815 317.205 196.571 317.422 197.397C317.644 198.243 317.963 198.934 318.378 199.469C318.792 200.004 319.275 200.368 319.826 200.561C320.382 200.752 320.976 200.749 321.607 200.552C322.03 200.419 322.392 200.222 322.694 199.958C322.999 199.688 323.23 199.368 323.386 198.997C323.546 198.626 323.619 198.216 323.603 197.768L325.773 197.089C325.89 197.865 325.825 198.61 325.578 199.325C325.33 200.041 324.912 200.673 324.325 201.222C323.743 201.77 322.999 202.185 322.095 202.468ZM332.102 199.361C331.376 199.588 330.684 199.657 330.026 199.569C329.367 199.475 328.797 199.22 328.317 198.804C327.841 198.385 327.503 197.796 327.303 197.035C327.131 196.381 327.114 195.803 327.251 195.302C327.389 194.801 327.636 194.361 327.994 193.982C328.351 193.603 328.775 193.269 329.264 192.979C329.752 192.69 330.259 192.428 330.784 192.193C331.448 191.898 331.988 191.658 332.402 191.474C332.815 191.285 333.103 191.099 333.265 190.918C333.427 190.736 333.472 190.509 333.401 190.237L333.387 190.184C333.213 189.524 332.895 189.071 332.432 188.823C331.974 188.574 331.384 188.562 330.664 188.788C329.913 189.023 329.366 189.376 329.022 189.849C328.682 190.316 328.484 190.778 328.427 191.238L326.205 191.41C326.268 190.627 326.481 189.944 326.844 189.361C327.211 188.772 327.682 188.282 328.257 187.889C328.83 187.492 329.462 187.185 330.153 186.969C330.611 186.825 331.11 186.729 331.651 186.68C332.196 186.624 332.729 186.669 333.252 186.816C333.78 186.962 334.258 187.257 334.687 187.7C335.114 188.139 335.439 188.782 335.661 189.628L337.686 197.335L335.509 198.016L335.092 196.43L335.003 196.458C334.935 196.795 334.794 197.15 334.58 197.522C334.366 197.894 334.057 198.244 333.654 198.572C333.251 198.9 332.733 199.163 332.102 199.361ZM332.11 197.396C332.727 197.203 333.221 196.914 333.594 196.531C333.971 196.145 334.222 195.718 334.346 195.248C334.474 194.772 334.477 194.305 334.357 193.847L333.964 192.351C333.906 192.456 333.771 192.58 333.561 192.722C333.355 192.857 333.114 192.995 332.839 193.136C332.563 193.272 332.293 193.402 332.03 193.528C331.766 193.649 331.545 193.751 331.368 193.833C330.95 194.024 330.579 194.241 330.256 194.484C329.937 194.725 329.704 195.003 329.555 195.317C329.41 195.624 329.39 195.979 329.496 196.382C329.643 196.941 329.958 197.3 330.441 197.46C330.922 197.615 331.479 197.593 332.11 197.396ZM342.532 183.258L343.009 185.072L336.753 187.029L336.277 185.216L342.532 183.258ZM337.224 181.91L339.453 181.212L342.337 192.191C342.453 192.63 342.604 192.939 342.791 193.121C342.978 193.297 343.183 193.393 343.408 193.41C343.637 193.42 343.873 193.387 344.116 193.311C344.295 193.255 344.449 193.194 344.576 193.126C344.704 193.059 344.803 193.006 344.873 192.968L345.766 194.708C345.65 194.799 345.48 194.907 345.254 195.032C345.03 195.162 344.74 195.286 344.383 195.403C343.8 195.596 343.225 195.662 342.66 195.599C342.095 195.536 341.594 195.321 341.16 194.956C340.725 194.591 340.415 194.058 340.231 193.358L337.224 181.91ZM347.628 194.224L344.578 182.618L346.808 181.92L349.857 193.526L347.628 194.224ZM345.234 180.475C344.846 180.596 344.478 180.569 344.131 180.394C343.788 180.213 343.568 179.938 343.471 179.571C343.373 179.198 343.426 178.838 343.631 178.49C343.839 178.136 344.137 177.898 344.525 177.777C344.913 177.656 345.278 177.686 345.622 177.867C345.969 178.042 346.191 178.316 346.289 178.689C346.386 179.056 346.33 179.417 346.122 179.771C345.917 180.119 345.621 180.353 345.234 180.475ZM357.322 191.444C356.248 191.78 355.246 191.824 354.314 191.575C353.383 191.327 352.578 190.824 351.9 190.066C351.222 189.307 350.726 188.329 350.411 187.13C350.095 185.926 350.039 184.804 350.245 183.764C350.45 182.724 350.887 181.829 351.557 181.08C352.226 180.331 353.097 179.788 354.171 179.452C355.245 179.116 356.247 179.072 357.178 179.321C358.11 179.569 358.915 180.075 359.594 180.838C360.274 181.601 360.771 182.585 361.088 183.789C361.403 184.987 361.457 186.104 361.25 187.14C361.043 188.175 360.605 189.067 359.936 189.816C359.267 190.565 358.395 191.108 357.322 191.444ZM356.831 189.545C357.527 189.327 358.054 188.96 358.414 188.444C358.773 187.928 358.981 187.326 359.037 186.638C359.097 185.949 359.03 185.231 358.834 184.486C358.64 183.745 358.349 183.1 357.963 182.551C357.58 181.994 357.11 181.599 356.553 181.364C355.997 181.13 355.371 181.121 354.675 181.339C353.974 181.558 353.442 181.929 353.079 182.452C352.721 182.972 352.512 183.58 352.453 184.275C352.397 184.963 352.466 185.677 352.661 186.418C352.856 187.163 353.145 187.812 353.527 188.363C353.913 188.912 354.384 189.302 354.939 189.532C355.499 189.76 356.13 189.764 356.831 189.545ZM365.086 181.303L366.896 188.194L364.667 188.891L361.618 177.285L363.758 176.616L364.254 178.505L364.396 178.46C364.497 177.763 364.78 177.141 365.244 176.592C365.713 176.042 366.377 175.632 367.237 175.363C368.017 175.119 368.745 175.071 369.418 175.22C370.091 175.364 370.674 175.71 371.168 176.259C371.662 176.808 372.034 177.561 372.286 178.518L374.226 185.9L371.996 186.598L370.128 179.487C369.907 178.646 369.518 178.057 368.961 177.718C368.403 177.375 367.746 177.322 366.991 177.558C366.474 177.72 366.044 177.977 365.701 178.33C365.363 178.681 365.134 179.112 365.016 179.624C364.901 180.128 364.924 180.688 365.086 181.303Z" fill="black"/>
<rect width="267.924" height="70.8555" rx="20" transform="matrix(0.954358 0.298666 -0.254111 0.967175 44.3789 254.699)" fill="#FFF5F5"/>
<rect width="41.3219" height="41.3219" rx="14" transform="matrix(0.954358 0.298666 -0.254111 0.967175 52.0789 272.565)" fill="#0E172A"/>
<path d="M64.0228 307.598C62.8515 307.232 61.8638 306.703 61.0597 306.011C60.261 305.321 59.6939 304.531 59.3585 303.641C59.0231 302.751 58.964 301.826 59.1813 300.865L62.2396 301.822C62.1468 302.286 62.1913 302.731 62.3729 303.157C62.5559 303.577 62.8479 303.951 63.2489 304.279C63.6499 304.606 64.1296 304.858 64.6882 305.032C65.2846 305.219 65.8408 305.28 66.3565 305.216C66.8738 305.145 67.3123 304.962 67.6722 304.664C68.0321 304.366 68.2743 303.969 68.3989 303.473C68.5386 302.963 68.5268 302.472 68.3636 301.999C68.2004 301.525 67.8956 301.1 67.449 300.722C67.0079 300.346 66.4349 300.048 65.73 299.828L64.2578 299.367L64.8771 297.009L66.3494 297.47C66.9296 297.652 67.4633 297.709 67.9505 297.641C68.4431 297.575 68.8625 297.397 69.2087 297.107C69.5563 296.811 69.7917 296.418 69.9147 295.927C70.0458 295.451 70.0491 295.003 69.9246 294.584C69.8069 294.16 69.5789 293.788 69.2404 293.468C68.9074 293.15 68.4806 292.909 67.9601 292.747C67.4504 292.587 66.9541 292.533 66.4712 292.584C65.9883 292.635 65.5685 292.792 65.2119 293.055C64.8566 293.313 64.6088 293.675 64.4684 294.143L61.5646 293.234C61.8347 292.296 62.3211 291.55 63.0239 290.997C63.7336 290.44 64.575 290.096 65.548 289.967C66.5224 289.832 67.5492 289.933 68.6282 290.271C69.7398 290.618 70.6495 291.132 71.3571 291.811C72.0716 292.487 72.5607 293.25 72.8245 294.099C73.0883 294.949 73.1076 295.803 72.8824 296.66C72.638 297.612 72.1521 298.323 71.4247 298.791C70.7027 299.261 69.8656 299.454 68.9135 299.37L68.8789 299.502C70.0068 300.033 70.7887 300.754 71.2246 301.663C71.6674 302.569 71.7474 303.548 71.4648 304.602C71.2165 305.547 70.7284 306.31 70.0006 306.891C69.2797 307.468 68.4001 307.824 67.3617 307.956C66.3287 308.091 65.2157 307.972 64.0228 307.598Z" fill="white"/>
<path d="M102.469 318.334L100.023 317.568L109.584 303.813L112.246 304.646L113.675 321.841L111.23 321.075L110.24 307.06L110.121 307.023L102.469 318.334ZM104.471 312.402L112.404 314.885L111.888 316.849L103.955 314.367L104.471 312.402ZM119.324 323.854C118.4 323.565 117.638 323.067 117.038 322.362C116.444 321.652 116.058 320.787 115.88 319.767C115.708 318.742 115.786 317.603 116.116 316.349C116.446 315.095 116.934 314.086 117.581 313.324C118.232 312.563 118.983 312.059 119.833 311.813C120.684 311.566 121.568 311.587 122.488 311.875C123.199 312.097 123.739 312.397 124.108 312.774C124.483 313.148 124.748 313.531 124.903 313.923C125.063 314.316 125.179 314.655 125.249 314.939L125.384 314.981L126.894 309.231L129.124 309.928L125.058 325.403L122.881 324.722L123.355 322.916L123.169 322.857C122.97 323.062 122.702 323.284 122.365 323.522C122.033 323.761 121.617 323.931 121.118 324.031C120.618 324.131 120.02 324.072 119.324 323.854ZM120.323 322.081C120.964 322.282 121.551 322.28 122.083 322.076C122.622 321.868 123.086 321.493 123.476 320.95C123.871 320.409 124.176 319.73 124.391 318.914C124.602 318.108 124.673 317.367 124.603 316.691C124.534 316.015 124.322 315.439 123.968 314.963C123.614 314.487 123.112 314.147 122.461 313.943C121.79 313.733 121.184 313.735 120.644 313.947C120.104 314.16 119.64 314.535 119.251 315.073C118.867 315.613 118.575 316.265 118.374 317.031C118.17 317.807 118.101 318.54 118.167 319.231C118.233 319.922 118.442 320.519 118.794 321.022C119.152 321.521 119.662 321.874 120.323 322.081ZM132.047 327.836C131.123 327.546 130.361 327.049 129.761 326.343C129.167 325.634 128.781 324.769 128.603 323.748C128.431 322.724 128.509 321.585 128.839 320.331C129.169 319.076 129.657 318.068 130.304 317.305C130.955 316.544 131.706 316.041 132.556 315.794C133.407 315.548 134.291 315.569 135.211 315.856C135.922 316.079 136.462 316.379 136.831 316.756C137.206 317.129 137.471 317.512 137.626 317.904C137.786 318.298 137.902 318.637 137.972 318.92L138.107 318.962L139.617 313.212L141.847 313.91L137.781 329.385L135.604 328.703L136.078 326.897L135.892 326.839C135.693 327.044 135.425 327.265 135.088 327.503C134.756 327.743 134.34 327.913 133.841 328.013C133.341 328.112 132.743 328.053 132.047 327.836ZM133.046 326.063C133.687 326.264 134.274 326.262 134.806 326.058C135.345 325.85 135.809 325.475 136.199 324.932C136.594 324.39 136.899 323.712 137.114 322.896C137.325 322.09 137.396 321.349 137.326 320.673C137.257 319.997 137.045 319.421 136.691 318.945C136.337 318.469 135.835 318.129 135.184 317.925C134.513 317.715 133.907 317.716 133.367 317.929C132.827 318.142 132.363 318.517 131.974 319.055C131.59 319.594 131.298 320.247 131.097 321.013C130.893 321.788 130.824 322.522 130.89 323.213C130.956 323.904 131.165 324.501 131.517 325.004C131.875 325.503 132.385 325.856 133.046 326.063ZM145.858 331.912L149.924 316.438L155.516 318.188C156.6 318.527 157.449 318.989 158.065 319.574C158.682 320.154 159.086 320.807 159.277 321.532C159.47 322.252 159.466 322.994 159.265 323.76C159.095 324.405 158.835 324.912 158.485 325.283C158.137 325.648 157.731 325.902 157.268 326.046C156.811 326.187 156.334 326.245 155.835 326.219L155.795 326.37C156.295 326.554 156.746 326.875 157.148 327.334C157.555 327.788 157.845 328.345 158.016 329.004C158.187 329.662 158.168 330.392 157.957 331.193C157.749 331.984 157.379 332.637 156.846 333.151C156.319 333.662 155.627 333.983 154.769 334.112C153.914 334.237 152.894 334.114 151.711 333.744L145.858 331.912ZM148.688 330.631L152.014 331.672C153.117 332.017 153.964 332.048 154.555 331.764C155.146 331.48 155.527 331.013 155.698 330.363C155.826 329.875 155.822 329.388 155.686 328.904C155.55 328.42 155.287 327.986 154.898 327.603C154.514 327.221 154.014 326.934 153.398 326.741L149.991 325.674L148.688 330.631ZM150.469 323.853L153.556 324.819C154.073 324.981 154.564 325.026 155.03 324.953C155.5 324.883 155.905 324.704 156.244 324.417C156.589 324.128 156.827 323.733 156.958 323.235C157.126 322.595 157.046 321.989 156.717 321.417C156.388 320.846 155.767 320.417 154.852 320.131L151.706 319.146L150.469 323.853ZM165.292 321.247L161.226 336.722L158.997 336.024L163.063 320.549L165.292 321.247ZM168.568 339.273C167.494 338.937 166.623 338.394 165.954 337.645C165.284 336.896 164.846 336.004 164.64 334.969C164.433 333.934 164.487 332.817 164.802 331.618C165.118 330.414 165.616 329.43 166.295 328.667C166.975 327.904 167.78 327.398 168.711 327.15C169.643 326.902 170.645 326.945 171.719 327.281C172.792 327.617 173.664 328.16 174.333 328.909C175.002 329.658 175.44 330.553 175.645 331.593C175.851 332.633 175.795 333.755 175.479 334.959C175.164 336.158 174.667 337.137 173.989 337.895C173.311 338.653 172.507 339.156 171.575 339.405C170.644 339.653 169.642 339.609 168.568 339.273ZM169.074 337.379C169.77 337.596 170.395 337.591 170.95 337.361C171.506 337.131 171.974 336.741 172.356 336.19C172.742 335.64 173.033 334.993 173.229 334.247C173.424 333.507 173.49 332.791 173.43 332.102C173.375 331.409 173.169 330.802 172.811 330.281C172.453 329.76 171.926 329.391 171.23 329.173C170.529 328.954 169.898 328.96 169.336 329.194C168.78 329.428 168.307 329.823 167.92 330.378C167.538 330.929 167.25 331.575 167.056 332.315C166.86 333.061 166.79 333.777 166.846 334.465C166.907 335.155 167.117 335.758 167.476 336.274C167.84 336.791 168.373 337.159 169.074 337.379ZM180.799 343.101C179.725 342.765 178.854 342.222 178.185 341.473C177.515 340.724 177.077 339.832 176.871 338.797C176.664 337.761 176.718 336.644 177.033 335.446C177.349 334.242 177.847 333.258 178.526 332.495C179.206 331.732 180.011 331.226 180.942 330.978C181.873 330.729 182.876 330.773 183.95 331.109C185.023 331.445 185.895 331.988 186.564 332.737C187.233 333.486 187.67 334.381 187.876 335.421C188.081 336.461 188.026 337.583 187.71 338.787C187.395 339.986 186.898 340.964 186.22 341.723C185.542 342.481 184.738 342.984 183.806 343.232C182.875 343.48 181.873 343.437 180.799 343.101ZM181.305 341.206C182.001 341.424 182.626 341.418 183.181 341.189C183.737 340.959 184.205 340.569 184.586 340.017C184.973 339.468 185.264 338.82 185.46 338.075C185.655 337.334 185.721 336.619 185.661 335.93C185.606 335.236 185.4 334.629 185.042 334.109C184.684 333.588 184.157 333.218 183.461 333.001C182.76 332.781 182.129 332.788 181.567 333.021C181.011 333.256 180.538 333.651 180.151 334.205C179.769 334.756 179.481 335.402 179.287 336.143C179.091 336.888 179.021 337.605 179.077 338.293C179.137 338.983 179.348 339.585 179.707 340.101C180.071 340.619 180.604 340.987 181.305 341.206ZM192.495 346.753C191.571 346.463 190.808 345.966 190.208 345.26C189.615 344.551 189.229 343.686 189.05 342.665C188.878 341.641 188.957 340.502 189.287 339.248C189.616 337.993 190.104 336.985 190.751 336.222C191.403 335.462 192.154 334.958 193.004 334.711C193.854 334.465 194.739 334.486 195.659 334.773C196.369 334.996 196.909 335.296 197.278 335.673C197.653 336.046 197.919 336.429 198.074 336.821C198.234 337.215 198.349 337.554 198.42 337.837L198.554 337.879L200.065 332.129L202.294 332.827L198.229 348.302L196.051 347.62L196.526 345.814L196.339 345.756C196.14 345.961 195.872 346.182 195.536 346.42C195.204 346.66 194.788 346.83 194.288 346.93C193.789 347.029 193.191 346.971 192.495 346.753ZM193.493 344.98C194.135 345.181 194.721 345.179 195.254 344.975C195.792 344.767 196.257 344.392 196.647 343.849C197.042 343.307 197.347 342.629 197.561 341.813C197.773 341.007 197.844 340.266 197.774 339.59C197.704 338.914 197.492 338.338 197.139 337.862C196.785 337.386 196.283 337.046 195.631 336.842C194.96 336.632 194.355 336.633 193.815 336.846C193.275 337.059 192.811 337.434 192.422 337.972C192.038 338.511 191.745 339.164 191.544 339.93C191.34 340.705 191.271 341.439 191.337 342.13C191.403 342.821 191.612 343.418 191.964 343.921C192.323 344.42 192.832 344.773 193.493 344.98ZM214.522 340.84L214.046 342.654L207.79 340.696L208.267 338.883L214.522 340.84ZM210.675 336.627L212.904 337.325L210.02 348.304C209.905 348.742 209.882 349.092 209.953 349.354C210.026 349.611 210.153 349.812 210.336 349.956C210.525 350.097 210.741 350.206 210.985 350.282C211.164 350.338 211.323 350.374 211.464 350.391C211.605 350.408 211.715 350.421 211.793 350.429L211.706 352.421C211.563 352.431 211.366 352.424 211.114 352.4C210.861 352.38 210.555 352.317 210.196 352.21C209.606 352.037 209.087 351.76 208.639 351.38C208.19 350.999 207.87 350.528 207.678 349.967C207.487 349.406 207.483 348.775 207.667 348.075L210.675 336.627ZM213.785 357.88C213.452 357.776 213.156 357.653 212.897 357.512C212.637 357.376 212.448 357.257 212.329 357.155L213.352 355.472C213.731 355.71 214.081 355.871 214.403 355.956C214.725 356.04 215.038 356.007 215.341 355.857C215.649 355.708 215.965 355.406 216.289 354.951L216.767 354.267L215.666 341.198L218.052 341.945L218.586 351.86L218.705 351.897L223.972 343.798L226.365 344.547L218.19 356.225C217.812 356.761 217.399 357.185 216.952 357.497C216.502 357.815 216.016 358.006 215.494 358.071C214.971 358.137 214.401 358.073 213.785 357.88ZM223.848 361.029L228.041 345.071L230.218 345.752L229.723 347.634L229.91 347.692C230.103 347.491 230.362 347.27 230.689 347.028C231.016 346.787 231.427 346.616 231.922 346.515C232.418 346.408 233.021 346.466 233.732 346.689C234.657 346.978 235.419 347.473 236.021 348.173C236.622 348.874 237.012 349.735 237.19 350.756C237.373 351.778 237.3 352.916 236.971 354.17C236.641 355.425 236.152 356.436 235.504 357.203C234.857 357.966 234.11 358.476 233.262 358.734C232.416 358.987 231.53 358.969 230.606 358.679C229.91 358.462 229.372 358.165 228.992 357.79C228.616 357.416 228.346 357.032 228.181 356.637C228.016 356.242 227.899 355.9 227.829 355.611L227.695 355.569L226.077 361.727L223.848 361.029ZM228.701 351.558C228.486 352.374 228.415 353.126 228.487 353.813C228.559 354.501 228.771 355.088 229.122 355.574C229.474 356.055 229.971 356.396 230.612 356.596C231.278 356.805 231.882 356.8 232.424 356.583C232.966 356.36 233.433 355.974 233.825 355.426C234.221 354.88 234.521 354.219 234.725 353.443C234.926 352.677 234.992 351.954 234.924 351.273C234.86 350.593 234.649 350.007 234.289 349.512C233.934 349.02 233.422 348.668 232.751 348.458C232.104 348.256 231.513 348.254 230.977 348.451C230.446 348.65 229.987 349.016 229.599 349.549C229.212 350.082 228.912 350.752 228.701 351.558ZM242.404 362.38C241.276 362.027 240.368 361.478 239.681 360.735C239.001 359.987 238.557 359.099 238.348 358.069C238.147 357.035 238.204 355.916 238.52 354.713C238.833 353.524 239.327 352.544 240.002 351.775C240.683 351.006 241.485 350.491 242.409 350.23C243.338 349.97 244.334 350.007 245.398 350.339C246.044 350.542 246.642 350.846 247.192 351.252C247.741 351.659 248.196 352.169 248.556 352.783C248.917 353.398 249.139 354.119 249.223 354.946C249.308 355.769 249.212 356.707 248.936 357.759L248.725 358.56L239.621 355.711L240.066 354.019L246.985 356.184C247.141 355.59 247.16 355.026 247.042 354.493C246.925 353.955 246.686 353.485 246.324 353.082C245.966 352.682 245.499 352.391 244.923 352.21C244.296 352.014 243.709 352 243.159 352.166C242.616 352.328 242.153 352.619 241.768 353.039C241.39 353.454 241.125 353.952 240.972 354.531L240.625 355.854C240.421 356.629 240.382 357.331 240.507 357.959C240.638 358.589 240.909 359.124 241.321 359.563C241.734 359.998 242.266 360.317 242.917 360.521C243.339 360.653 243.74 360.713 244.12 360.701C244.501 360.684 244.851 360.592 245.169 360.424C245.488 360.257 245.761 360.013 245.991 359.692L248 360.738C247.665 361.314 247.217 361.771 246.655 362.108C246.1 362.441 245.46 362.636 244.735 362.692C244.016 362.745 243.239 362.641 242.404 362.38Z" fill="black"/>
<path d="M153.175 177.489C157.112 167.293 149.262 159.25 140.256 156.129C119.165 148.821 96.1507 165.605 96.9114 187.94C96.9498 189.081 97.088 190.207 97.2747 191.324C85.5765 189.329 74.2328 184.235 66.4531 175.116C57.6857 164.84 56.3844 149.847 60.2871 137.362C64.5147 123.836 76.4354 113.906 89.3165 109.059C91.1291 108.377 93.4702 104.329 90.1392 105.582C66.1376 114.613 48.2238 138.364 55.0991 164.65C60.4128 184.966 78.9735 193.224 98.3103 195.491C101.114 203.978 107.768 211.358 114.981 216.106C124.192 222.169 135.887 223.122 146.344 220.358C146.076 220.53 145.816 220.7 145.577 220.872C144.118 221.918 142.66 222.963 141.202 224.01C138.307 226.086 142.223 228.367 144.377 226.821C146.322 225.426 148.266 224.031 150.211 222.636C151.399 221.784 153.989 220.562 154.366 218.97C154.798 217.154 153.296 216.408 151.905 215.646C149.53 214.344 147.155 213.043 144.78 211.743C142.673 210.588 138.4 213.292 141.339 214.902C142.658 215.626 143.978 216.348 145.297 217.07C145.393 217.123 145.488 217.174 145.583 217.227C133.637 219.695 121.447 215.832 112.535 207.413C109.047 204.119 106.258 200.223 104.38 196.014C111.401 196.405 118.352 196.094 124.641 195.364C136.307 194.01 148.636 189.241 153.175 177.489ZM104.919 170.806C110.911 159.55 123.711 156.501 135.248 159.479C147.097 162.536 154.663 174.643 144.835 184.885C139.892 190.037 131.525 190.982 124.81 191.762C117.612 192.598 110.346 192.685 103.13 192.078C103.059 192.072 102.987 192.062 102.916 192.056C100.869 185.154 101.251 177.695 104.919 170.806Z" fill="#0E172A" fill-opacity="0.33"/>
<path d="M317.332 337.671C320.134 338.975 322.957 340.25 325.48 342.078C326.792 343.027 323.828 348.793 323.468 348.533C318.38 344.847 312.076 343.408 307.163 339.446C306.006 338.512 307.998 333.776 308.952 333.048C313.386 329.668 317.658 326.094 321.895 322.473C322.567 321.899 322.081 324.895 322.054 324.996C321.755 326.211 321.329 327.957 320.326 328.814C318.648 330.248 316.96 331.67 315.263 333.081C315.362 333.065 315.455 333.041 315.558 333.033C335.012 331.374 353.5 326.953 367.493 312.496C376.592 303.095 382.867 291.015 386.384 278.33C381.949 279.251 377.45 279.947 372.867 280.347C359.198 281.54 343.732 280.588 332.455 271.906C324.366 265.68 324.848 256.666 334.837 253.887C342.191 251.842 349.196 253.347 355.672 256.388C351.335 246.12 350.24 233.416 357.019 225.476C362.1 219.523 370.826 219.135 377.496 222.099C387.768 226.664 393.417 237.547 395.414 248.065C396.857 255.665 396.557 263.609 394.987 271.444C401.826 269.253 408.392 266.464 414.38 263.361C417.694 261.644 421.247 265.235 417.293 267.284C409.712 271.213 401.87 274.294 393.783 276.537C390.296 289.41 383.591 301.703 375.77 311.322C361.153 329.299 339.484 335.506 317.332 337.671ZM389.113 264.551C390.296 254.664 388.968 244.654 383.807 236.041C379.444 228.762 366.657 219.269 360.707 230.011C355.281 239.807 361.458 256.562 368.203 264.291C370.393 266.8 364.612 269.058 362.705 267.645C354.946 261.892 347.571 257.321 337.698 258.16C331.982 258.647 332.691 262.15 335.502 266.046C339.139 271.088 346.437 273.279 352.177 274.623C363.543 277.284 375.804 276.429 387.573 273.545C388.233 270.556 388.753 267.551 389.113 264.551Z" fill="#0E172A" fill-opacity="0.33"/>
<path d="M187.576 415.47C185.803 414.099 184.073 412.652 182.317 411.298C181.425 410.61 179.983 410.741 179.67 411.955C179.319 413.311 180.243 414.612 181.255 415.392C183.229 416.913 185.204 418.435 187.178 419.956C188.433 420.924 190.308 422.954 192.128 422.534C193.933 422.118 194.367 420.017 194.922 418.53C195.749 416.318 196.575 414.106 197.402 411.894C198.218 409.711 194.234 406.264 193.17 409.114C192.68 410.423 192.19 411.732 191.702 413.041C189.331 407.64 186.144 401.852 180.764 400.613C177.713 399.911 174.633 400.967 171.711 401.781C166.756 403.163 161.895 404.818 156.882 405.989C144.482 408.887 133.79 404.117 127.663 393.03C122.582 383.835 123.767 372.438 127.799 363.147C128.349 361.879 123.16 360.558 122.426 362.251C114.868 379.67 120.556 400.339 139.08 407.557C147.009 410.645 155.702 409.504 163.711 407.448C168.689 406.171 173.548 404.462 178.523 403.163C181.772 402.313 185.583 410.705 187.576 415.47Z" fill="#0E172A" fill-opacity="0.33"/>
</svg>
