<svg width="1068" height="1064" viewBox="0 0 1068 1064" fill="none" xmlns="http://www.w3.org/2000/svg">
<path fill-rule="evenodd" clip-rule="evenodd" d="M242.635 171.909C242.635 171.909 238.278 172.743 234.933 171.272C231.589 169.801 230.627 173.503 228.346 171.125C226.066 168.748 222.823 162.509 225.761 160.364C228.7 158.22 232.804 157.962 232.55 150.976C232.297 143.99 236.452 152.692 237.566 145.62C238.681 138.548 238.275 142.495 242.785 138.291C247.294 134.087 244.051 135.41 247.952 129.564C251.854 123.718 260.72 118.68 264.065 120.151C267.409 121.621 274.351 123.986 276.986 121.02C279.62 118.054 280.481 111.558 288.081 109.401C295.682 107.244 298.317 111.84 301.56 110.516C304.802 109.192 304.143 106.153 303.18 102.292C302.217 98.4315 305.46 97.1076 300.697 94.3257C295.934 91.5437 297.099 85.8691 292.843 89.4971C288.587 93.1251 285.192 97.8192 286.56 90.1714C287.927 82.5234 287.927 82.5234 293.551 78.8098C299.176 75.096 301.911 67.3622 305.56 69.654C309.208 71.9458 309.917 68.8203 308.195 74.25C306.472 79.6795 304.091 82.0695 308.348 86.0036C312.604 89.9375 312.402 91.9108 313.922 96.0165C315.442 100.122 320.509 96.1633 321.219 100.6C321.929 105.037 319.801 106.851 322.891 108.897C325.983 110.944 324.969 113.248 325.983 118.506C326.997 123.764 330.442 120.467 331.456 125.725C332.47 130.982 329.733 131.154 335.105 135.578C340.476 140.003 345.898 138.262 347.418 142.368C348.938 146.474 346.202 146.645 353.702 149.256C361.201 151.866 366.42 152.098 361.251 145.701C356.082 139.303 359.933 132.06 354.714 131.827C349.495 131.595 347.264 123.052 351.065 121.974C354.865 120.895 354.206 117.855 357.854 120.147C361.503 122.439 358.007 124.339 364.493 129.253C370.979 134.168 369.661 128.089 369.966 136.472C370.27 144.855 374.729 146.816 370.98 149.292C367.23 151.768 368.75 148.311 368.244 157.025C367.738 165.739 361.709 165.838 367.992 172.725C374.276 179.613 369.817 177.652 374.124 182.984C378.431 188.315 387.805 189.687 391.911 196.992C396.015 204.296 398.954 202.152 401.032 206.502C403.11 210.853 407.163 201.636 410.203 202.286C413.243 202.935 418.411 201.771 416.334 197.42C414.256 193.069 410.861 190.201 415.421 187.394C419.981 184.587 421.755 188.117 423.325 186.058C424.896 183.999 422.869 181.045 425.048 180.629C427.226 180.212 431.837 178.802 431.128 181.928C430.419 185.053 424.744 187.37 428.139 190.237C431.534 193.105 434.625 195.152 431.534 193.105C428.443 191.058 436.805 202.297 436.349 204.846C435.893 207.396 431.13 212.176 432.6 214.884C434.069 217.593 433.208 216.526 434.982 220.056C436.755 223.586 431.385 226.724 434.172 227.949C436.959 229.175 439.948 228.427 437.82 230.241C435.692 232.055 430.017 234.372 430.017 234.372C430.017 234.372 426.268 236.847 424.85 243.098C423.431 249.349 421.557 258.149 419.531 262.756C417.504 267.365 410.564 287.685 407.981 292.048C405.397 296.412 395.618 306.547 396.834 309.833C398.051 313.117 396.278 317.15 402.003 316.23C407.729 315.311 408.59 316.377 412.29 320.066C415.989 323.755 414.469 327.211 422.83 330.888C431.19 334.564 430.785 338.511 436.715 343.18C442.643 347.85 448.319 353.095 456.426 357.348C464.534 361.6 463.267 356.918 469.955 359.86C476.644 362.801 483.383 359.577 486.88 365.24C490.376 370.902 488.147 369.921 495.595 371.134C503.044 372.347 505.882 374.97 508.719 377.593C511.557 380.216 514.091 382.017 528.633 382.225C543.175 382.433 544.24 389.088 548.9 389.075C553.562 389.063 562.328 396.355 567.344 398.56C572.361 400.766 576.465 400.509 579.1 405.105C581.736 409.701 589.133 409.516 594.099 410.325C599.064 411.134 592.224 411.563 602.003 416.551C611.783 421.539 622.778 414.687 624.804 417.641C626.831 420.594 642.995 427.702 648.823 429.577C654.65 431.452 657.437 432.678 658.654 435.962C659.87 439.247 662.91 432.334 667.42 443.254C671.931 454.175 667.776 453.035 674.87 459.592C681.964 466.148 685.713 463.672 686.626 473.698C687.539 483.723 691.288 481.247 687.944 487.339C684.6 493.43 681.915 494.999 673.503 489.925C665.092 484.851 666.105 474.985 662.052 476.64C657.998 478.295 655.971 475.341 657.036 481.996C658.1 488.651 662.559 490.612 657.847 496.789C653.136 502.967 647.663 503.31 645.383 508.495C643.104 513.679 646.398 521.315 640.825 526.425C635.251 531.536 636.467 527.259 632.008 525.298C627.549 523.337 625.37 523.754 625.016 529.098C624.662 534.441 626.891 535.422 620.101 537.248C613.312 539.075 600.035 528.424 599.935 533.192C599.834 537.96 603.939 545.264 598.922 543.058C593.906 540.852 589.649 536.918 589.852 542.507C590.055 548.096 586.611 558.955 580.023 558.809C573.436 558.662 578.098 558.649 573.436 551.1C568.773 543.55 567 540.02 565.48 543.477C563.96 546.933 565.177 557.78 561.022 556.64C556.867 555.5 552.914 544.825 552.914 544.825C552.914 544.825 554.688 548.355 546.631 553.062C538.575 557.768 517.141 549.031 516.533 547.388C515.925 545.746 519.473 552.806 511.872 554.963C504.272 557.12 504.677 553.174 499.813 555.159C494.949 557.145 490.389 559.952 486.994 564.646C483.6 569.34 476.557 579.305 476.557 579.305C476.557 579.305 464.193 571.118 466.677 579.085C469.16 587.051 480.764 589.404 472.504 588.522C464.245 587.64 458.925 584.613 462.016 594.221C465.108 603.83 471.087 602.334 467.54 610.399C463.994 618.464 461.766 640.169 459.791 646.175C457.815 652.18 452.292 658.688 453.762 661.397C455.232 664.105 462.883 670.907 462.883 670.907C462.883 670.907 461.414 668.199 467.595 657.168C473.775 646.137 473.623 641.946 476.157 643.747C478.691 645.548 477.728 649.25 476.816 654.348C475.905 659.447 477.779 658.209 476.159 666.433C474.538 674.657 473.271 677.537 475.4 683.285C477.528 689.033 471.093 693.078 480.974 693.298C490.855 693.519 491.463 695.161 499.822 691.275C508.183 687.39 511.78 688.284 512.894 681.212C514.009 674.141 517.96 662.13 516.693 657.448C515.426 652.766 518.872 657.031 521.151 651.847C523.431 646.663 523.481 640.498 526.572 642.544C529.663 644.591 526.624 651.504 531.994 648.366C537.365 645.228 533.565 653.869 542.331 646.037C551.096 638.205 551.399 631.465 554.439 624.552C557.479 617.639 562.191 611.462 564.319 617.21C566.448 622.958 557.784 626.022 563.915 628.718C570.046 631.414 585.652 623.153 585.652 623.153C585.652 623.153 586.008 632.934 586.92 635.397C587.832 637.861 587.173 627.259 592.442 628.889C597.712 630.519 595.179 636.279 592.899 641.464C590.62 646.648 591.279 649.688 589.607 656.514C587.935 663.341 590.215 658.157 588.341 666.957C586.467 675.757 591.23 678.539 588.899 682.326C586.569 686.113 589.66 688.16 586.772 691.702C583.884 695.244 579.932 692.131 576.892 699.044C573.852 705.956 581.149 710.54 577.248 716.386C573.347 722.233 567.622 730.713 568.28 733.754C568.939 736.793 579.428 738.656 575.983 749.515C572.539 760.374 574.363 765.3 573.452 770.399C572.54 775.497 572.793 774.921 568.994 783.562C565.194 792.202 566.36 794.09 565.752 800.009C565.145 805.929 564.638 807.081 562.612 811.69C560.585 816.298 562.561 817.854 561.345 822.132C560.13 826.409 561.447 824.926 559.016 833.481C556.584 842.036 559.067 842.44 554.304 847.22C549.542 852 549.034 845.59 547.869 851.265C546.704 856.94 544.475 855.959 543.918 863.276C543.361 870.593 544.071 875.03 541.791 880.214C539.511 885.399 532.773 896.184 531.253 899.641C529.733 903.097 518.943 938.224 517.12 948.421C515.296 958.618 517.273 960.174 516.259 962.478C515.246 964.783 518.692 969.048 509.825 966.523C500.957 963.999 508.253 953.458 507.037 950.174C505.82 946.889 491.633 948.9 491.075 941.092C490.517 933.285 498.015 928.333 491.327 925.392C484.638 922.451 491.226 930.16 482.358 927.635C473.491 925.111 474.808 916.066 471.059 926.104C467.31 936.142 466.397 926.116 462.294 933.936C458.19 941.755 466.5 944.035 459.508 947.834C452.516 951.634 449.88 947.038 450.64 937.748C451.399 928.458 452.006 914.976 457.023 917.182C462.039 919.388 460.165 935.751 465.029 926.202C469.893 916.655 470.45 916.9 467.966 908.934C465.483 900.968 466.902 902.279 467.813 897.18C468.725 892.082 465.888 897.021 469.941 887.804C473.994 878.588 462.238 879.606 471.764 877.607C481.29 875.609 485.193 892.449 487.37 876.908C489.548 861.367 490.206 856.845 486.559 862.115C482.911 867.385 482.355 882.264 479.466 870.682C476.577 859.1 470.141 855.583 477.741 853.426C485.342 851.268 483.923 857.519 489.548 853.805C495.172 850.091 495.881 846.966 496.083 837.43C496.285 827.895 498.566 837.835 501.706 826.155C504.847 814.475 502.516 818.262 505.049 812.501C507.583 806.741 515.841 800.061 509.507 799.338C503.174 798.615 480.372 797.525 478.244 799.339C476.116 801.153 470.897 800.921 466.743 807.343C462.588 813.765 462.943 815.984 460.714 815.003C458.484 814.023 456.659 809.096 460.712 799.879C464.765 790.662 462.028 775.71 462.281 767.571C462.534 759.433 452.246 732.912 453.208 729.211C454.17 725.509 460.807 711.929 462.276 707.076C463.745 702.222 457.21 711.034 452.954 714.662C448.698 718.29 448.495 712.702 441.452 715.104C434.409 717.506 433.497 722.605 428.329 723.77C423.161 724.934 419.258 715.656 417.485 719.689C415.712 723.721 420.323 729.873 418.044 735.058C415.764 740.242 417.284 744.348 410.393 743.38C403.502 742.412 401.728 738.882 398.333 736.015C394.938 733.147 398.434 723.685 394.684 726.161C390.935 728.637 391.848 738.662 384.601 727.914C377.354 717.166 362.61 734.055 359.824 740.391C357.038 746.727 350.35 758.911 346.247 766.729C342.143 774.549 341.637 783.262 334.088 786.817C326.538 790.372 321.673 784.795 320.052 785.457C318.431 786.119 321.875 775.26 321.875 775.26C321.875 775.26 313.667 775.775 313.515 779.146C313.363 782.516 312.045 761.313 306.116 764.206C300.188 767.098 293.298 773.692 291.22 769.342C289.142 764.991 283.974 773.717 280.225 776.193C276.476 778.669 269.18 789.209 262.897 789.884C256.614 790.558 236.194 787.078 238.018 784.443C239.842 781.808 252.509 775.692 244.858 776.452C237.207 777.212 238.574 769.564 240.601 764.956C242.627 760.347 245.059 759.355 240.347 757.97C235.634 756.585 237.257 771.047 234.317 758.068C231.377 745.089 229.451 737.368 224.892 747.737C220.332 758.105 223.474 761.549 214.252 764.369C205.031 767.188 200.622 766.624 200.673 760.459C200.723 754.294 202.395 755.03 196.821 752.579C191.247 750.128 188.815 751.121 190.133 757.2C191.451 763.279 195.505 769.186 189.678 767.311C183.851 765.436 183.344 766.588 179.239 759.284C175.134 751.979 161.859 756.453 156.945 757.042C152.03 757.63 151.726 756.809 151.27 751.796C150.813 746.784 147.418 743.916 149.596 735.937C151.775 727.958 151.014 722.124 155.321 719.894C159.627 717.663 159.069 702.294 155.674 706.989C152.28 711.683 148.885 708.815 144.071 712.198C139.258 715.581 140.018 713.853 136.978 720.765C133.939 727.678 139.816 723.388 133.838 732.445C127.859 741.503 124.668 751.785 121.931 744.396C119.194 737.005 124.716 715.373 123.955 709.54C123.195 703.706 125.931 703.534 130.034 695.714C134.138 687.895 135.252 673.261 139.66 673.824C144.069 674.388 143.459 657.622 141.584 651.298C139.709 644.974 134.845 646.96 141.684 638.968C148.524 630.977 148.727 636.566 149.487 627.276C150.246 617.985 142.899 619.567 148.979 613.304C155.059 607.04 149.283 606.563 153.437 600.14C157.591 593.718 149.231 590.042 155.969 586.818C162.708 583.594 172.184 587.761 168.636 580.702C165.089 573.642 165.494 562.133 165.494 562.133C165.494 562.133 161.846 567.404 162.96 560.332C164.074 553.26 162.96 560.332 168.128 551.605C173.296 542.879 163.466 551.618 179.579 542.204C195.691 532.791 195.944 532.215 187.279 527.718C178.614 523.22 176.842 534.814 171.318 526.198C165.795 517.583 161.082 508.636 165.49 509.199C169.898 509.763 169.138 511.491 170.912 507.459C172.685 503.427 174.053 503.341 176.383 499.553C178.714 495.766 180.943 496.747 183.021 493.535C185.098 490.324 177.193 484.098 174.862 480.324C172.531 476.549 172.582 477.946 168.173 469.82C163.764 461.695 162.7 462.602 166.804 454.782C170.907 446.963 166.448 445.002 172.984 443.751C179.521 442.501 178.71 442.832 184.74 442.734C190.77 442.635 198.421 441.875 199.94 438.419C201.46 434.963 197.812 432.671 200.396 428.308C202.979 423.945 202.928 414.985 201.813 414.495C200.699 414.005 205.563 419.581 208.856 412.093C212.149 404.604 212.656 403.452 206.727 398.783C200.798 394.113 195.782 391.907 191.88 390.191C187.978 388.476 185.748 387.495 181.491 375.999C177.234 364.503 175.461 368.535 165.631 362.15C155.8 355.765 155.952 352.395 157.269 343.35C158.586 334.305 151.339 323.556 147.336 319.047C143.332 314.537 146.879 306.472 149.108 307.452C151.338 308.433 156.253 307.844 159.951 303.971C163.65 300.098 168.616 300.907 168.616 300.907C168.616 300.907 174.595 299.411 177.432 294.472C180.269 289.533 186.956 277.35 190.047 279.396C193.139 281.443 186.045 290.01 190.809 292.792C195.572 295.574 204.947 304.509 203.628 298.429C202.31 292.35 197.902 291.787 205.553 291.027C213.204 290.266 228.76 280.608 228.961 271.073C229.163 261.538 233.368 256.512 233.368 256.512C233.368 256.512 238.03 256.5 242.135 263.804C246.24 271.109 243.604 266.513 252.219 269.614C260.833 272.714 262.404 278.217 270.105 278.854C277.807 279.491 275.071 272.101 279.682 278.253C284.293 284.405 283.128 290.08 289.158 282.42C295.187 274.759 302.433 277.946 300.102 274.171C297.771 270.396 293.565 275.421 289.714 267.541C285.863 259.66 290.725 242.551 289.762 238.69C288.799 234.83 285.658 238.948 281.199 236.987C276.74 235.026 282.415 240.272 273.497 236.35C264.579 232.428 265.845 229.548 261.893 226.435C257.941 223.322 255.711 222.342 256.167 219.793C256.623 217.244 251.809 213.064 252.721 207.966C253.632 202.867 250.44 198.026 250.845 194.08C251.25 190.133 251.301 191.53 247.855 187.266C244.409 183.001 241.47 170.022 242.635 171.909Z" fill="#F2D2D7"/>
<path d="M389.472 423.194C385.001 431.02 376.728 435.646 350.71 420.863C344.61 417.392 338.747 413.367 333.293 409.218C315.421 395.616 301.783 380.568 297.832 378.727C292.676 376.334 280.274 370.654 280.274 370.654C280.274 370.654 281.274 373.834 282.574 378.454C285.406 388.337 289.684 404.868 288.806 411.253C288.526 413.306 287.939 419.103 287.185 426.946C284.508 454.96 279.756 509.054 279.164 511.797C278.432 515.304 265.425 522.419 259.618 507.536C257.419 501.95 255.669 494.703 254.312 487.849C252.11 476.494 251.05 466.19 251.05 466.19C251.05 466.19 249.214 469.3 246.919 473.525C244.36 478.236 241.219 484.309 239.413 488.968C236.014 497.833 234.531 511.543 227.266 510.795C221.482 510.174 213.804 498.575 213.035 487.458C212.85 484.607 213.098 481.792 213.964 479.203C213.964 479.203 201.258 470.116 203.676 458.116C206.078 446.109 215.174 418.108 215.416 415.309C215.652 412.788 213.324 400.368 212.887 398.064C212.841 397.82 212.819 397.698 212.819 397.698C212.819 397.698 184.452 386.742 174.829 356.312C174.829 356.312 166.171 339.386 155.719 331.245C146.321 323.928 81.1812 285.722 71.0884 253.107C68.9227 246.131 63.4256 240.727 56.4354 238.635C51.5104 237.146 45.7572 235.36 40.1199 233.434C36.1444 232.089 32.2255 230.656 28.6857 229.254C14.7958 223.724 17.9518 226.253 -4.07894 221.717L-4.07898 73.9429C13.3178 86.292 32.3747 102.789 63.0051 124.826C85.8998 141.307 106.924 156.557 117.766 164.791C149.198 188.632 140.973 176.779 186.827 221.717C232.681 266.654 296.724 324.803 311.668 335.878C314.936 338.307 317.872 341.117 320.68 344.229C330.744 355.333 339.243 370.223 355.98 384.857C377.414 403.578 393.951 415.352 389.472 423.194Z" fill="#E9A49F"/>
<path d="M345.067 417.458C345.067 417.458 351.332 417.165 360.002 421.231C368.673 425.297 371.696 429.862 371.696 429.862C371.696 429.862 361.866 428.374 357.978 431.63C354.089 434.887 351.601 442.267 351.929 445.136C351.929 445.136 347.789 445.413 345.582 442.421C345.582 442.421 353.091 434.887 352.777 430.119C352.466 425.35 345.067 417.458 345.067 417.458Z" fill="#C95556"/>
<path d="M353.477 468.065C350.458 475.123 342.292 478.395 335.237 475.377C328.435 472.466 325.148 464.773 327.627 457.9C327.717 457.644 327.818 457.388 327.927 457.135C327.974 457.024 328.022 456.915 328.073 456.807C333.051 445.843 349.744 440.989 349.976 440.922L349.978 440.921L349.979 440.923C350.056 441.07 353.918 448.501 354.802 456.766C355.196 460.446 354.998 464.291 353.614 467.734C353.569 467.844 353.524 467.956 353.477 468.065Z" fill="#C95556"/>
<path d="M353.477 468.065C350.458 475.123 342.292 478.395 335.237 475.377C328.435 472.466 325.148 464.773 327.627 457.9C327.686 459.246 328.027 460.583 328.608 461.788C329.986 464.653 332.753 466.605 335.751 467.491C338.74 468.373 341.974 468.211 344.907 467.188C347.793 466.178 350.368 464.346 352.218 461.906C353.383 460.367 354.261 458.617 354.802 456.767C355.195 460.447 354.997 464.293 353.614 467.736C353.569 467.844 353.524 467.956 353.477 468.065Z" fill="#B9474D"/>
<path d="M344.281 452.177C342.247 454.476 339.024 455.511 337.082 454.485C335.14 453.462 335.213 450.768 337.247 448.468C339.281 446.17 342.505 445.135 344.447 446.16C346.39 447.184 346.316 449.878 344.281 452.177Z" fill="#D26F74"/>
<path d="M255.092 476.311C254.742 480.15 254.423 484.003 254.313 487.85C252.111 476.495 251.051 466.192 251.051 466.192C251.051 466.192 249.215 469.302 246.92 473.527C246.729 472.396 246.062 471.418 245.448 470.443C244.135 468.346 243.053 466.104 242.236 463.768C241.523 461.759 240.987 459.639 239.736 457.924C238.486 456.208 236.266 454.96 234.237 455.59C232.98 455.989 232.031 457.024 231.165 458.041C224.473 465.89 219.195 474.944 215.62 484.613C215.148 485.89 214.299 487.438 213.035 487.459C212.851 484.608 213.099 481.794 213.964 479.205C213.964 479.205 201.259 470.117 203.677 458.118C206.079 446.11 215.175 418.109 215.417 415.31C215.652 412.789 213.325 400.369 212.888 398.066C213.58 397.893 214.35 397.886 215.038 397.899C223.325 398.054 231.615 394.784 237.566 389.016C238.398 388.211 239.2 387.299 239.418 386.175C239.636 384.921 239.068 383.665 238.529 382.518C228.423 361.62 216.907 341.393 204.1 322.036C197.177 311.602 189.85 301.369 184.225 290.18C178.862 279.514 175.058 267.792 175.119 255.871C194.997 283.739 223.013 304.883 252.115 323.008C256.001 325.438 259.995 327.878 263.06 331.306C267.02 335.752 269.128 341.506 271.926 346.784C274.714 352.041 278.726 357.241 284.474 358.82C290.576 360.494 296.942 357.693 303.267 357.309C304.382 357.244 305.643 357.315 306.657 357.749C307.338 358.04 307.896 358.485 308.251 359.143C308.695 359.988 308.678 360.991 308.68 361.948C308.711 371.419 312.174 380.616 317.113 388.684C321.66 396.135 327.429 402.743 333.291 409.221C315.42 395.619 301.782 380.571 297.831 378.73C292.674 376.337 280.272 370.657 280.272 370.657C280.272 370.657 281.272 373.837 282.573 378.457C281.747 378.198 280.929 378.054 280.088 378.181C279.263 378.315 278.531 378.712 277.824 379.141C271.695 382.83 267.033 388.871 265.018 395.724C264.659 396.956 264.38 398.223 264.425 399.517C264.54 402.094 265.934 404.395 267.276 406.598C269.58 410.319 271.869 414.201 272.474 418.523C272.585 419.357 272.635 420.203 272.553 421.011C272.49 421.509 272.394 421.992 272.23 422.465C271.792 423.662 270.979 424.645 270.213 425.647C259.302 439.813 256.695 458.511 255.092 476.311Z" fill="#DF9492"/>
<path d="M40.1215 233.433C36.146 232.088 32.2271 230.655 28.6873 229.254C14.7974 223.723 17.5927 225.887 -4.4381 221.35L-4.43811 74.0067C12.9587 86.3558 32.3758 102.79 63.0062 124.827C60.3401 133.949 55.9114 142.505 51.9588 151.132C42.9126 170.877 35.6415 192.469 36.8328 214.46C37.1907 220.849 38.2507 227.258 40.1215 233.433Z" fill="#DF9492"/>
<path d="M280.134 506.687C279.632 509.656 279.555 513.95 276.261 515.256C275.086 515.727 273.714 515.739 272.597 515.112C271.353 514.43 270.803 513.09 270.592 511.744C270.065 508.335 269.998 504.598 271.483 501.432C271.799 500.78 272.162 500.15 272.551 499.547C272.747 499.089 272.944 498.629 273.151 498.231C274.264 496.199 276.011 494.566 278.137 493.754C278.219 493.695 278.308 493.62 278.388 493.561C278.645 493.353 278.93 493.344 279.152 493.439C279.532 493.339 279.914 493.277 280.305 493.239C280.734 493.198 281.254 493.514 281.259 493.985C281.344 498.254 280.81 502.482 280.134 506.687Z" fill="#EEBDBB"/>
<path d="M236.326 388.108C233.398 391.144 228.87 392.577 224.732 391.876C219.692 391.048 215.383 387.464 211.582 384.264C209.779 382.743 208.22 381.047 207.164 379.096C205.134 376.094 204.566 372.254 205.537 368.718C206.761 364.279 210.427 360.922 214.703 359.417C216.645 358.731 218.716 358.399 220.773 358.493C223.517 358.6 225.388 359.831 226.857 362.089C229.939 366.835 232.995 371.644 235.905 376.484C238.105 380.141 239.697 384.606 236.326 388.108Z" fill="#EEBDBB"/>
<path d="M387.221 421.407C384.66 421.004 382.244 419.69 380.109 418.29C378.969 417.541 377.863 416.711 376.802 415.865C375.919 415.169 374.852 414.469 374.18 413.545C373.836 413.08 373.707 412.594 373.588 412.037C373.451 411.436 373.238 410.932 373.011 410.367C372.631 409.418 372.463 408.41 372.487 407.389C372.491 407.335 372.504 407.303 372.509 407.249C372.505 407.172 372.484 407.088 372.495 407.019C372.566 405.233 373.305 401.71 375.566 401.591C376.719 401.522 377.654 402.446 378.473 403.115C379.405 403.869 380.316 404.672 381.189 405.475C383.091 407.244 384.886 409.136 386.547 411.119C388.034 412.896 389.654 414.845 390.009 417.208C390.329 419.179 389.681 421.785 387.221 421.407Z" fill="#EEBDBB"/>
<path d="M235.903 499.451C234.969 502.292 234.318 505.609 232.615 508.101C232.011 508.986 230.921 509.698 229.887 509.05C228.894 508.438 229.02 507.05 229.021 506.039C229.004 504.459 229.081 502.881 229.248 501.304C228.976 498.79 229.349 496.254 230.107 493.825C230.931 491.201 232.064 488.463 233.729 486.235C234.908 484.66 237.17 482.614 239.336 483.109C240.494 483.38 240.755 484.391 240.462 485.426C240.017 486.903 239.503 488.368 239.026 489.832C237.975 493.034 236.94 496.243 235.903 499.451Z" fill="#EEBDBB"/>
<path d="M44.8998 221.38C55.838 229.59 66.7949 239.05 72.5062 251.921C74.0198 256.133 75.9997 259.993 78.4091 263.751C88.144 278.987 101.672 291.158 115.317 302.931C99.6795 293.426 85.3382 281.248 75.2611 265.734C70.1423 258.019 68.7349 249.106 62.7776 241.733C57.4836 234.524 51.2972 227.857 44.8998 221.38Z" fill="#CA7E7E"/>
<path d="M173.684 248.752C172.899 272.328 186.551 292.573 199.305 311.27C212.477 330.312 223.06 351.101 233.768 371.537C237.428 379.362 244.178 386.167 234.868 393.205C228.25 397.629 220.062 398.948 212.345 398.011C216.199 398.128 220.034 397.651 223.698 396.644C228.842 395.07 234.667 392.725 236.925 387.641C238.367 384.083 235.693 381.061 234.068 377.948C229.309 369.638 224.569 361.12 219.912 352.775C216.184 346.042 212.468 339.318 208.557 332.723C193.841 306.79 169.728 280.858 173.684 248.752Z" fill="#CA7E7E"/>
<path d="M236.813 385.515C233.846 391.188 226.57 393.662 220.387 392.484C210.974 390.535 202.757 381.985 201.709 372.283C201.455 361.154 214.199 356.517 223.338 359.308C215.502 359.076 204.732 362.874 205.228 372.081C207.403 385.623 225.546 397.093 236.813 385.515Z" fill="#CA7E7E"/>
<path d="M298.866 377.948C274.98 376.603 257.797 357.073 236.55 348.66C229.592 345.718 221.481 342.569 217.419 335.735C225.667 344.367 238.403 344.782 248.434 350.504C265.547 359.368 279.773 373.301 298.866 377.948Z" fill="#CA7E7E"/>
<path d="M299.603 377.047C298.153 371.879 300.934 365.872 305.841 363.674C305.179 368.801 303.09 373.236 299.603 377.047Z" fill="#CA7E7E"/>
<path d="M334.273 406.801C332.826 402.73 336.719 398.025 340.995 398.724C339.641 402.356 337.586 404.797 334.273 406.801Z" fill="#CA7E7E"/>
<path d="M375.683 402.612C371.289 405.558 374.354 410.483 377.402 413.365C380.706 416.844 384.478 419.38 388.727 421.865C386.148 422.061 383.544 421.485 381.155 420.436C376.345 418.133 371.749 414.414 370.898 408.646C370.541 405.841 372.696 402.31 375.683 402.612Z" fill="#CA7E7E"/>
<path d="M233.891 363.557C238.679 357.827 246.388 354.577 253.835 355.202C247.861 359.517 241.151 362.307 233.891 363.557Z" fill="#CA7E7E"/>
<path d="M239.254 385.722C240.447 395.822 247.555 403.047 252.429 411.6C254.962 415.892 256.9 420.937 257.075 426.202C257.27 430.66 256.383 436.67 256.028 441.108L254.429 455.74C253.034 465.441 253.455 474.998 254.778 484.703C255.349 489.563 256.102 494.4 256.935 499.252C255.3 494.604 254.058 489.825 252.976 485.012C250.725 475.416 249.789 465.218 250.923 455.382L252.327 440.729C252.79 435.857 253.584 430.915 253.562 426.303C253.593 421.692 252.009 417.263 249.878 412.969C245.622 404.479 238.778 395.793 239.254 385.722Z" fill="#CA7E7E"/>
<path d="M279.558 492.903C273.641 499.139 271.248 507.102 272.691 515.571C265.559 508.709 269.83 494.667 279.558 492.903Z" fill="#CA7E7E"/>
<path d="M228.955 508.341C224.767 499.404 229.231 487.137 238.212 483.018C233.238 490.897 230.216 499.107 228.955 508.341Z" fill="#CA7E7E"/>
<path d="M230.216 396.125C229.948 401.612 232.627 406.435 233.472 411.792C234.536 417.327 232.141 423.1 230.295 427.984C223.923 444.568 219.005 461.518 214.222 478.644C215.155 464.335 218.484 450.252 223.164 436.719C225.279 430.111 228.877 423.529 230.67 416.982C232.374 410.316 228.289 402.939 230.216 396.125Z" fill="#CA7E7E"/>
<path d="M217.168 414.585C219.495 411.783 223.507 411.271 226.445 413.439C224.123 416.258 220.108 416.736 217.168 414.585Z" fill="#CA7E7E"/>
<path d="M235.957 416.952C239.541 414.919 244.054 415.532 246.936 418.487C243.353 420.539 238.845 419.891 235.957 416.952Z" fill="#CA7E7E"/>
<path d="M256.698 419.349C259.976 415.936 264.989 414.673 269.484 416.173C266.214 419.603 261.192 420.832 256.698 419.349Z" fill="#CA7E7E"/>
<path d="M379.913 509.38C375.307 511.455 370.689 513.561 366.061 515.672L365.397 515.975C319.773 536.791 272.595 558.316 223.113 557.025C203.646 556.516 184.259 552.187 165.487 544.156C134.898 531.07 108.768 509.088 91.9114 482.259C64.2272 438.2 60.1313 379.067 81.4777 331.611C94.9934 301.564 117.683 276.142 139.627 251.557C147.797 242.404 156.245 232.939 164.156 223.315L165.043 222.23C204.165 174.221 215.081 108.091 193.53 49.6426L172.527 -5.39513L162.333 -8.13023L185.453 52.6208C205.956 108.226 195.577 171.133 158.368 216.794L157.508 217.846C149.702 227.342 141.316 236.737 133.203 245.826C110.826 270.897 87.6889 296.821 73.6276 328.079C50.7847 378.859 54.9987 439.693 84.623 486.838C102.545 515.361 129.863 538.536 161.544 552.088C181.265 560.525 201.904 565.081 222.889 565.629C274.362 566.973 322.459 545.028 368.973 523.804C373.811 521.597 378.636 519.397 383.448 517.229C400.439 509.575 418.424 502.103 436.872 496.214C436.002 493.469 435.175 490.72 434.379 487.966C415.534 493.975 397.215 501.586 379.913 509.38Z" fill="#C95556"/>
<path d="M668.955 1080.74L488.78 1080.74C488.78 1080.74 476.919 862.767 465.958 826.839C454.958 790.914 435.809 786.691 421.069 774.524C406.33 762.356 366.304 733.078 363.067 724.539C359.828 716 356.698 699.285 356.698 699.285C356.698 699.285 334.237 663.625 330.438 653.066C326.64 642.509 321.461 630.143 326.809 625.127C326.809 625.127 322.913 619.396 318.599 613.019C314.286 606.642 309.556 599.618 307.888 596.993C304.803 592.078 289.64 536.206 283.447 521.571C282.691 519.749 283.236 517.641 284.817 516.445C288.372 513.826 295.575 511.478 306.167 522.134C314.748 530.748 319.359 540.719 322.366 549.364C324.859 556.536 326.265 562.793 327.929 566.652C331.015 573.797 336.266 582.317 337.884 584.882C338.199 585.372 338.377 585.655 338.377 585.655C338.377 585.655 350.623 570.032 355.527 565.312C360.412 560.547 388.512 531.33 394.098 530.443C397.36 529.909 401.329 535.035 402.052 542.273C402.236 544.206 402.2 546.306 401.851 548.48C401.439 551.02 400.608 553.661 399.237 556.295C398.741 557.281 398.151 558.265 397.484 559.253C397.484 559.253 397.577 559.387 397.724 559.656C397.74 559.663 397.74 559.663 397.748 559.686C398.637 561.284 401.243 567.23 398.377 578.439C396.338 586.443 384.992 604.999 376.296 618.453C370.581 627.301 366.009 633.96 366.009 633.96L367.257 641.724C367.257 641.724 372.682 633.069 379.404 622.611C389.608 606.77 402.79 586.77 404.569 586.464C407.485 585.952 417.886 584.183 416.511 615.939C416.511 615.939 438.799 627.928 450.821 629.156C450.821 629.156 432.247 609.448 422.111 591.554C414.751 578.553 407.44 561.98 407.815 551.165C407.832 550.818 407.844 550.485 407.877 550.143C408.172 546.523 409.442 543.639 411.966 541.854C422.007 534.8 432.348 538.644 448.081 562.716C463.808 586.804 486.021 612.975 506.018 639.078C526.006 665.197 538.129 684.447 538.527 717.223C538.909 749.992 548.005 770.364 548.458 770.969C548.913 771.574 668.955 1080.74 668.955 1080.74Z" fill="#E9A49F"/>
<path d="M533.124 768.733C528.459 771.757 524.046 775.113 519.59 778.393C511.475 784.36 502.997 790.21 493.272 793.203C488.916 794.542 484.427 795.318 479.855 795.235C475.622 795.147 470.675 794.585 468.01 790.879C467.313 789.926 467.775 788.756 468.756 788.259C480.437 782.319 492.409 776.747 503.666 770.046C504.614 769.495 505.541 768.901 506.478 768.289C509.355 766.205 512.288 764.164 515.332 762.302C518.772 760.084 522.341 758.09 526.158 756.914C527.398 756.47 528.67 756.078 529.954 755.748C533.505 754.889 538.912 754.992 539.843 759.51C540.764 763.874 536.207 766.737 533.124 768.733Z" fill="#DF9492"/>
<path d="M468.283 717.396C463.127 718.635 457.191 717.276 452.361 715.434C447.019 713.429 442.129 710.327 437.513 707.022C436.176 706.075 434.329 705.098 433.245 703.865C433.236 703.842 432.804 703.583 432.669 703.375C432.521 703.893 432.448 705.116 432.442 705.264C432.118 707.991 431.989 710.745 431.827 713.485C431.505 718.965 431.08 724.776 428.617 729.79C426.452 734.238 421.983 733.432 419.202 729.995C416.132 726.228 414.732 721.228 412.624 716.918C412.042 715.695 411.392 714.499 410.616 713.38C410.082 712.571 408.793 710.372 407.752 710.226C406.406 710.043 405.465 712.113 404.801 713.009C402.894 715.584 399.283 717.634 396.885 714.267C395.522 712.373 395.652 709.881 395.637 707.684C395.638 704.838 395.545 701.989 395.337 699.148C394.946 693.231 394.081 687.373 392.903 681.551C391.771 676.01 391.246 670.804 392.962 665.302C394.693 659.769 398.097 654.877 401.591 650.341C408.065 641.948 416.795 632.705 415.271 621.209C415.217 620.812 415.314 620.498 415.451 620.219C415.464 619.401 415.547 618.594 415.94 617.937C417.184 615.773 419.838 616.441 421.595 617.454C427.291 620.733 433.11 623.504 439.455 625.262C452.2 628.786 465.903 628.712 478.555 624.874C479.721 624.511 481.129 625.338 480.901 626.701C480.201 630.877 476.316 632.736 472.56 633.676C467.946 634.83 463.187 635.622 458.463 636.073C449.666 636.935 440.793 636.398 432.346 633.776C429.744 645.285 436.198 656.643 443.584 665.027C451.806 674.35 461.994 681.967 468.77 692.526C472.743 698.74 479.957 714.581 468.283 717.396Z" fill="#DF9492"/>
<path d="M379.407 622.61C372.686 633.068 367.261 641.722 367.261 641.722L366.013 633.959C366.013 633.959 370.584 627.3 376.299 618.452C377.278 619.881 378.316 621.262 379.407 622.61Z" fill="#DF9492"/>
<path d="M399.238 556.294C398.742 557.28 398.152 558.264 397.485 559.252C397.485 559.252 397.578 559.386 397.724 559.655C396.537 558.622 395.65 557.326 394.187 556.587C392.628 555.807 390.824 555.56 389.163 556.16C385.696 557.392 383.507 561.194 381.454 564.024C376.444 570.964 371.563 577.996 366.423 584.843C356.722 597.716 345.882 610.009 332.344 618.975C331.64 619.441 330.802 619.252 330.228 618.8C329.867 618.813 329.483 618.705 329.123 618.364C328.25 617.559 327.535 616.692 326.946 615.747C324.414 611.685 324.259 606.488 323.668 601.741C322.818 594.841 321.23 587.475 315.565 582.861C313.717 581.358 311.393 579.784 310.942 577.25C310.402 574.136 313.069 571.231 314.549 568.774C316.571 565.406 318.447 561.939 319.983 558.307C321.121 555.647 322.609 552.388 322.367 549.364C324.86 556.537 326.266 562.794 327.93 566.652C331.016 573.797 336.267 582.318 337.885 584.883C337.514 585.399 337.138 585.93 336.799 586.459C334.832 589.437 333.138 592.608 331.919 595.982C329.606 602.353 329.845 608.579 331.445 614.993C336.556 609.745 341.454 604.293 346.085 598.633C355.213 587.499 362.742 575.196 371.772 563.983C375.694 559.106 379.912 554.412 385.908 552.126C391.295 550.086 398.863 549.335 401.213 543.186C401.4 542.705 401.692 542.418 402.053 542.272C402.237 544.204 402.2 546.305 401.851 548.479C401.439 551.018 400.609 553.659 399.238 556.294Z" fill="#DF9492"/>
<path d="M343.747 644.491C343.501 642.16 342.234 640.068 340.86 638.228C340.534 637.791 340.194 637.359 339.852 636.925C339.506 636.128 339.132 635.342 338.691 634.582C338.136 633.621 337.47 632.703 336.713 631.867C336.173 630.11 336.303 628.152 335.306 626.564C333.887 624.304 330.929 624.518 329.12 626.158C327.084 628.003 326.323 630.831 326.2 633.491C326.131 634.983 326.131 636.537 326.726 637.936C327.261 639.193 328.166 640.286 329 641.355C329.141 641.536 329.29 641.716 329.434 641.896C330.333 643.453 331.448 644.872 332.783 646.103C334.513 647.696 336.973 649.439 339.395 649.546C340.652 649.601 341.925 649.192 342.79 648.247C343.723 647.228 343.888 645.814 343.747 644.491Z" fill="#DF9492"/>
<path d="M374.255 670.8C373.661 669.058 372.27 667.695 370.8 666.66C369.334 665.628 367.749 664.762 366.536 663.412C365.33 662.068 364.478 660.525 363.931 658.807C363.678 658.013 362.748 657.641 361.968 657.802C361.812 657.764 361.656 657.725 361.481 657.71C359.485 657.544 358.588 659.416 358.099 661.035C357.21 663.978 357.349 667.105 358.403 669.989C359.49 672.962 361.57 675.601 364.325 677.183C367.251 678.864 371.137 678.744 373.393 676C374.604 674.526 374.861 672.58 374.255 670.8Z" fill="#DF9492"/>
<path d="M409.445 600.026C408.575 601.49 407.561 602.853 406.628 604.29C405.928 605.357 405.237 606.447 404.37 607.424C402.73 609.288 400.587 610.488 398.073 610.499C396.645 610.506 395.296 610.116 394.092 609.471C392.292 608.775 390.652 607.531 390.87 605.489C391.03 604.153 391.926 603.019 392.681 601.957C393.648 600.572 394.624 599.211 395.591 597.827C397.468 595.146 399.263 592.395 401.253 589.799C402.742 587.851 404.801 586.541 407.308 587.333C409.598 588.069 411.108 590.139 411.433 592.488C411.824 595.164 410.799 597.779 409.445 600.026Z" fill="#EEBDBB"/>
<path d="M295.704 538.145C295.544 538.956 295.203 539.709 294.724 540.348C294.185 541.783 293.167 542.939 291.447 542.317C290.329 541.912 290.083 540.777 289.73 539.765L288.334 535.76C287.402 533.077 286.466 530.41 285.534 527.727C285.077 526.388 284.596 525.059 284.138 523.721C283.755 522.602 283.053 521.31 283.083 520.105C283.116 519.109 283.796 518.35 284.807 518.352C285.864 518.373 286.925 519.09 287.791 519.648C291.909 522.233 293.961 526.632 294.983 531.246C295.458 533.376 296.175 535.949 295.704 538.145Z" fill="#EEBDBB"/>
<path d="M394.564 564.725C393.393 569.431 390.421 574.321 386.233 576.93C384.418 578.063 382.321 578.851 380.146 578.988C379.754 579.027 379.361 579.027 378.975 579.012C377.157 579.321 375.092 578.193 373.932 576.835C373.077 575.814 373.643 574.839 374.209 573.826C374.984 572.453 375.796 571.078 376.65 569.74C378.201 567.294 379.873 564.919 381.635 562.639C382.558 561.443 383.515 560.26 384.494 559.106C385.201 558.285 385.94 557.347 386.953 556.861C388.971 555.909 391.151 557.553 392.631 558.823C394.475 560.38 395.133 562.386 394.564 564.725Z" fill="#EEBDBB"/>
<path d="M386.096 551.029C382.82 552.604 379.132 551.681 376.749 549.24C376.231 548.962 375.74 548.621 375.308 548.229C374.489 547.43 374.355 546.343 375.112 545.449C376.036 544.384 377.302 543.483 378.373 542.556C380.476 540.703 382.614 538.902 384.767 537.108C386.98 535.265 389.153 533.29 391.508 531.639C393.321 530.335 395.049 531.374 396.01 533.153C396.99 534.977 397.098 537.177 396.302 539.083C395.749 540.42 394.785 541.581 393.903 542.72C393.036 543.828 392.169 544.937 391.269 546.031C389.766 547.879 388.3 549.949 386.096 551.029Z" fill="#EEBDBB"/>
<path d="M416.524 615.934C416.66 624.186 415.146 632.646 411.151 640.261C405.499 649.3 398.325 657.426 394.892 667.651C393.813 672.782 394.913 678.386 395.176 683.718C395.859 691.884 396.696 700.17 396.187 708.446C394.515 696.08 391.392 684.171 390.687 671.633C390.65 670.793 390.717 669.112 390.814 668.275C393.471 656.808 401.726 647.895 408.479 638.701C412.649 631.981 415.036 624.019 416.524 615.934Z" fill="#CA7E7E"/>
<path d="M381.929 619.647C376.53 629.421 370.469 638.715 364.262 647.958C362.18 651.036 360.03 653.982 358.453 657.102C355.012 663.191 355.111 670.35 356.079 677.586C356.998 684.774 358.555 692.471 356.913 699.845C356.879 688.528 351.414 678.148 351.849 666.677C351.934 658.78 356.672 651.759 361.192 645.793C367.815 636.844 374.535 628.014 381.929 619.647Z" fill="#CA7E7E"/>
<path d="M403.188 667.971C410.542 683.355 409.155 703.021 399.664 717.195C403.839 700.978 405.032 684.618 403.188 667.971Z" fill="#CA7E7E"/>
<path d="M424.786 734.35C431.07 704.768 420.338 676.029 412.499 647.855C425.623 673.932 436.646 705.872 424.786 734.35Z" fill="#CA7E7E"/>
<path d="M421.721 640.682C427.288 652.108 436.189 660.703 445.006 669.61C453.865 678.572 462.522 687.667 470.268 697.665C460.269 689.935 451.138 681.25 442.166 672.394C433.484 663.47 424.256 653.302 421.721 640.682Z" fill="#CA7E7E"/>
<path d="M397.057 557.934C396.087 555.698 393.553 554.923 391.439 555.117C389.238 555.266 387.423 556.583 385.985 558.236C383.136 561.702 381.047 566.124 378.43 569.862C373.288 577.752 367.543 585.249 361.372 592.373C352.331 603.144 341.324 612.286 330.864 621.475C327.661 624.662 324.998 628.617 324.372 633.312C324.086 628.541 326.425 623.884 329.405 620.177C338.968 609.797 349.359 600.592 358.373 589.761C364.512 582.793 370.299 575.52 375.896 568.09C380.344 563.017 383.574 554.121 391.422 554.02C393.831 554.098 396.486 555.478 397.057 557.934Z" fill="#CA7E7E"/>
<path d="M331.953 619.014C328.206 610.88 325.481 600.156 330.72 591.775C335.751 583.941 342.635 577.904 349.009 571.27C353.308 567.026 357.708 562.877 362.402 558.997C358.929 563.999 355.165 568.733 351.296 573.372C347.451 578.024 343.415 582.531 339.379 586.985C335.323 591.336 331.736 595.808 330.902 601.403C329.971 606.992 331.108 613.013 331.953 619.014Z" fill="#CA7E7E"/>
<path d="M539.015 754.641C532.102 757.489 525.243 759.22 517.799 759.932C522.903 754.172 531.803 751.973 539.015 754.641Z" fill="#CA7E7E"/>
<path d="M502.42 769.083C498.317 774.611 492.726 778.818 486.719 782.068C480.659 785.224 474.038 787.49 467.158 787.774C470.159 786.07 473.142 784.595 476.095 783.098C484.431 778.928 494.161 773.378 502.42 769.083Z" fill="#CA7E7E"/>
<path d="M443.598 615.397C449.377 611.687 455.774 609.603 462.638 609.258C458.095 614.599 450.401 617.059 443.598 615.397Z" fill="#CA7E7E"/>
<path d="M429.553 592.198C432.157 588.457 436.904 586.801 441.263 588.161C438.668 591.92 433.91 593.54 429.553 592.198Z" fill="#CA7E7E"/>
<path d="M418.761 616.681C438.398 626.51 460.735 629.157 482.136 624.252C462.308 634.8 435.554 631.583 418.761 616.681Z" fill="#CA7E7E"/>
<path d="M389.353 557.302C399.435 559.386 399.225 567.043 393.511 573.978C389.686 579.496 380.2 583.32 374.862 577.846C381.224 579.784 386.652 576.341 390.391 571.51C395.552 565.009 395.912 562.453 389.353 557.302Z" fill="#CA7E7E"/>
<path d="M283.94 519.505C293.038 512.029 304.72 541.94 292.23 542.408C293.403 541.68 294.068 540.656 294.403 539.574C295.39 536.123 293.596 532.847 292.472 529.451C290.603 525.68 289.355 518.75 283.94 519.505Z" fill="#CA7E7E"/>
<path d="M326.215 567.024C327.363 571.377 324.238 576.123 319.77 576.746C320.181 572.479 322.458 569.077 326.215 567.024Z" fill="#CA7E7E"/>
<path d="M375.326 547.413C379.375 553.431 385.686 548.483 389.845 544.986C393.215 542.324 396.644 539.406 395.729 535.038C395.402 533.726 394.576 532.435 393.117 531.674C394.801 531.545 396.507 532.676 397.499 534.21C402.119 542.15 390.508 551.307 383.297 552.822C379.849 553.477 375.223 551.178 375.326 547.413Z" fill="#CA7E7E"/>
<path d="M404.396 587.375C407.818 586.512 412.074 589.21 412.718 593.438C413.375 602.173 405.408 613.623 395.678 610.994C393.897 610.455 392.27 609.329 391.436 607.799C394.385 609.625 397.671 609.262 400.269 608.092C404.229 606.222 406.734 601.778 408.54 597.801C410.718 593.691 409.607 588.936 404.396 587.375Z" fill="#CA7E7E"/>
<path d="M634.288 559.621C620.837 527.825 593.45 500.561 561.024 486.689C555.535 484.34 549.888 482.365 544.24 480.819C507.985 470.894 470.232 476.533 434.38 487.966C435.177 490.719 436.003 493.469 436.873 496.214C471.432 485.182 507.62 479.719 541.968 489.123C547.266 490.574 552.561 492.425 557.707 494.627C588.089 507.625 613.753 533.176 626.36 562.976C641.339 598.38 639.13 641.294 620.595 674.971C608.683 696.621 590.527 714.679 572.969 732.146C568.12 736.968 563.106 741.954 558.274 746.968C554.813 750.559 551.19 754.037 547.328 757.745C527.377 776.899 504.786 798.593 514.564 832.765L522.812 830.293C514.531 801.167 533.362 783.086 553.291 763.953C557.021 760.372 560.878 756.669 564.47 752.944C569.207 748.032 574.168 743.097 579.04 738.249C597.028 720.355 615.63 701.853 628.138 679.124C647.913 643.185 650.269 597.396 634.288 559.621Z" fill="#C95556"/>
<path d="M540.709 319.147L548.337 322.41L544.832 330.602L537.205 327.339L533.945 334.958L525.762 331.458L529.022 323.838L521.393 320.574L524.898 312.382L532.526 315.646L535.79 308.017L543.973 311.518L540.709 319.147Z" fill="#F2D2D7"/>
<path d="M514.653 270.637L510.32 280.765L500.892 276.732L496.859 286.159L486.73 281.826L490.763 272.398L481.336 268.365L485.669 258.237L495.096 262.27L499.13 252.842L509.259 257.175L505.225 266.604L514.653 270.637Z" fill="#F2D2D7"/>
<path d="M546.316 270.933L548.755 265.234L543.047 262.793L545.668 256.668L551.375 259.109L553.813 253.412L559.929 256.029L557.492 261.726L563.19 264.164L560.569 270.289L554.871 267.851L552.433 273.55L546.316 270.933Z" fill="#F2D2D7"/>
<path d="M67.5834 685.427L80.2733 690.856L74.439 704.493L61.749 699.064L56.3155 711.765L42.6781 705.93L48.1116 693.23L35.4123 687.797L41.2467 674.159L53.9459 679.592L59.3744 666.904L73.0119 672.738L67.5834 685.427Z" fill="#F2D2D7"/>
<path d="M133.871 686.882L143.392 690.955L139.018 701.18L129.497 697.107L125.429 706.617L115.215 702.247L119.283 692.737L109.763 688.664L114.137 678.44L123.657 682.513L127.726 673.003L137.94 677.373L133.871 686.882Z" fill="#F2D2D7"/>
<path d="M71.1199 644.477L73.9026 637.973L67.3888 635.186L70.3807 628.193L76.8945 630.979L79.6777 624.474L86.6617 627.461L83.8785 633.967L90.3829 636.75L87.391 643.743L80.8866 640.96L78.1039 647.465L71.1199 644.477Z" fill="#F2D2D7"/>
<path d="M506.6 893.197L514.613 922.44C516.417 929.023 523.23 932.905 529.794 931.107L559.056 923.09C565.62 921.29 569.503 914.477 567.699 907.896L559.686 878.652C557.882 872.071 551.069 868.188 544.505 869.986L515.243 878.003C508.68 879.801 504.798 886.615 506.6 893.197ZM511.966 891.726C510.977 888.114 513.101 884.359 516.714 883.369L545.976 875.352C549.588 874.362 553.331 876.51 554.32 880.123L562.333 909.366C563.327 912.997 561.198 916.734 557.585 917.724L528.324 925.741C524.711 926.73 520.973 924.601 519.979 920.97L511.966 891.726Z" fill="#FAF1F2"/>
<path d="M511.966 891.726L519.979 920.97C520.973 924.601 524.711 926.73 528.324 925.741L557.585 917.723C561.198 916.734 563.329 912.996 562.333 909.366L554.32 880.123C553.331 876.51 549.588 874.362 545.976 875.352L516.714 883.369C513.101 884.359 510.977 888.114 511.966 891.726Z" fill="#F2D2D7"/>
<path d="M519.754 862.612L520.406 865.013L525.435 883.335C526.417 886.947 530.135 889.057 533.729 888.079C537.32 887.082 539.451 883.379 538.47 879.767L533.441 861.445L532.791 859.061L519.754 862.612Z" fill="#FAF1F2"/>
<path d="M509.652 825.726L519.754 862.612L532.79 859.061L522.668 822.159L509.652 825.726Z" fill="#8BB6D3"/>
<path d="M517.66 863.187L518.312 865.588L520.406 865.013L533.443 861.444L535.535 860.869L534.867 858.488L532.79 859.061L519.754 862.612L517.66 863.187Z" fill="#FAF1F2"/>
<path d="M537.001 907.635L540.909 906.564L534.424 882.895L530.516 883.966L537.001 907.635Z" fill="#FAF1F2"/>
<path d="M512.338 843.201L516.387 857.935L533.506 853.252L529.437 838.502L512.338 843.201Z" fill="#74A5C3"/>
</svg>
