<svg width="295" height="187" viewBox="0 0 295 187" fill="none" xmlns="http://www.w3.org/2000/svg">
<path d="M13.7546 238.385C17.9995 264.564 20.122 306.309 46.3015 321.167C74.6034 336.733 199.826 333.711 231.678 333.008L231.104 332.992C254.545 333.241 282.648 323.991 290.991 195.014C293.507 156.122 297.478 111.735 288.989 73.5288C280.497 38.8588 245.828 31.0762 213.989 26.8306C165.877 21.1705 111.395 20.4625 63.9897 32.4907C25.0748 42.3964 2.43444 65.0375 0.311278 105.368C-1.81117 149.235 7.38658 195.225 13.7546 238.385Z" fill="#FFF1E6"/>
<path d="M178.341 180.948L44.7975 144.975L82.3153 5.6968L84.7177 3.81512L215.859 41.6711L180.744 179.066L178.341 180.948Z" fill="#EBE8E3"/>
<path d="M84.0093 3.55517L46.4918 142.836L180.04 178.809L217.558 39.5286L84.0093 3.55517Z" fill="white"/>
<path d="M94.247 16.6346C93.644 18.8698 91.3444 20.1935 89.1098 19.5905C86.8746 18.9887 85.5515 16.6898 86.1539 14.4546C86.755 12.218 89.0545 10.8937 91.2898 11.4955C93.5263 12.0998 94.8493 14.3999 94.247 16.6346Z" fill="#FFF7F2"/>
<path d="M94.1884 14.263C94.2669 14.8094 94.2411 15.3829 94.0875 15.9544C93.4858 18.1884 91.1837 19.512 88.9484 18.9109C87.5264 18.5265 86.4734 17.451 86.0516 16.144C86.2856 17.7499 87.4434 19.143 89.1098 19.5905C91.345 20.1935 93.6446 18.8698 94.2469 16.6345C94.4649 15.8239 94.4263 15.0055 94.1884 14.263Z" fill="#EFE2D8"/>
<path d="M93.4081 14.8126C92.9922 16.3639 91.3953 17.2819 89.8447 16.8653C88.2941 16.4481 87.3729 14.8512 87.792 13.2993L90.7948 2.15199C91.2121 0.602032 92.8089 -0.316628 94.3602 0.100594C95.9121 0.518458 96.8314 2.1147 96.4129 3.6653L93.4081 14.8126Z" fill="#304B54"/>
<path opacity="0.6" d="M95.8882 1.12469C95.9338 1.48984 95.9158 1.87299 95.8136 2.251L92.8088 13.3983C92.3929 14.9509 90.7986 15.8689 89.246 15.4504C88.6128 15.2794 88.0927 14.9072 87.7192 14.4276C87.8639 15.5597 88.672 16.549 89.8452 16.8653C91.3958 17.2813 92.992 16.3632 93.4086 14.8127L96.4134 3.66531C96.6596 2.74729 96.4307 1.82028 95.8882 1.12469Z" fill="#1D1F36"/>
<path d="M93.6671 0.693347C92.4765 0.650918 91.7533 1.43843 91.3907 2.54609C90.8732 4.14169 89.9584 6.46695 90.4528 8.11976C90.5466 8.4367 90.9523 8.47784 91.1284 8.21041C91.8266 7.15353 91.9622 5.71994 92.2624 4.49913C92.5543 3.31368 92.6919 1.76951 93.7449 0.974923C93.858 0.886207 93.8285 0.69849 93.6671 0.693347Z" fill="#4C6480"/>
<path d="M89.6896 9.44149C89.6626 9.4627 89.6356 9.48392 89.6099 9.50771C89.2634 9.79378 89.4711 10.3691 89.8652 10.4752C90.2586 10.5813 90.7266 10.1866 90.5717 9.7655C90.5601 9.734 90.5485 9.70121 90.5344 9.66907C90.3975 9.29556 89.9976 9.18691 89.6896 9.44149Z" fill="#4C6480"/>
<path d="M113.016 21.6907C112.414 23.9273 110.114 25.249 107.88 24.6473C105.644 24.0443 104.321 21.7454 104.921 19.5088C105.524 17.2742 107.823 15.9505 110.058 16.5523C112.294 17.154 113.619 19.4555 113.016 21.6907Z" fill="#FFF7F2"/>
<path d="M112.958 19.3185C113.039 19.8669 113.01 20.4397 112.856 21.0093C112.255 23.2439 109.956 24.5688 107.719 23.9665C106.294 23.5827 105.243 22.5078 104.823 21.2015C105.054 22.8061 106.213 24.1992 107.88 24.6473C110.116 25.249 112.416 23.9273 113.017 21.6907C113.236 20.8794 113.198 20.0617 112.958 19.3185Z" fill="#EFE2D8"/>
<path d="M112.178 19.8688C111.761 21.4213 110.165 22.3393 108.612 21.9208C107.062 21.5036 106.144 19.908 106.562 18.3561L109.565 7.20879C109.982 5.65755 111.579 4.73889 113.129 5.1574C114.681 5.5759 115.599 7.17086 115.181 8.7221L112.178 19.8688Z" fill="#304B54"/>
<path opacity="0.6" d="M114.655 6.17957C114.705 6.54664 114.684 6.92851 114.582 7.30651L111.578 18.4551C111.162 20.0064 109.564 20.9231 108.013 20.5052C107.379 20.3349 106.861 19.9633 106.487 19.4831C106.632 20.6165 107.441 21.6058 108.613 21.9202C110.165 22.3387 111.761 21.4207 112.178 19.8682L115.181 8.72147C115.428 7.8041 115.199 6.87579 114.655 6.17957Z" fill="#1D1F36"/>
<path d="M112.435 5.7482C111.244 5.7077 110.523 6.49521 110.162 7.60223C109.638 9.19783 108.726 11.5244 109.222 13.1759C109.317 13.4928 109.721 13.5333 109.898 13.2678C110.598 12.211 110.731 10.7761 111.032 9.55591C111.321 8.3711 111.461 6.82629 112.512 6.03106C112.629 5.9417 112.598 5.75463 112.435 5.7482Z" fill="#4C6480"/>
<path d="M108.46 14.4976C108.432 14.5188 108.405 14.5413 108.378 14.5626C108.033 14.848 108.239 15.424 108.634 15.5301C109.028 15.6361 109.495 15.2427 109.341 14.8216C109.329 14.7895 109.315 14.7561 109.305 14.7258C109.167 14.3517 108.766 14.2437 108.46 14.4976Z" fill="#4C6480"/>
<path d="M131.785 26.7475C131.184 28.9828 128.882 30.3051 126.647 29.7034C124.411 29.1017 123.089 26.8021 123.69 24.5663C124.293 22.331 126.591 21.006 128.829 21.6084C131.064 22.2108 132.388 24.5116 131.785 26.7475Z" fill="#FFF7F2"/>
<path d="M131.724 24.374C131.806 24.9217 131.778 25.4958 131.625 26.0654C131.022 28.3007 128.723 29.625 126.485 29.022C125.063 28.6395 124.01 27.5639 123.591 26.257C123.823 27.8629 124.98 29.2553 126.647 29.7034C128.882 30.3051 131.184 28.9821 131.785 26.7475C132.004 25.9349 131.965 25.1178 131.724 24.374Z" fill="#EFE2D8"/>
<path d="M130.948 24.9243C130.528 26.4769 128.932 27.3949 127.38 26.9764C125.831 26.5598 124.912 24.9629 125.328 23.4117L128.332 12.2637C128.75 10.7124 130.347 9.79442 131.898 10.2129C133.45 10.6301 134.368 12.2257 133.95 13.777L130.948 24.9243Z" fill="#304B54"/>
<path opacity="0.6" d="M133.425 11.2364C133.472 11.6028 133.452 11.9847 133.351 12.3627L130.348 23.5113C129.929 25.0626 128.333 25.9806 126.782 25.5634C126.15 25.3917 125.63 25.0188 125.254 24.5386C125.4 25.672 126.208 26.6627 127.38 26.977C128.932 27.3955 130.528 26.4775 130.948 24.925L133.95 13.7777C134.198 12.8596 133.967 11.932 133.425 11.2364Z" fill="#1D1F36"/>
<path d="M131.204 10.8043C130.016 10.7638 129.292 11.5514 128.93 12.6577C128.41 14.2533 127.496 16.5805 127.991 18.2314C128.086 18.5483 128.487 18.5888 128.665 18.3221C129.366 17.2652 129.501 15.8329 129.799 14.6114C130.092 13.4266 130.23 11.8812 131.281 11.0866C131.396 10.9985 131.365 10.8101 131.204 10.8043Z" fill="#4C6480"/>
<path d="M127.227 19.5525C127.2 19.575 127.173 19.5963 127.148 19.6188C126.802 19.9055 127.008 20.4809 127.402 20.5863C127.798 20.693 128.265 20.2996 128.109 19.8778C128.097 19.8451 128.086 19.8136 128.073 19.7814C127.934 19.4079 127.535 19.2999 127.227 19.5525Z" fill="#4C6480"/>
<path d="M150.555 31.8024C149.951 34.0383 147.651 35.3613 145.415 34.7583C143.182 34.1572 141.856 31.857 142.46 29.6231C143.061 27.3865 145.363 26.0629 147.596 26.6639C149.833 27.2669 151.156 29.5665 150.555 31.8024Z" fill="#FFF7F2"/>
<path d="M150.495 29.4308C150.575 29.9786 150.548 30.5514 150.395 31.1216C149.792 33.3562 147.493 34.6799 145.257 34.0781C143.831 33.6937 142.78 32.6195 142.36 31.3125C142.593 32.9191 143.75 34.3102 145.415 34.7577C147.652 35.3607 149.952 34.0376 150.555 31.8017C150.772 30.9898 150.735 30.1746 150.495 29.4308Z" fill="#EFE2D8"/>
<path d="M149.715 29.9798C149.296 31.5311 147.702 32.4497 146.15 32.0312C144.6 31.6159 143.681 30.0203 144.098 28.4672L147.102 17.3205C147.521 15.7692 149.116 14.8499 150.666 15.2684C152.216 15.6857 153.136 17.2813 152.72 18.8331L149.715 29.9798Z" fill="#304B54"/>
<path opacity="0.6" d="M152.195 16.2919C152.242 16.6589 152.221 17.0402 152.12 17.4195L149.116 28.5668C148.698 30.1161 147.103 31.0361 145.551 30.6182C144.918 30.4472 144.399 30.075 144.022 29.5935C144.172 30.7288 144.977 31.7162 146.15 32.0319C147.702 32.4504 149.297 31.5317 149.716 29.9805L152.72 18.8338C152.967 17.9151 152.737 16.9875 152.195 16.2919Z" fill="#1D1F36"/>
<path d="M149.973 15.8598C148.783 15.82 148.061 16.6075 147.7 17.7139C147.177 19.3101 146.265 21.6354 146.761 23.2888C146.856 23.6045 147.259 23.645 147.434 23.3795C148.136 22.322 148.27 20.8877 148.569 19.6676C148.861 18.4821 148.999 16.9386 150.05 16.1421C150.165 16.0534 150.136 15.8656 149.973 15.8598Z" fill="#4C6480"/>
<path d="M145.995 24.6093C145.97 24.6312 145.944 24.653 145.916 24.6749C145.57 24.961 145.778 25.537 146.172 25.6431C146.565 25.7498 147.032 25.3557 146.878 24.934C146.866 24.9018 146.854 24.8697 146.843 24.8375C146.704 24.4628 146.302 24.3541 145.995 24.6093Z" fill="#4C6480"/>
<path d="M169.322 36.8586C168.72 39.0945 166.421 40.4168 164.184 39.8145C161.947 39.2128 160.625 36.9132 161.227 34.6773C161.83 32.4421 164.13 31.1184 166.365 31.7201C168.601 32.3218 169.926 34.622 169.322 36.8586Z" fill="#FFF7F2"/>
<path d="M169.262 34.4864C169.342 35.0348 169.317 35.6076 169.162 36.1791C168.561 38.413 166.259 39.7367 164.025 39.1356C162.601 38.7512 161.548 37.6757 161.125 36.3681C161.361 37.974 162.52 39.367 164.184 39.8145C166.421 40.4169 168.721 39.0945 169.322 36.8586C169.541 36.0486 169.504 35.2308 169.262 34.4864Z" fill="#EFE2D8"/>
<path d="M168.484 35.0373C168.066 36.5879 166.471 37.5065 164.919 37.0887C163.368 36.6708 162.449 35.0752 162.867 33.524L165.87 22.3766C166.288 20.8254 167.885 19.9067 169.435 20.3252C170.986 20.7425 171.905 22.3381 171.487 23.89L168.484 35.0373Z" fill="#304B54"/>
<path opacity="0.6" d="M170.964 21.3487C171.011 21.7151 170.99 22.0957 170.889 22.4744L167.885 33.623C167.467 35.1736 165.872 36.0922 164.32 35.6731C163.687 35.5027 163.166 35.1305 162.793 34.6509C162.938 35.7824 163.748 36.7724 164.92 37.088C166.472 37.5059 168.066 36.5872 168.485 35.0366L171.488 23.8887C171.733 22.9713 171.505 22.0443 170.964 21.3487Z" fill="#1D1F36"/>
<path d="M168.741 20.916C167.553 20.8755 166.829 21.6631 166.469 22.7701C165.946 24.365 165.034 26.6916 165.526 28.3431C165.621 28.6594 166.026 28.7005 166.204 28.435C166.905 27.3775 167.036 25.9426 167.339 24.7231C167.627 23.537 167.768 21.9922 168.818 21.1976C168.935 21.1102 168.905 20.9225 168.741 20.916Z" fill="#4C6480"/>
<path d="M164.766 29.6655C164.739 29.6873 164.712 29.7085 164.685 29.7298C164.339 30.0165 164.547 30.5925 164.939 30.6986C165.332 30.8046 165.802 30.4106 165.648 29.9895C165.635 29.958 165.624 29.9258 165.61 29.8918C165.474 29.5189 165.071 29.4109 164.766 29.6655Z" fill="#4C6480"/>
<path d="M188.09 41.9147C187.49 44.1493 185.189 45.473 182.954 44.8706C180.719 44.2676 179.395 41.9693 179.996 39.7328C180.599 37.4976 182.899 36.1726 185.135 36.7756C187.368 37.378 188.693 39.6788 188.09 41.9147Z" fill="#FFF7F2"/>
<path d="M188.033 39.5419C188.112 40.0902 188.085 40.6617 187.932 41.2326C187.329 43.4685 185.029 44.7922 182.794 44.1904C181.369 43.8067 180.319 42.7305 179.898 41.4235C180.13 43.0288 181.289 44.4225 182.954 44.87C185.19 45.473 187.491 44.1487 188.09 41.9141C188.31 41.1034 188.272 40.2857 188.033 39.5419Z" fill="#EFE2D8"/>
<path d="M187.253 40.0928C186.835 41.6454 185.239 42.5621 183.688 42.1449C182.136 41.7264 181.218 40.1314 181.637 38.5795L184.639 27.4328C185.056 25.8809 186.652 24.9629 188.205 25.3814C189.755 25.7987 190.672 27.3936 190.256 28.9455L187.253 40.0928Z" fill="#304B54"/>
<path opacity="0.6" d="M189.733 26.4042C189.778 26.7707 189.76 27.1525 189.658 27.5312L186.654 38.6792C186.236 40.2298 184.639 41.1478 183.087 40.7286C182.456 40.5583 181.935 40.1854 181.561 39.7052C181.708 40.8386 182.515 41.8273 183.688 42.1436C185.239 42.5608 186.835 41.6441 187.253 40.0915L190.257 28.9442C190.502 28.0275 190.274 27.0992 189.733 26.4042Z" fill="#1D1F36"/>
<path d="M187.511 25.9729C186.321 25.9317 185.597 26.7179 185.238 27.8262C184.717 29.4212 183.803 31.7484 184.296 33.3993C184.392 33.7169 184.796 33.7573 184.971 33.4912C185.672 32.433 185.807 30.9994 186.108 29.7793C186.397 28.5938 186.537 27.0503 187.586 26.2531C187.703 26.1651 187.673 25.978 187.511 25.9729Z" fill="#4C6480"/>
<path d="M183.534 34.7204C183.507 34.7423 183.481 34.7648 183.454 34.7866C183.108 35.0733 183.315 35.6487 183.709 35.7548C184.103 35.8602 184.573 35.4674 184.416 35.0457C184.404 35.0142 184.393 34.9808 184.38 34.9493C184.241 34.5751 183.841 34.4665 183.534 34.7204Z" fill="#4C6480"/>
<path d="M206.859 46.9715C206.258 49.2061 203.958 50.5298 201.722 49.9281C199.488 49.3244 198.163 47.0242 198.764 44.7902C199.367 42.5543 201.667 41.23 203.903 41.8318C206.139 42.4348 207.462 44.735 206.859 46.9715Z" fill="#FFF7F2"/>
<path d="M206.801 44.5987C206.88 45.1451 206.854 45.7192 206.7 46.2894C206.098 48.524 203.797 49.8471 201.564 49.246C200.136 48.8628 199.085 47.7873 198.664 46.4797C198.897 48.0856 200.057 49.4774 201.722 49.9274C203.958 50.5292 206.258 49.2055 206.86 46.9709C207.078 46.1589 207.042 45.3425 206.801 44.5987Z" fill="#EFE2D8"/>
<path d="M206.021 45.1484C205.605 46.7009 204.008 47.6195 202.457 47.201C200.906 46.7819 199.987 45.1869 200.405 43.6344L203.41 32.489C203.825 30.9371 205.422 30.0184 206.973 30.4357C208.523 30.8542 209.444 32.4504 209.025 34.0004L206.021 45.1484Z" fill="#304B54"/>
<path opacity="0.6" d="M208.499 31.4604C208.547 31.8268 208.528 32.2074 208.425 32.5867L205.422 43.7347C205.004 45.2859 203.41 46.2046 201.859 45.7867C201.224 45.6144 200.706 45.2435 200.331 44.7633C200.476 45.8966 201.285 46.8854 202.458 47.2023C204.009 47.6202 205.605 46.7022 206.022 45.1496L209.026 34.0023C209.272 33.0836 209.043 32.1566 208.499 31.4604Z" fill="#1D1F36"/>
<path d="M206.278 31.0284C205.089 30.9879 204.366 31.7741 204.006 32.8824C203.484 34.4774 202.572 36.8039 203.066 38.4561C203.158 38.7724 203.565 38.8142 203.742 38.5468C204.442 37.4905 204.575 36.0563 204.876 34.8361C205.167 33.6513 205.305 32.1059 206.355 31.3113C206.472 31.2219 206.442 31.0342 206.278 31.0284Z" fill="#4C6480"/>
<path d="M202.304 39.7772C202.275 39.7997 202.25 39.8216 202.223 39.8428C201.876 40.1289 202.082 40.7036 202.478 40.811C202.872 40.917 203.339 40.523 203.185 40.1019C203.173 40.0691 203.161 40.0376 203.149 40.0048C203.011 39.6313 202.61 39.5239 202.304 39.7772Z" fill="#4C6480"/>
<path d="M195.951 82.1454C197.268 76.8578 198.465 71.5361 199.601 66.2068C199.705 66.165 199.739 65.9972 199.605 65.9593C176.299 59.3184 152.93 52.8769 129.491 46.7291C114.938 42.9124 100.245 38.7434 85.3644 36.3841C85.3438 36.3545 85.2846 36.3507 85.275 36.3937C77.8254 69.7413 67.834 102.426 58.5651 135.291C58.4687 135.633 58.9701 135.822 59.0897 135.507C73.3369 138.352 87.4138 142.327 101.426 146.13C117.775 150.567 134.07 155.2 150.342 159.909C157.787 162.066 165.23 164.234 172.66 166.443C172.767 166.619 173.068 166.658 173.14 166.409C181.147 138.439 188.916 110.376 195.951 82.1454ZM82.0189 116.989C83.6505 111.22 85.1766 105.422 86.6488 99.6096C88.8879 100.227 91.1264 100.844 93.3642 101.431C96.2301 102.182 99.0954 102.938 101.961 103.691C100.308 109.973 98.6467 116.254 96.9681 122.53C91.8194 121.268 86.6668 120.021 81.5091 118.793C81.6801 118.191 81.8498 117.589 82.0189 116.989ZM176.809 82.2225C176.254 85.118 175.364 87.9826 174.627 90.8344C173.726 94.3297 172.818 97.823 171.908 101.316C170.548 100.962 169.188 100.605 167.836 100.237C163.937 99.1769 160.039 98.1194 156.14 97.0619C156.924 94.2204 157.708 91.3789 158.498 88.5387C159.47 85.0467 160.639 81.5115 161.29 77.9417C161.297 77.9102 161.247 77.9012 161.236 77.9308C160.366 80.2926 159.809 82.7947 159.132 85.2177C158.036 89.1385 156.99 93.0742 155.944 97.0085C150.83 95.6206 145.715 94.2333 140.6 92.8479C142.299 86.2617 144.01 79.581 144.886 72.8392C155.557 75.8652 166.195 79.0076 176.809 82.2225ZM123.717 88.4719C128.496 89.7775 133.275 91.0813 138.053 92.3953C138.737 92.5837 139.421 92.772 140.105 92.9604C138.504 99.3961 136.769 105.798 134.957 112.184C130.921 111.107 126.883 110.032 122.847 108.95C121.373 108.556 119.899 108.163 118.425 107.769C120.182 101.334 121.944 94.9018 123.717 88.4719ZM118.281 107.73C112.917 106.293 107.552 104.862 102.188 103.429C103.915 96.9629 105.651 90.4995 107.377 84.0335C112.762 85.4902 118.146 86.9502 123.526 88.4198C123.044 90.2346 122.561 92.0488 122.073 93.861C120.828 98.4891 119.557 103.11 118.281 107.73ZM140.203 94.385C140.315 93.951 140.428 93.5152 140.539 93.0799C145.648 94.4859 150.756 95.8919 155.865 97.3004C155.36 99.2001 154.855 101.099 154.344 102.996C153.143 107.457 151.92 111.912 150.69 116.365C145.568 115.009 140.447 113.649 135.329 112.283C137.027 106.337 138.665 100.374 140.203 94.385ZM156.058 97.3544C161.308 98.8015 166.558 100.252 171.806 101.705C171.143 104.252 170.48 106.798 169.814 109.345C168.832 113.105 167.846 116.865 166.858 120.624C166.089 120.429 165.32 120.233 164.555 120.032C159.979 118.83 155.406 117.616 150.833 116.405C152.568 110.051 154.307 103.701 156.058 97.3544ZM140.162 92.7289C135.333 91.4207 130.501 90.1131 125.672 88.8062C125.037 88.6345 124.403 88.4584 123.768 88.2867C124.585 85.325 125.404 82.3633 126.227 79.4023C127.198 75.9102 128.366 72.3751 129.019 68.8059C129.024 68.7737 128.975 68.7654 128.964 68.7943C128.095 71.1562 127.537 73.6589 126.861 76.0819C125.731 80.1223 124.655 84.1788 123.576 88.234C118.192 86.7741 112.812 85.3038 107.434 83.8233C108.114 81.282 108.792 78.7414 109.464 76.1989C110.501 72.2748 111.773 68.3257 112.533 64.3341C112.576 64.1033 112.212 64.0782 112.169 64.3071C111.614 67.2219 110.717 70.1038 109.976 72.9749C109.049 76.5685 108.115 80.1615 107.179 83.7532C102.079 82.3492 96.9797 80.9413 91.8805 79.5334C91.7705 79.5039 91.6613 79.4717 91.5513 79.4415C92.3138 76.1687 93.064 72.8926 93.7962 69.6127C94.5059 66.4421 95.4053 63.2091 95.8476 59.9767C112.198 63.8667 128.445 68.1784 144.616 72.7615C143.309 79.4634 141.805 86.1132 140.162 92.7289ZM96.4108 81.068C99.9832 82.0271 103.552 82.9985 107.122 83.9641C106.469 86.4713 105.816 88.9778 105.161 91.485C104.125 95.4534 103.084 99.4219 102.04 103.389C97.4619 102.166 92.8846 100.936 88.3042 99.7176C87.7796 99.5787 87.255 99.4347 86.7305 99.2913C87.3958 96.6627 88.0528 94.0314 88.697 91.3982C89.6427 87.5339 90.5665 83.6639 91.471 79.7893C93.1238 80.2084 94.7747 80.6289 96.4108 81.068ZM98.3953 117.776C99.6155 113.09 100.858 108.409 102.108 103.729C107.476 105.14 112.846 106.553 118.214 107.967C116.502 114.16 114.774 120.349 113.039 126.535C107.75 125.194 102.454 123.876 97.1546 122.576C97.566 120.976 97.9787 119.376 98.3953 117.776ZM114.95 120.511C116.086 116.343 117.222 112.174 118.36 108.007C123.875 109.46 129.39 110.914 134.904 112.37C134.206 114.827 133.498 117.281 132.778 119.733C131.699 123.419 130.597 127.099 129.473 130.772C129.196 130.7 128.921 130.625 128.644 130.553C123.531 129.212 118.412 127.898 113.288 126.599C113.843 124.57 114.398 122.541 114.95 120.511ZM133.133 119.86C133.858 117.399 134.571 114.935 135.277 112.468C135.416 112.504 135.554 112.541 135.693 112.578C140.677 113.893 145.658 115.224 150.635 116.561C148.929 122.737 147.206 128.908 145.477 135.078C140.272 133.642 135.057 132.242 129.835 130.868C130.953 127.203 132.051 123.533 133.133 119.86ZM147.221 129.647C148.407 125.297 149.592 120.948 150.779 116.599C156.115 118.033 161.448 119.474 166.782 120.916C165.133 127.186 163.475 133.454 161.803 139.718C159.905 139.163 158.006 138.618 156.111 138.07C152.654 137.072 149.189 136.102 145.722 135.144C146.222 133.311 146.722 131.479 147.221 129.647ZM163.049 135.635C164.324 130.738 165.625 125.846 166.93 120.957C167.755 121.18 168.58 121.403 169.407 121.626C174.22 122.928 179.067 124.446 183.969 125.383C184.007 125.391 184.018 125.331 183.983 125.318C178.469 123.41 172.685 122.094 167.009 120.662C168.69 114.365 170.38 108.072 172.061 101.775C172.215 101.818 172.368 101.86 172.522 101.903C178.011 103.422 183.61 104.749 189.023 106.529C189.29 106.617 189.438 106.207 189.17 106.118C183.601 104.286 177.858 102.863 172.166 101.384C172.817 98.9429 173.469 96.5013 174.115 94.0584C175.142 90.178 176.394 86.2739 177.156 82.328C178.334 82.6854 179.513 83.0409 180.69 83.3996C185.157 84.7606 189.745 85.9634 194.115 87.6207C194.148 87.6336 194.179 87.6361 194.208 87.6361C189.31 106.904 183.998 126.077 178.595 145.21C173.159 143.125 167.576 141.408 161.979 139.77C162.335 138.392 162.691 137.014 163.049 135.635ZM100.028 145.345C86.5048 141.678 72.9294 137.887 59.1328 135.375C68.3399 102.54 78.5583 69.9007 85.3644 36.4522C98.2346 38.5795 110.922 42.1924 123.535 45.4537C139.663 49.6253 155.739 54.0013 171.794 58.4441C181.025 60.9989 190.252 63.5736 199.465 66.1984C197.818 73.2044 196.099 80.1949 194.327 87.1733C194.313 87.1643 194.303 87.1534 194.285 87.1469C191.326 86.0251 188.225 85.2035 185.202 84.2784C178.528 82.236 171.837 80.2451 165.141 78.2785C158.415 76.3043 151.684 74.3468 144.943 72.4252C144.947 72.3969 144.952 72.3687 144.955 72.3397C144.976 72.1758 144.733 72.1655 144.703 72.3217C144.701 72.3333 144.699 72.3442 144.697 72.3558C133.518 69.1697 122.312 66.0801 111.059 63.1647C101.182 60.6054 91.2286 57.9228 81.1478 56.2944C80.9806 56.2674 80.9196 56.5502 81.0854 56.5875C85.8793 57.645 90.6622 58.7463 95.4375 59.8803C94.9875 63.229 94.0675 66.5713 93.3417 69.8602C92.6429 73.025 91.9235 76.1847 91.19 79.3412C86.5055 78.031 81.7913 76.5537 77.0225 75.6184C76.9846 75.6106 76.9743 75.6717 77.009 75.6839C81.5939 77.2937 86.3653 78.4971 91.1071 79.6986C90.1659 83.7436 89.2004 87.784 88.2097 91.8174C87.6054 94.2795 86.9895 96.7385 86.364 99.1936C81.4898 97.8565 76.6066 96.4055 71.6706 95.3602C71.3961 95.3017 71.3665 95.7376 71.6385 95.7954C76.55 96.8362 81.4223 98.1721 86.2837 99.5112C84.6443 105.933 82.9234 112.331 81.0706 118.689C80.3133 118.509 79.5573 118.325 78.8013 118.145C74.3321 117.086 69.832 115.823 65.2953 115.074C64.9758 115.02 64.9398 115.523 65.258 115.576C68.4858 116.11 71.6848 116.974 74.8689 117.711C76.8933 118.18 78.9164 118.66 80.9389 119.136C79.054 125.58 77.0347 131.986 74.8226 138.337C74.7686 138.492 74.9962 138.569 75.0598 138.421C77.6956 132.251 79.5625 125.709 81.385 119.24C86.1069 120.353 90.8268 121.479 95.539 122.634C95.9781 122.741 96.4166 122.85 96.855 122.959C95.9981 126.166 95.1379 129.373 94.2713 132.578C93.3546 135.975 92.2488 139.415 91.6407 142.883C91.6342 142.916 91.6844 142.924 91.6947 142.895C92.5491 140.528 93.0878 138.022 93.7467 135.594C94.8833 131.408 95.9621 127.207 97.0434 123.005C102.34 124.306 107.633 125.625 112.92 126.964C112.139 129.751 111.358 132.537 110.578 135.323C109.489 139.221 108.582 143.243 107.237 147.064C107.16 147.287 107.503 147.409 107.581 147.186C108.537 144.468 109.174 141.6 109.939 138.825C111.022 134.895 112.098 130.962 113.172 127.029C118.567 128.397 123.957 129.786 129.338 131.206C128.313 134.553 127.27 137.894 126.208 141.23C125.147 144.56 124.238 148.048 122.865 151.27C122.759 151.521 123.155 151.661 123.261 151.412C124.633 148.192 125.525 144.692 126.578 141.362C127.637 138.014 128.676 134.66 129.701 131.301C134.925 132.682 140.141 134.094 145.348 135.538C144.514 138.512 143.68 141.486 142.848 144.459C141.759 148.356 140.851 152.377 139.509 156.199C139.48 156.279 139.508 156.346 139.557 156.388C126.407 152.615 113.231 148.925 100.028 145.345ZM139.719 156.432C139.775 156.424 139.828 156.391 139.853 156.32C140.808 153.602 141.446 150.734 142.211 147.959C143.345 143.843 144.472 139.724 145.595 135.604C147.115 136.027 148.635 136.448 150.154 136.875C154.003 137.96 157.836 139.095 161.661 140.25C160.754 143.648 159.842 147.042 158.926 150.438C158.009 153.834 156.903 157.274 156.295 160.742C156.289 160.773 156.338 160.783 156.349 160.753C157.203 158.385 157.741 155.879 158.401 153.452C159.587 149.081 160.712 144.693 161.841 140.305C167.411 141.991 172.965 143.731 178.512 145.502C176.936 151.083 175.353 156.662 173.77 162.237C173.408 163.514 173.045 164.791 172.68 166.065C161.708 162.803 150.722 159.59 139.719 156.432Z" fill="#EFE2D8"/>
<path opacity="0.3" d="M172.887 166.318L155.819 161.72L177.002 82.1808L194.201 87.3842L172.887 166.318Z" fill="#F6C09C"/>
<path d="M147.689 56.9468L147.613 56.6828L147.394 55.9442C147.259 55.4846 146.696 55.3028 146.322 55.61L145.732 56.0838L145.715 56.0975L145.504 56.2659L142.327 58.8685L142.115 59.0427C142.115 59.0427 142.115 59.0427 142.113 59.0485L140.645 60.2481L142.505 60.8151L144.157 61.3174C144.48 61.4181 144.765 61.6397 144.924 61.9422C145.031 62.1464 145.082 62.3708 145.071 62.5887L146.817 63.1331C146.953 62.4352 146.866 61.7188 146.525 61.0876C146.137 60.3656 145.492 59.8358 144.708 59.5915L144.218 59.4388L144.216 59.4445L146.017 57.9881L146.23 57.814L146.306 58.078L147.257 61.3158C147.358 61.6633 147.628 61.9311 147.969 62.0371L149.318 62.4575L147.689 56.9468Z" fill="#F43F5E"/>
<path d="M148.962 64.4706L147.263 63.9539L147.217 63.9395L145.184 63.3186C144.835 63.2223 144.578 62.9906 144.414 62.6863C144.318 62.5048 144.274 62.3013 144.272 62.1046L142.508 61.5548C142.397 62.235 142.491 62.9284 142.819 63.5427C143.207 64.2647 143.85 64.8002 144.628 65.0428L145.868 65.4291L145.881 65.4269C145.211 65.7686 144.447 65.7645 143.604 65.4258C143.581 65.4186 143.552 65.4096 143.514 65.3913C142.299 64.804 141.709 63.937 141.711 62.7547C141.709 62.2925 141.82 61.8338 142.012 61.4003L140.283 60.8613C140.043 61.4696 139.902 62.1026 139.896 62.7521C139.896 64.0929 140.4 65.9261 142.804 67.0612L143.24 67.2226C145.002 67.8221 146.639 67.4404 147.918 66.1566C147.955 66.1177 147.991 66.0845 148.023 66.0438C148.447 65.5942 148.777 65.0644 149.014 64.4868L148.962 64.4706Z" fill="#0E172A"/>
<g opacity="0.14">
<path d="M152.784 81.8888L152.695 81.6288L152.441 80.9016C152.283 80.4491 151.712 80.2948 151.353 80.6197L150.787 81.1216L150.77 81.1361L150.568 81.3145L147.521 84.0679L147.317 84.2522C147.317 84.2522 147.317 84.2522 147.316 84.258L145.908 85.5274L147.793 86.0036L149.468 86.4253C149.795 86.5102 150.091 86.7178 150.264 87.0122C150.381 87.211 150.442 87.4327 150.441 87.6509L152.213 88.1101C152.314 87.4064 152.193 86.695 151.821 86.0811C151.398 85.3788 150.729 84.8808 149.934 84.6747L149.437 84.5459L149.436 84.5518L151.164 83.0099L151.368 82.8256L151.456 83.0856L152.564 86.2735C152.681 86.6158 152.964 86.8702 153.309 86.9596L154.677 87.3142L152.784 81.8888Z" fill="#F43F5E"/>
<path d="M154.419 89.342L152.698 88.9082L152.651 88.8961L150.59 88.3744C150.237 88.2951 149.969 88.0761 149.79 87.7801C149.686 87.6034 149.632 87.4023 149.621 87.206L147.832 86.7423C147.754 87.427 147.882 88.1151 148.238 88.7128C148.661 89.4151 149.329 89.9189 150.118 90.1235L151.375 90.4493L151.388 90.4465C150.736 90.8201 149.973 90.8531 149.114 90.5556C149.091 90.5495 149.061 90.542 149.022 90.5255C147.78 89.9977 147.149 89.1603 147.093 87.9793C147.069 87.5178 147.158 87.0542 147.329 86.6119L145.576 86.1573C145.365 86.7765 145.256 87.4156 145.281 88.0647C145.345 89.4039 145.937 91.2106 148.394 92.2278L148.838 92.3679C150.626 92.8814 152.243 92.4209 153.458 91.0766C153.494 91.0359 153.528 91.0011 153.557 90.9589C153.96 90.4893 154.263 89.9441 154.472 89.3557L154.419 89.342Z" fill="#F43F5E"/>
</g>
<g opacity="0.14">
<path d="M130.749 96.1683L130.66 95.9083L130.406 95.1811C130.248 94.7286 129.677 94.5743 129.318 94.8993L128.752 95.4011L128.735 95.4156L128.533 95.594L125.486 98.3475L125.283 98.5317C125.283 98.5317 125.283 98.5317 125.281 98.5376L123.873 99.8069L125.758 100.283L127.433 100.705C127.76 100.79 128.056 100.997 128.229 101.292C128.346 101.491 128.407 101.712 128.406 101.93L130.178 102.39C130.279 101.686 130.158 100.975 129.787 100.361C129.364 99.6583 128.694 99.1604 127.899 98.9543L127.402 98.8255L127.401 98.8313L129.129 97.2894L129.333 97.1052L129.422 97.3652L130.529 100.553C130.646 100.895 130.929 101.15 131.274 101.239L132.642 101.594L130.749 96.1683Z" fill="#F43F5E"/>
<path d="M132.384 103.622L130.663 103.188L130.616 103.176L128.555 102.654C128.202 102.575 127.934 102.356 127.755 102.06C127.651 101.883 127.597 101.682 127.586 101.486L125.797 101.022C125.719 101.707 125.847 102.395 126.203 102.992C126.626 103.695 127.294 104.198 128.083 104.403L129.34 104.729L129.353 104.726C128.701 105.1 127.938 105.133 127.079 104.835C127.056 104.829 127.027 104.822 126.987 104.805C125.745 104.277 125.114 103.44 125.058 102.259C125.035 101.797 125.124 101.334 125.294 100.891L123.541 100.437C123.33 101.056 123.221 101.695 123.246 102.344C123.31 103.683 123.903 105.49 126.359 106.507L126.803 106.647C128.591 107.161 130.208 106.7 131.423 105.356C131.459 105.315 131.493 105.281 131.522 105.238C131.925 104.769 132.228 104.224 132.437 103.635L132.384 103.622Z" fill="#F43F5E"/>
</g>
<g opacity="0.14">
<path d="M92.8225 108.081L92.7339 107.821L92.4795 107.094C92.3223 106.642 91.751 106.487 91.3923 106.812L90.8255 107.314L90.8093 107.329L90.6071 107.507L87.5601 110.26L87.3564 110.445C87.3564 110.445 87.3564 110.445 87.3549 110.45L85.9466 111.72L87.8319 112.196L89.5067 112.618C89.834 112.703 90.1296 112.91 90.3028 113.205C90.4197 113.403 90.4807 113.625 90.4803 113.843L92.2515 114.303C92.3528 113.599 92.2315 112.887 91.8604 112.274C91.4374 111.571 90.768 111.073 89.973 110.867L89.4761 110.738L89.4746 110.744L91.2031 109.202L91.4068 109.018L91.4954 109.278L92.6028 112.466C92.7199 112.808 93.0033 113.063 93.3482 113.152L94.7161 113.507L92.8225 108.081Z" fill="#F43F5E"/>
<path d="M94.4583 115.534L92.7367 115.101L92.6899 115.089L90.6293 114.567C90.2755 114.488 90.0079 114.268 89.8289 113.973C89.725 113.796 89.6711 113.595 89.6596 113.398L87.8709 112.935C87.7932 113.619 87.9205 114.308 88.2771 114.905C88.7001 115.608 89.368 116.111 90.1571 116.316L91.4139 116.642L91.4271 116.639C90.775 117.013 90.0117 117.046 89.153 116.748C89.1297 116.742 89.1004 116.734 89.061 116.718C87.8192 116.19 87.1879 115.353 87.1322 114.172C87.1084 113.71 87.1974 113.247 87.3682 112.804L85.6145 112.35C85.4041 112.969 85.2946 113.608 85.3197 114.257C85.3842 115.596 85.9764 117.403 88.4326 118.42L88.8766 118.56C90.6649 119.074 92.2814 118.613 93.4971 117.269C93.5326 117.228 93.5665 117.194 93.5962 117.151C93.9987 116.682 94.3022 116.137 94.5109 115.548L94.4583 115.534Z" fill="#F43F5E"/>
</g>
<g opacity="0.14">
<path d="M136.789 136.934L136.701 136.674L136.446 135.947C136.289 135.495 135.718 135.34 135.359 135.665L134.792 136.167L134.776 136.181L134.574 136.36L131.527 139.113L131.323 139.298C131.323 139.298 131.323 139.298 131.322 139.303L129.914 140.573L131.799 141.049L133.474 141.471C133.801 141.556 134.096 141.763 134.27 142.058C134.387 142.256 134.448 142.478 134.447 142.696L136.218 143.155C136.32 142.452 136.198 141.74 135.827 141.126C135.404 140.424 134.735 139.926 133.94 139.72L133.443 139.591L133.442 139.597L135.17 138.055L135.374 137.871L135.462 138.131L136.57 141.319C136.687 141.661 136.97 141.916 137.315 142.005L138.683 142.36L136.789 136.934Z" fill="#F43F5E"/>
<path d="M138.425 144.387L136.704 143.954L136.657 143.942L134.596 143.42C134.242 143.341 133.975 143.121 133.796 142.826C133.692 142.649 133.638 142.448 133.626 142.251L131.838 141.788C131.76 142.472 131.887 143.16 132.244 143.758C132.667 144.461 133.335 144.964 134.124 145.169L135.381 145.495L135.394 145.492C134.742 145.866 133.979 145.898 133.12 145.601C133.097 145.595 133.067 145.587 133.028 145.571C131.786 145.043 131.155 144.206 131.099 143.025C131.075 142.563 131.164 142.1 131.335 141.657L129.581 141.203C129.371 141.822 129.261 142.461 129.287 143.11C129.351 144.449 129.943 146.256 132.399 147.273L132.844 147.413C134.632 147.927 136.248 147.466 137.464 146.122C137.499 146.081 137.533 146.046 137.563 146.004C137.966 145.535 138.269 144.99 138.478 144.401L138.425 144.387Z" fill="#F43F5E"/>
</g>
<g opacity="0.14">
<path d="M104.175 67.1652L104.087 66.9052L103.832 66.178C103.675 65.7255 103.104 65.5712 102.745 65.8962L102.178 66.398L102.162 66.4125L101.96 66.5909L98.9128 69.3444L98.7091 69.5286C98.7091 69.5286 98.7091 69.5286 98.7075 69.5345L97.2993 70.8038L99.1845 71.2801L100.859 71.7018C101.187 71.7866 101.482 71.9942 101.655 72.2887C101.772 72.4874 101.833 72.7091 101.833 72.9273L103.604 73.3865C103.705 72.6829 103.584 71.9715 103.213 71.3575C102.79 70.6552 102.121 70.1573 101.326 69.9512L100.829 69.8224L100.827 69.8282L102.556 68.2863L102.759 68.102L102.848 68.362L103.955 71.5499C104.073 71.8922 104.356 72.1466 104.701 72.236L106.069 72.5906L104.175 67.1652Z" fill="#F43F5E"/>
<path d="M105.811 74.6185L104.089 74.1846L104.043 74.1725L101.982 73.6508C101.628 73.5716 101.361 73.3525 101.182 73.0565C101.078 72.8799 101.024 72.6788 101.012 72.4824L99.2235 72.0187C99.1458 72.7035 99.2731 73.3915 99.6297 73.9892C100.053 74.6915 100.721 75.1953 101.51 75.3999L102.767 75.7257L102.78 75.7229C102.128 76.0966 101.364 76.1295 100.506 75.832C100.482 75.826 100.453 75.8184 100.414 75.8019C99.1718 75.2741 98.5405 74.4368 98.4849 73.2558C98.461 72.7942 98.55 72.3307 98.7208 71.8884L96.9672 71.4338C96.7568 72.0529 96.6472 72.692 96.6724 73.3411C96.7369 74.6803 97.329 76.487 99.7852 77.5043L100.229 77.6443C102.018 78.1578 103.634 77.6973 104.85 76.3531C104.885 76.3124 104.919 76.2775 104.949 76.2353C105.351 75.7657 105.655 75.2206 105.864 74.6321L105.811 74.6185Z" fill="#F43F5E"/>
</g>
<path d="M168.671 72.899C168.214 72.7566 167.828 72.5222 167.512 72.1958C167.205 71.8646 167.002 71.4557 166.903 70.9691C166.811 70.4846 166.862 69.9308 167.056 69.3077C167.25 68.6845 167.519 68.1987 167.863 67.8502C168.214 67.5038 168.609 67.285 169.048 67.1938C169.493 67.1048 169.952 67.1336 170.422 67.2804C170.962 67.4487 171.404 67.7152 171.746 68.0801C172.088 68.445 172.314 68.8764 172.425 69.3742C172.538 69.8652 172.507 70.3911 172.332 70.9519C172.157 71.5127 171.883 71.9666 171.509 72.3134C171.135 72.6602 170.703 72.8866 170.215 72.9925C169.726 73.0985 169.211 73.0673 168.671 72.899ZM165.144 73.942L167.488 66.4228L168.443 66.7206L167.98 68.2057L167.52 69.4637L167.226 70.7735L166.142 74.2527L165.144 73.942ZM168.86 72.0007C169.213 72.1107 169.553 72.1293 169.88 72.0564C170.213 71.9856 170.505 71.8296 170.755 71.5884C171.014 71.3425 171.204 71.0257 171.324 70.6379C171.447 70.2433 171.47 69.8781 171.392 69.5425C171.324 69.202 171.172 68.908 170.938 68.6603C170.711 68.4147 170.421 68.2369 170.067 68.1269C169.721 68.019 169.381 68.0004 169.048 68.0712C168.721 68.1441 168.43 68.3001 168.173 68.5391C167.925 68.7734 167.74 69.0878 167.617 69.4825C167.496 69.8702 167.469 70.2377 167.535 70.5851C167.611 70.9277 167.762 71.2217 167.99 71.4673C168.224 71.715 168.514 71.8928 168.86 72.0007Z" fill="#0E172A"/>
<path d="M162.245 70.8962C161.691 70.7236 161.237 70.4492 160.884 70.0731C160.53 69.697 160.294 69.2589 160.176 68.7589C160.061 68.252 160.087 67.7285 160.256 67.1884C160.426 66.6414 160.702 66.1956 161.083 65.8509C161.464 65.5063 161.905 65.2831 162.408 65.1815C162.913 65.0729 163.442 65.105 163.996 65.2776C164.543 65.4481 164.993 65.7214 165.347 66.0975C165.71 66.4688 165.947 66.9034 166.057 67.4013C166.177 67.8944 166.151 68.4179 165.978 68.9718C165.808 69.5188 165.532 69.9646 165.151 70.3093C164.777 70.6561 164.334 70.8827 163.823 70.9891C163.318 71.0977 162.792 71.0667 162.245 70.8962ZM162.517 70.0238C162.87 70.1339 163.21 70.1524 163.536 70.0795C163.87 70.0087 164.162 69.8528 164.412 69.6116C164.664 69.3635 164.85 69.0456 164.971 68.6578C165.094 68.2632 165.12 67.8991 165.049 67.5656C164.981 67.2252 164.829 66.9311 164.595 66.6834C164.368 66.4378 164.077 66.26 163.724 66.15C163.371 66.0399 163.031 66.0214 162.705 66.0943C162.378 66.1673 162.086 66.3232 161.83 66.5622C161.575 66.7943 161.386 67.1077 161.263 67.5024C161.142 67.8901 161.119 68.2587 161.192 68.6082C161.268 68.9508 161.419 69.2449 161.646 69.4904C161.874 69.736 162.164 69.9138 162.517 70.0238Z" fill="#0E172A"/>
<path d="M156.496 69.0361L158.211 63.5317L159.167 63.8295L158.701 65.325L158.724 64.922C158.995 64.5887 159.342 64.3777 159.764 64.2891C160.187 64.2006 160.661 64.2383 161.187 64.4022L160.886 65.3681C160.847 65.3482 160.807 65.3318 160.765 65.3189C160.73 65.3081 160.696 65.2973 160.661 65.2865C160.128 65.1204 159.656 65.148 159.245 65.3694C158.834 65.5908 158.535 66.0027 158.347 66.605L157.493 69.3468L156.496 69.0361Z" fill="#0E172A"/>
<path d="M152.399 67.8276C151.866 67.6614 151.425 67.3949 151.076 67.0278C150.733 66.6629 150.507 66.2316 150.396 65.7337C150.286 65.2358 150.318 64.7065 150.492 64.1457C150.667 63.5848 150.941 63.1345 151.312 62.7946C151.686 62.4477 152.118 62.2214 152.606 62.1154C153.102 62.0116 153.617 62.0428 154.15 62.209C154.614 62.3535 155 62.5879 155.309 62.9122C155.618 63.2364 155.819 63.6408 155.911 64.1252C156.01 64.6119 155.963 65.1667 155.768 65.7899C155.574 66.413 155.302 66.8978 154.951 67.2442C154.606 67.5927 154.214 67.816 153.773 67.9141C153.335 68.0053 152.876 67.9765 152.399 67.8276ZM152.754 66.9811C153.1 67.089 153.436 67.1065 153.763 67.0335C154.096 66.9627 154.388 66.8068 154.638 66.5656C154.897 66.3197 155.087 66.0028 155.208 65.6151C155.331 65.2205 155.353 64.8553 155.276 64.5196C155.207 64.1792 155.055 63.8851 154.821 63.6374C154.594 63.3919 154.307 63.2151 153.961 63.1073C153.608 62.9972 153.268 62.9786 152.941 63.0516C152.615 63.1245 152.323 63.2805 152.066 63.5195C151.812 63.7516 151.623 64.065 151.5 64.4596C151.379 64.8473 151.355 65.216 151.429 65.5655C151.504 65.9081 151.656 66.2021 151.883 66.4477C152.11 66.6932 152.401 66.871 152.754 66.9811ZM154.381 68.377L154.844 66.8919L155.304 65.6339L155.599 64.3241L156.741 60.6579L157.738 60.9686L155.336 68.6748L154.381 68.377Z" fill="#0E172A"/>
<path d="M187.409 77.2888L187.828 76.0179L191.898 74.1075L193.103 74.4829L189.928 76.1142L189.246 76.4029L187.409 77.2888ZM186.184 78.3658L188.586 70.6596L189.583 70.9703L187.181 78.6765L186.184 78.3658ZM190.391 79.6766L189.065 76.3239L189.959 75.7249L191.616 80.0585L190.391 79.6766Z" fill="#F43F5E"/>
<path d="M184.832 71.8481C185.282 71.9884 185.649 72.1979 185.935 72.4767C186.227 72.7577 186.415 73.105 186.499 73.5185C186.583 73.932 186.54 74.4088 186.372 74.9489L185.385 78.1165L184.388 77.8058L185.339 74.7524C185.506 74.2193 185.499 73.7767 185.32 73.4247C185.148 73.0748 184.827 72.8265 184.356 72.6798C184.003 72.5697 183.673 72.5429 183.367 72.5994C183.061 72.6559 182.793 72.7965 182.563 73.0212C182.341 73.2481 182.167 73.5623 182.041 73.9639L181.158 76.7992L180.161 76.4884L181.876 70.9841L182.832 71.2818L182.369 72.767L182.336 72.3238C182.628 72.0198 182.993 71.8257 183.429 71.7415C183.866 71.6572 184.333 71.6927 184.832 71.8481Z" fill="#F43F5E"/>
<path d="M178.364 75.9285L180.08 70.4241L181.077 70.7349L179.361 76.2392L178.364 75.9285Z" fill="#F43F5E"/>
<path d="M172.693 74.1611L174.959 66.8912L175.997 67.2148L174.013 73.5812L177.949 74.8079L177.668 75.7115L172.693 74.1611Z" fill="#F43F5E"/>
<path d="M180.63 68.6586L181.548 69.2229L181.249 70.1826L180.34 69.5897L180.63 68.6586Z" fill="#F43F5E"/>
</svg>
